999
dxfrw 0.6.3
  0
SECTION
  2
HEADER
  9
$ACADVER
  1
AC1021
  9
$DWGCODEPAGE
  3
ANSI_1252
  9
$INSBASE
 10
0
 20
0
 30
0
  9
$EXTMIN
 10
-320
 20
-260.0000000000018
 30
0
  9
$EXTMAX
 10
559.1666666666684
 20
210
 30
0
  9
$LIMMIN
 10
0
 20
0
  9
$LIMMAX
 10
420
 20
297
  9
$ORTHOMODE
 70
    0
  9
$REGENMODE
 70
    1
  9
$FILLMODE
 70
    1
  9
$QTEXTMODE
 70
    0
  9
$MIRRTEXT
 70
    0
  9
$LTSCALE
 40
1
  9
$ATTMODE
 70
    0
  9
$TEXTSIZE
 40
2.5
  9
$TRACEWID
 40
15.68
  9
$TEXTSTYLE
  7
STANDARD
  9
$CLAYER
  8
additional-dimensions
  9
$CELTYPE
  6
BYLAYER
  9
$CECOLOR
 62
  256
  9
$CELTSCALE
 40
1
  9
$DISPSILH
 70
    0
  9
$DIMSCALE
 40
2.5
  9
$DIMASZ
 40
2.5
  9
$DIMEXO
 40
0.625
  9
$DIMDLI
 40
3.75
  9
$DIMRND
 40
0
  9
$DIMDLE
 40
0
  9
$DIMEXE
 40
1.25
  9
$DIMTP
 40
0
  9
$DIMTM
 40
0
  9
$DIMTXT
 40
2.5
  9
$DIMCEN
 40
2.5
  9
$DIMTSZ
 40
0
  9
$DIMTOL
 70
    0
  9
$DIMLIM
 70
    0
  9
$DIMTIH
 70
    0
  9
$DIMTOH
 70
    0
  9
$DIMSE1
 70
    0
  9
$DIMSE2
 70
    0
  9
$DIMTAD
 70
    1
  9
$DIMZIN
 70
    8
  9
$DIMBLK
  1

  9
$DIMASO
 70
    1
  9
$DIMSHO
 70
    1
  9
$DIMPOST
  1

  9
$DIMAPOST
  1

  9
$DIMALT
 70
    0
  9
$DIMALTD
 70
    3
  9
$DIMALTF
 40
0.03937
  9
$DIMLFAC
 40
1
  9
$DIMTOFL
 70
    1
  9
$DIMTVP
 40
0
  9
$DIMTIX
 70
    0
  9
$DIMSOXD
 70
    0
  9
$DIMSAH
 70
    0
  9
$DIMBLK1
  1

  9
$DIMBLK2
  1

  9
$DIMSTYLE
  2
STANDARD
  9
$DIMCLRD
 70
    0
  9
$DIMCLRE
 70
    0
  9
$DIMCLRT
 70
    0
  9
$DIMTFAC
 40
1
  9
$DIMGAP
 40
0.625
  9
$DIMJUST
 70
    0
  9
$DIMSD1
 70
    0
  9
$DIMSD2
 70
    0
  9
$DIMTOLJ
 70
    0
  9
$DIMTZIN
 70
    8
  9
$DIMALTZ
 70
    0
  9
$DIMALTTZ
 70
    0
  9
$DIMUPT
 70
    0
  9
$DIMDEC
 70
    2
  9
$DIMTDEC
 70
    2
  9
$DIMALTU
 70
    2
  9
$DIMALTTD
 70
    3
  9
$DIMTXSTY
  7
standard
  9
$DIMAUNIT
 70
    0
  9
$DIMADEC
 70
    0
  9
$DIMALTRND
 40
0
  9
$DIMAZIN
 70
    0
  9
$DIMDSEP
 70
   44
  9
$DIMATFIT
 70
    3
  9
$DIMFRAC
 70
    0
  9
$DIMLDRBLK
  1
STANDARD
  9
$DIMLUNIT
 70
    2
  9
$DIMLWD
 70
   -2
  9
$DIMLWE
 70
   -2
  9
$DIMTMOVE
 70
    0
  9
$DIMFXL
 40
1
  9
$DIMFXLON
 70
    0
  9
$DIMJOGANG
 40
0.7854
  9
$DIMTFILL
 70
    0
  9
$DIMTFILLCLR
 70
    0
  9
$DIMARCSYM
 70
    0
  9
$DIMLTYPE
  6

  9
$DIMLTEX1
  6

  9
$DIMLTEX2
  6

  9
$LUNITS
 70
    2
  9
$LUPREC
 70
    4
  9
$SKETCHINC
 40
1
  9
$FILLETRAD
 40
0
  9
$AUNITS
 70
    0
  9
$AUPREC
 70
    2
  9
$MENU
  1
.
  9
$ELEVATION
 40
0
  9
$PELEVATION
 40
0
  9
$THICKNESS
 40
0
  9
$LIMCHECK
 70
    0
  9
$CHAMFERA
 40
0
  9
$CHAMFERB
 40
0
  9
$CHAMFERC
 40
0
  9
$CHAMFERD
 40
0
  9
$SKPOLY
 70
    0
  9
$USRTIMER
 70
    1
  9
$ANGBASE
 50
0
  9
$ANGDIR
 70
    0
  9
$PDMODE
 70
   34
  9
$PDSIZE
 40
0
  9
$PLINEWID
 40
0
  9
$SPLFRAME
 70
    0
  9
$SPLINETYPE
 70
    2
  9
$SPLINESEGS
 70
    8
  9
$HANDSEED
  5
20000
  9
$SURFTAB1
 70
    6
  9
$SURFTAB2
 70
    6
  9
$SURFTYPE
 70
    6
  9
$SURFU
 70
    6
  9
$SURFV
 70
    6
  9
$UCSBASE
  2

  9
$UCSNAME
  2

  9
$UCSORG
 10
0
 20
0
 30
0
  9
$UCSXDIR
 10
1
 20
0
 30
0
  9
$UCSYDIR
 10
0
 20
1
 30
0
  9
$UCSORTHOREF
  2

  9
$UCSORTHOVIEW
 70
    0
  9
$UCSORGTOP
 10
0
 20
0
 30
0
  9
$UCSORGBOTTOM
 10
0
 20
0
 30
0
  9
$UCSORGLEFT
 10
0
 20
0
 30
0
  9
$UCSORGRIGHT
 10
0
 20
0
 30
0
  9
$UCSORGFRONT
 10
0
 20
0
 30
0
  9
$UCSORGBACK
 10
0
 20
0
 30
0
  9
$PUCSBASE
  2

  9
$PUCSNAME
  2

  9
$PUCSORG
 10
0
 20
0
 30
0
  9
$PUCSXDIR
 10
1
 20
0
 30
0
  9
$PUCSYDIR
 10
0
 20
1
 30
0
  9
$PUCSORTHOREF
  2

  9
$PUCSORTHOVIEW
 70
    0
  9
$PUCSORGTOP
 10
0
 20
0
 30
0
  9
$PUCSORGBOTTOM
 10
0
 20
0
 30
0
  9
$PUCSORGLEFT
 10
0
 20
0
 30
0
  9
$PUCSORGRIGHT
 10
0
 20
0
 30
0
  9
$PUCSORGFRONT
 10
0
 20
0
 30
0
  9
$PUCSORGBACK
 10
0
 20
0
 30
0
  9
$USERI1
 70
    0
  9
$USERI2
 70
    0
  9
$USERI3
 70
    0
  9
$USERI4
 70
    0
  9
$USERI5
 70
    0
  9
$USERR1
 40
0
  9
$USERR2
 40
0
  9
$USERR3
 40
0
  9
$USERR4
 40
0
  9
$USERR5
 40
0
  9
$WORLDVIEW
 70
    1
  9
$SHADEDGE
 70
    3
  9
$SHADEDIF
 70
   70
  9
$TILEMODE
 70
    1
  9
$MAXACTVP
 70
   64
  9
$PINSBASE
 10
0
 20
0
 30
0
  9
$PLIMCHECK
 70
    0
  9
$PEXTMIN
 10
0
 20
0
 30
0
  9
$PEXTMAX
 10
0
 20
0
 30
0
  9
$GRIDMODE
 70
    1
  9
$SNAPSTYLE
 70
    0
  9
$GRIDUNIT
 10
0
 20
0
  9
$PLIMMIN
 10
0
 20
0
  9
$PLIMMAX
 10
210
 20
297
  9
$UNITMODE
 70
    0
  9
$VISRETAIN
 70
    1
  9
$PLINEGEN
 70
    0
  9
$PSLTSCALE
 70
    1
  9
$TREEDEPTH
 70
 3020
  9
$CMLSTYLE
  2
Standard
  9
$CMLJUST
 70
    0
  9
$CMLSCALE
 40
20
  9
$PROXYGRAPHICS
 70
    1
  9
$MEASUREMENT
 70
    1
  9
$CELWEIGHT
370
   -1
  9
$ENDCAPS
280
    0
  9
$JOINSTYLE
280
    0
  9
$LWDISPLAY
290
    0
  9
$INSUNITS
 70
    4
  9
$HYPERLINKBASE
  1

  9
$STYLESHEET
  1

  9
$XEDIT
290
    1
  9
$CEPSNTYPE
380
    0
  9
$PSTYLEMODE
290
    1
  9
$EXTNAMES
290
    1
  9
$PSVPSCALE
 40
1
  9
$OLESTARTUP
290
    0
  9
$SORTENTS
280
  127
  9
$INDEXCTL
280
    0
  9
$HIDETEXT
280
    1
  9
$XCLIPFRAME
290
    0
  9
$HALOGAP
280
    0
  9
$OBSCOLOR
 70
  257
  9
$OBSLTYPE
280
    0
  9
$INTERSECTIONDISPLAY
280
    0
  9
$INTERSECTIONCOLOR
 70
  257
  9
$DIMASSOC
280
    1
  9
$PROJECTNAME
  1

  9
$CAMERADISPLAY
290
    0
  9
$LENSLENGTH
 40
50
  9
$CAMERAHEIGHT
 40
0
  9
$STEPSPERSEC
 40
2
  9
$STEPSIZE
 40
50
  9
$3DDWFPREC
 40
2
  9
$PSOLWIDTH
 40
5
  9
$PSOLHEIGHT
 40
80
  9
$LOFTANG1
 40
1.570796326794897
  9
$LOFTANG2
 40
1.570796326794897
  9
$LOFTMAG1
 40
0
  9
$LOFTMAG2
 40
0
  9
$LOFTPARAM
 70
    7
  9
$LOFTNORMALS
280
    1
  9
$LATITUDE
 40
1
  9
$LONGITUDE
 40
1
  9
$NORTHDIRECTION
 40
0
  9
$TIMEZONE
 70
-8000
  9
$LIGHTGLYPHDISPLAY
280
    1
  9
$TILEMODELIGHTSYNCH
280
    1
  9
$SOLIDHIST
280
    1
  9
$SHOWHIST
280
    1
  9
$DWFFRAME
280
    2
  9
$DGNFRAME
280
    0
  9
$REALWORLDSCALE
290
    1
  9
$INTERFERECOLOR
 62
    1
  9
$CSHADOW
280
    0
  9
$SHADOWPLANELOCATION
 40
0
  0
ENDSEC
  0
SECTION
  2
CLASSES
  0
ENDSEC
  0
SECTION
  2
TABLES
  0
TABLE
  2
VPORT
  5
8
330
0
100
AcDbSymbolTable
 70
    1
  0
VPORT
  5
31
330
2
100
AcDbSymbolTableRecord
100
AcDbViewportTableRecord
  2
*ACTIVE
 70
    0
 10
0
 20
0
 11
1
 21
1
 12
219.3736100065438
 22
70.88064294435262
 13
0
 23
0
 14
10
 24
10
 15
10
 25
10
 16
0
 26
0
 36
1
 17
0
 27
0
 37
0
 40
530.6148689688966
 41
1.646268656716418
 42
50
 43
0
 44
0
 50
0
 51
0
 71
    0
 72
  100
 73
    1
 74
    3
 75
    0
 76
    1
 77
    0
 78
    0
281
    0
 65
    1
110
0
120
0
130
0
111
1
121
0
131
0
112
0
122
1
132
0
 79
    0
146
0
348
10020
 60
    7
 61
    5
292
1
282
    1
141
0
142
0
 63
  250
421
3358443
  0
ENDTAB
  0
TABLE
  2
LTYPE
  5
5
330
0
100
AcDbSymbolTable
 70
    4
  0
LTYPE
  5
14
330
5
100
AcDbSymbolTableRecord
100
AcDbLinetypeTableRecord
  2
ByBlock
 70
    0
  3

 72
   65
 73
    0
 40
0
  0
LTYPE
  5
15
330
5
100
AcDbSymbolTableRecord
100
AcDbLinetypeTableRecord
  2
ByLayer
 70
    0
  3

 72
   65
 73
    0
 40
0
  0
LTYPE
  5
16
330
5
100
AcDbSymbolTableRecord
100
AcDbLinetypeTableRecord
  2
Continuous
 70
    0
  3
Solid line
 72
   65
 73
    0
 40
0
  0
LTYPE
  5
32
330
5
100
AcDbSymbolTableRecord
100
AcDbLinetypeTableRecord
  2
DOT
 70
    0
  3
Dot . . . . . . . . . . . . . . . . . . . . . .
 72
   65
 73
    2
 40
6.35
 49
0
 74
    0
 49
-6.35
 74
    0
  0
LTYPE
  5
33
330
5
100
AcDbSymbolTableRecord
100
AcDbLinetypeTableRecord
  2
DOTTINY
 70
    0
  3
Dot (.15x) .....................................
 72
   65
 73
    2
 40
0.9525
 49
0
 74
    0
 49
-0.9525
 74
    0
  0
LTYPE
  5
34
330
5
100
AcDbSymbolTableRecord
100
AcDbLinetypeTableRecord
  2
DOT2
 70
    0
  3
Dot (.5x) .....................................
 72
   65
 73
    2
 40
3.175
 49
0
 74
    0
 49
-3.175
 74
    0
  0
LTYPE
  5
35
330
5
100
AcDbSymbolTableRecord
100
AcDbLinetypeTableRecord
  2
DOTX2
 70
    0
  3
Dot (2x) .  .  .  .  .  .  .  .  .  .  .  .  .
 72
   65
 73
    2
 40
12.7
 49
0
 74
    0
 49
-12.7
 74
    0
  0
LTYPE
  5
36
330
5
100
AcDbSymbolTableRecord
100
AcDbLinetypeTableRecord
  2
DASHED
 70
    0
  3
Dashed _ _ _ _ _ _ _ _ _ _ _ _ _ _ _ _ _
 72
   65
 73
    2
 40
19.05
 49
12.7
 74
    0
 49
-6.35
 74
    0
  0
LTYPE
  5
37
330
5
100
AcDbSymbolTableRecord
100
AcDbLinetypeTableRecord
  2
DASHEDTINY
 70
    0
  3
Dashed (.15x) _ _ _ _ _ _ _ _ _ _ _ _ _ _ _ _ _
 72
   65
 73
    2
 40
2.8575
 49
1.905
 74
    0
 49
-0.9525
 74
    0
  0
LTYPE
  5
38
330
5
100
AcDbSymbolTableRecord
100
AcDbLinetypeTableRecord
  2
DASHED2
 70
    0
  3
Dashed (.5x) _ _ _ _ _ _ _ _ _ _ _ _ _ _ _ _ _
 72
   65
 73
    2
 40
9.524999999999999
 49
6.35
 74
    0
 49
-3.175
 74
    0
  0
LTYPE
  5
39
330
5
100
AcDbSymbolTableRecord
100
AcDbLinetypeTableRecord
  2
DASHEDX2
 70
    0
  3
Dashed (2x) ____  ____  ____  ____  ____  ___
 72
   65
 73
    2
 40
38.09999999999999
 49
25.4
 74
    0
 49
-12.7
 74
    0
  0
LTYPE
  5
3A
330
5
100
AcDbSymbolTableRecord
100
AcDbLinetypeTableRecord
  2
DASHDOT
 70
    0
  3
Dash dot __ . __ . __ . __ . __ . __ . __ . __
 72
   65
 73
    4
 40
25.4
 49
12.7
 74
    0
 49
-6.35
 74
    0
 49
0
 74
    0
 49
-6.35
 74
    0
  0
LTYPE
  5
3B
330
5
100
AcDbSymbolTableRecord
100
AcDbLinetypeTableRecord
  2
DASHDOTTINY
 70
    0
  3
Dash dot (.15x) _._._._._._._._._._._._._._._.
 72
   65
 73
    4
 40
3.81
 49
1.905
 74
    0
 49
-0.9525
 74
    0
 49
0
 74
    0
 49
-0.9525
 74
    0
  0
LTYPE
  5
3C
330
5
100
AcDbSymbolTableRecord
100
AcDbLinetypeTableRecord
  2
DASHDOT2
 70
    0
  3
Dash dot (.5x) _._._._._._._._._._._._._._._.
 72
   65
 73
    4
 40
12.7
 49
6.35
 74
    0
 49
-3.175
 74
    0
 49
0
 74
    0
 49
-3.175
 74
    0
  0
LTYPE
  5
3D
330
5
100
AcDbSymbolTableRecord
100
AcDbLinetypeTableRecord
  2
DASHDOTX2
 70
    0
  3
Dash dot (2x) ____  .  ____  .  ____  .  ___
 72
   65
 73
    4
 40
50.8
 49
25.4
 74
    0
 49
-12.7
 74
    0
 49
0
 74
    0
 49
-12.7
 74
    0
  0
LTYPE
  5
3E
330
5
100
AcDbSymbolTableRecord
100
AcDbLinetypeTableRecord
  2
DIVIDE
 70
    0
  3
Divide ____ . . ____ . . ____ . . ____ . . ____
 72
   65
 73
    6
 40
31.75
 49
12.7
 74
    0
 49
-6.35
 74
    0
 49
0
 74
    0
 49
-6.35
 74
    0
 49
0
 74
    0
 49
-6.35
 74
    0
  0
LTYPE
  5
3F
330
5
100
AcDbSymbolTableRecord
100
AcDbLinetypeTableRecord
  2
DIVIDETINY
 70
    0
  3
Divide (.15x) __..__..__..__..__..__..__..__.._
 72
   65
 73
    6
 40
4.7625
 49
1.905
 74
    0
 49
-0.9525
 74
    0
 49
0
 74
    0
 49
-0.9525
 74
    0
 49
0
 74
    0
 49
-0.9525
 74
    0
  0
LTYPE
  5
40
330
5
100
AcDbSymbolTableRecord
100
AcDbLinetypeTableRecord
  2
DIVIDE2
 70
    0
  3
Divide (.5x) __..__..__..__..__..__..__..__.._
 72
   65
 73
    6
 40
15.875
 49
6.35
 74
    0
 49
-3.175
 74
    0
 49
0
 74
    0
 49
-3.175
 74
    0
 49
0
 74
    0
 49
-3.175
 74
    0
  0
LTYPE
  5
41
330
5
100
AcDbSymbolTableRecord
100
AcDbLinetypeTableRecord
  2
DIVIDEX2
 70
    0
  3
Divide (2x) ________  .  .  ________  .  .  _
 72
   65
 73
    6
 40
63.5
 49
25.4
 74
    0
 49
-12.7
 74
    0
 49
0
 74
    0
 49
-12.7
 74
    0
 49
0
 74
    0
 49
-12.7
 74
    0
  0
LTYPE
  5
42
330
5
100
AcDbSymbolTableRecord
100
AcDbLinetypeTableRecord
  2
BORDER
 70
    0
  3
Border __ __ . __ __ . __ __ . __ __ . __ __ .
 72
   65
 73
    6
 40
44.45
 49
12.7
 74
    0
 49
-6.35
 74
    0
 49
12.7
 74
    0
 49
-6.35
 74
    0
 49
0
 74
    0
 49
-6.35
 74
    0
  0
LTYPE
  5
43
330
5
100
AcDbSymbolTableRecord
100
AcDbLinetypeTableRecord
  2
BORDERTINY
 70
    0
  3
Border (.15x) __.__.__.__.__.__.__.__.__.__.__.
 72
   65
 73
    6
 40
6.6675
 49
1.905
 74
    0
 49
-0.9525
 74
    0
 49
1.905
 74
    0
 49
-0.9525
 74
    0
 49
0
 74
    0
 49
-0.9525
 74
    0
  0
LTYPE
  5
44
330
5
100
AcDbSymbolTableRecord
100
AcDbLinetypeTableRecord
  2
BORDER2
 70
    0
  3
Border (.5x) __.__.__.__.__.__.__.__.__.__.__.
 72
   65
 73
    6
 40
22.225
 49
6.35
 74
    0
 49
-3.175
 74
    0
 49
6.35
 74
    0
 49
-3.175
 74
    0
 49
0
 74
    0
 49
-3.175
 74
    0
  0
LTYPE
  5
45
330
5
100
AcDbSymbolTableRecord
100
AcDbLinetypeTableRecord
  2
BORDERX2
 70
    0
  3
Border (2x) ____  ____  .  ____  ____  .  ___
 72
   65
 73
    6
 40
88.89999999999999
 49
25.4
 74
    0
 49
-12.7
 74
    0
 49
25.4
 74
    0
 49
-12.7
 74
    0
 49
0
 74
    0
 49
-12.7
 74
    0
  0
LTYPE
  5
46
330
5
100
AcDbSymbolTableRecord
100
AcDbLinetypeTableRecord
  2
CENTER
 70
    0
  3
Center ____ _ ____ _ ____ _ ____ _ ____ _ ____
 72
   65
 73
    4
 40
50.8
 49
31.75
 74
    0
 49
-6.35
 74
    0
 49
6.35
 74
    0
 49
-6.35
 74
    0
  0
LTYPE
  5
47
330
5
100
AcDbSymbolTableRecord
100
AcDbLinetypeTableRecord
  2
CENTERTINY
 70
    0
  3
Center (.15x) ___ _ ___ _ ___ _ ___ _ ___ _ ___
 72
   65
 73
    4
 40
7.619999999999999
 49
4.7625
 74
    0
 49
-0.9525
 74
    0
 49
0.9525
 74
    0
 49
-0.9525
 74
    0
  0
LTYPE
  5
48
330
5
100
AcDbSymbolTableRecord
100
AcDbLinetypeTableRecord
  2
CENTER2
 70
    0
  3
Center (.5x) ___ _ ___ _ ___ _ ___ _ ___ _ ___
 72
   65
 73
    4
 40
28.575
 49
19.05
 74
    0
 49
-3.175
 74
    0
 49
3.175
 74
    0
 49
-3.175
 74
    0
  0
LTYPE
  5
49
330
5
100
AcDbSymbolTableRecord
100
AcDbLinetypeTableRecord
  2
CENTERX2
 70
    0
  3
Center (2x) ________  __  ________  __  _____
 72
   65
 73
    4
 40
101.6
 49
63.5
 74
    0
 49
-12.7
 74
    0
 49
12.7
 74
    0
 49
-12.7
 74
    0
  0
ENDTAB
  0
TABLE
  2
LAYER
  5
2
330
0
100
AcDbSymbolTable
 70
    1
  0
LAYER
  5
10
330
2
100
AcDbSymbolTableRecord
100
AcDbLayerTableRecord
  2
0
 70
    1
 62
    7
  6
CONTINUOUS
370
    0
390
F
  0
LAYER
  5
4A
330
2
100
AcDbSymbolTableRecord
100
AcDbLayerTableRecord
  2
additional-dimensions
 70
    0
 62
    5
  6
CONTINUOUS
370
    0
390
F
  0
LAYER
  5
4B
330
2
100
AcDbSymbolTableRecord
100
AcDbLayerTableRecord
  2
auxiliary
 70
    0
 62
    7
  6
CONTINUOUS
370
    0
390
F
  0
LAYER
  5
4C
330
2
100
AcDbSymbolTableRecord
100
AcDbLayerTableRecord
  2
axis
 70
    0
 62
    1
  6
CONTINUOUS
370
    0
390
F
  0
LAYER
  5
4D
330
2
100
AcDbSymbolTableRecord
100
AcDbLayerTableRecord
  2
dimensions
 70
    0
 62
    7
  6
CONTINUOUS
370
    0
390
F
  0
LAYER
  5
4E
330
2
100
AcDbSymbolTableRecord
100
AcDbLayerTableRecord
  2
internal
 70
    0
 62
    7
  6
CONTINUOUS
370
    0
390
F
  0
LAYER
  5
4F
330
2
100
AcDbSymbolTableRecord
100
AcDbLayerTableRecord
  2
out-part
 70
    0
 62
    7
  6
CONTINUOUS
370
    0
390
F
  0
ENDTAB
  0
TABLE
  2
STYLE
  5
3
330
0
100
AcDbSymbolTable
 70
    3
  0
STYLE
  5
50
330
2
100
AcDbSymbolTableRecord
100
AcDbTextStyleTableRecord
  2
standard
 70
    0
 40
0
 41
1
 50
0
 71
    0
 42
1
  3
standard
  4

  0
ENDTAB
  0
TABLE
  2
VIEW
  5
6
330
0
100
AcDbSymbolTable
 70
    0
  0
ENDTAB
  0
TABLE
  2
UCS
  5
7
330
0
100
AcDbSymbolTable
 70
    0
  0
ENDTAB
  0
TABLE
  2
APPID
  5
9
330
0
100
AcDbSymbolTable
 70
    1
  0
APPID
  5
12
330
9
100
AcDbSymbolTableRecord
100
AcDbRegAppTableRecord
  2
ACAD
 70
    0
  0
APPID
  5
51
330
9
100
AcDbSymbolTableRecord
100
AcDbRegAppTableRecord
  2
LibreCad
 70
    0
  0
ENDTAB
  0
TABLE
  2
DIMSTYLE
  5
A
330
0
100
AcDbSymbolTable
 70
    1
100
AcDbDimStyleTable
 71
    1
  0
DIMSTYLE
105
52
330
A
100
AcDbSymbolTableRecord
100
AcDbDimStyleTableRecord
  2
Standard
 70
    0
 40
2.5
 41
2.5
 42
0.625
 43
0.38
 44
1.25
 45
0
 46
0
 47
0
 48
0
 49
1
140
2.5
141
0.09
142
0
143
25.4
144
1
145
0
146
1
147
0.625
148
0
 71
    0
 72
    0
 73
    0
 74
    1
 75
    0
 76
    0
 77
    0
 78
    8
 79
    0
170
    0
171
    2
172
    0
173
    0
174
    0
175
    0
176
    0
177
    0
178
    0
179
    0
271
    2
272
    4
273
    2
274
    2
275
    0
276
    0
277
    2
278
   44
279
    0
280
    0
281
    0
282
    0
283
    1
284
    0
285
    0
286
    0
288
    0
289
    3
340
standard
341

371
   -2
372
   -2
  0
ENDTAB
  0
TABLE
  2
BLOCK_RECORD
  5
1
330
0
100
AcDbSymbolTable
 70
    2
  0
BLOCK_RECORD
  5
1F
330
1
100
AcDbSymbolTableRecord
100
AcDbBlockTableRecord
  2
*Model_Space
 70
    0
280
    1
281
    0
  0
BLOCK_RECORD
  5
1E
330
1
100
AcDbSymbolTableRecord
100
AcDbBlockTableRecord
  2
*Paper_Space
 70
    0
280
    1
281
    0
  0
BLOCK_RECORD
  5
53
330
1
100
AcDbSymbolTableRecord
100
AcDbBlockTableRecord
  2
*D24
 70
    0
280
    1
281
    0
  0
BLOCK_RECORD
  5
56
330
1
100
AcDbSymbolTableRecord
100
AcDbBlockTableRecord
  2
*D30
 70
    0
280
    1
281
    0
  0
BLOCK_RECORD
  5
59
330
1
100
AcDbSymbolTableRecord
100
AcDbBlockTableRecord
  2
*D9
 70
    0
280
    1
281
    0
  0
BLOCK_RECORD
  5
5C
330
1
100
AcDbSymbolTableRecord
100
AcDbBlockTableRecord
  2
*D27
 70
    0
280
    1
281
    0
  0
BLOCK_RECORD
  5
5F
330
1
100
AcDbSymbolTableRecord
100
AcDbBlockTableRecord
  2
*D6
 70
    0
280
    1
281
    0
  0
BLOCK_RECORD
  5
62
330
1
100
AcDbSymbolTableRecord
100
AcDbBlockTableRecord
  2
*D4
 70
    0
280
    1
281
    0
  0
BLOCK_RECORD
  5
65
330
1
100
AcDbSymbolTableRecord
100
AcDbBlockTableRecord
  2
*D22
 70
    0
280
    1
281
    0
  0
BLOCK_RECORD
  5
68
330
1
100
AcDbSymbolTableRecord
100
AcDbBlockTableRecord
  2
*D23
 70
    0
280
    1
281
    0
  0
BLOCK_RECORD
  5
6B
330
1
100
AcDbSymbolTableRecord
100
AcDbBlockTableRecord
  2
*D16
 70
    0
280
    1
281
    0
  0
BLOCK_RECORD
  5
6E
330
1
100
AcDbSymbolTableRecord
100
AcDbBlockTableRecord
  2
*D26
 70
    0
280
    1
281
    0
  0
BLOCK_RECORD
  5
71
330
1
100
AcDbSymbolTableRecord
100
AcDbBlockTableRecord
  2
*D15
 70
    0
280
    1
281
    0
  0
BLOCK_RECORD
  5
74
330
1
100
AcDbSymbolTableRecord
100
AcDbBlockTableRecord
  2
*D14
 70
    0
280
    1
281
    0
  0
BLOCK_RECORD
  5
77
330
1
100
AcDbSymbolTableRecord
100
AcDbBlockTableRecord
  2
*D7
 70
    0
280
    1
281
    0
  0
BLOCK_RECORD
  5
7A
330
1
100
AcDbSymbolTableRecord
100
AcDbBlockTableRecord
  2
*D2
 70
    0
280
    1
281
    0
  0
BLOCK_RECORD
  5
7D
330
1
100
AcDbSymbolTableRecord
100
AcDbBlockTableRecord
  2
*D12
 70
    0
280
    1
281
    0
  0
BLOCK_RECORD
  5
80
330
1
100
AcDbSymbolTableRecord
100
AcDbBlockTableRecord
  2
*D25
 70
    0
280
    1
281
    0
  0
BLOCK_RECORD
  5
83
330
1
100
AcDbSymbolTableRecord
100
AcDbBlockTableRecord
  2
*D1
 70
    0
280
    1
281
    0
  0
BLOCK_RECORD
  5
86
330
1
100
AcDbSymbolTableRecord
100
AcDbBlockTableRecord
  2
*D11
 70
    0
280
    1
281
    0
  0
BLOCK_RECORD
  5
89
330
1
100
AcDbSymbolTableRecord
100
AcDbBlockTableRecord
  2
*D18
 70
    0
280
    1
281
    0
  0
BLOCK_RECORD
  5
8C
330
1
100
AcDbSymbolTableRecord
100
AcDbBlockTableRecord
  2
*D20
 70
    0
280
    1
281
    0
  0
BLOCK_RECORD
  5
8F
330
1
100
AcDbSymbolTableRecord
100
AcDbBlockTableRecord
  2
*D5
 70
    0
280
    1
281
    0
  0
BLOCK_RECORD
  5
92
330
1
100
AcDbSymbolTableRecord
100
AcDbBlockTableRecord
  2
*D17
 70
    0
280
    1
281
    0
  0
BLOCK_RECORD
  5
95
330
1
100
AcDbSymbolTableRecord
100
AcDbBlockTableRecord
  2
*D29
 70
    0
280
    1
281
    0
  0
BLOCK_RECORD
  5
98
330
1
100
AcDbSymbolTableRecord
100
AcDbBlockTableRecord
  2
*D13
 70
    0
280
    1
281
    0
  0
BLOCK_RECORD
  5
9B
330
1
100
AcDbSymbolTableRecord
100
AcDbBlockTableRecord
  2
*D21
 70
    0
280
    1
281
    0
  0
BLOCK_RECORD
  5
9E
330
1
100
AcDbSymbolTableRecord
100
AcDbBlockTableRecord
  2
*D28
 70
    0
280
    1
281
    0
  0
BLOCK_RECORD
  5
A1
330
1
100
AcDbSymbolTableRecord
100
AcDbBlockTableRecord
  2
*D3
 70
    0
280
    1
281
    0
  0
BLOCK_RECORD
  5
A4
330
1
100
AcDbSymbolTableRecord
100
AcDbBlockTableRecord
  2
*D8
 70
    0
280
    1
281
    0
  0
BLOCK_RECORD
  5
A7
330
1
100
AcDbSymbolTableRecord
100
AcDbBlockTableRecord
  2
*D19
 70
    0
280
    1
281
    0
  0
BLOCK_RECORD
  5
AA
330
1
100
AcDbSymbolTableRecord
100
AcDbBlockTableRecord
  2
*D10
 70
    0
280
    1
281
    0
  0
ENDTAB
  0
ENDSEC
  0
SECTION
  2
BLOCKS
  0
BLOCK
  5
20
330
1F
100
AcDbEntity
  8
0
100
AcDbBlockBegin
  2
*Model_Space
 70
    0
 10
0
 20
0
 30
0
  3
*Model_Space
  1

  0
ENDBLK
  5
21
330
1F
100
AcDbEntity
  8
0
100
AcDbBlockEnd
  0
BLOCK
  5
1C
330
1B
100
AcDbEntity
  8
0
100
AcDbBlockBegin
  2
*Paper_Space
 70
    0
 10
0
 20
0
 30
0
  3
*Paper_Space
  1

  0
ENDBLK
  5
1D
330
1F
100
AcDbEntity
  8
0
100
AcDbBlockEnd
  0
BLOCK
  5
54
330
53
100
AcDbEntity
  8
0
100
AcDbBlockBegin
  2
*D24
 70
    1
 10
0
 20
0
  3
*D24
  1

  0
LINE
  5
AD
100
AcDbEntity
  8
additional-dimensions
  6
ByBlock
 62
    0
370
   -2
100
AcDbLine
 10
-32.5
 20
80
 11
2.5
 21
80
  0
SOLID
  5
AE
100
AcDbEntity
  8
additional-dimensions
  6
ByBlock
 62
    0
370
   -2
100
AcDbTrace
 10
-20
 20
80
 30
0
 11
-26.25
 21
78.95928835556789
 31
0
 12
-26.25
 22
81.04071164443211
 32
0
 13
-26.25
 23
81.04071164443211
 33
0
  0
SOLID
  5
AF
100
AcDbEntity
  8
additional-dimensions
  6
ByBlock
 62
    0
370
   -2
100
AcDbTrace
 10
-10
 20
80
 30
0
 11
-3.75
 21
81.04071164443209
 31
0
 12
-3.75
 22
78.95928835556789
 32
0
 13
-3.75
 23
78.95928835556789
 33
0
  0
MTEXT
  5
B0
100
AcDbEntity
  8
additional-dimensions
  6
CONTINUOUS
 62
    0
370
   -2
100
AcDbMText
 10
-15
 20
84.6875
 30
0
 40
6.25
 41
0
 71
    5
 72
    1
  1

  7
standard
210
0
220
0
230
1
 50
0
 73
    2
 44
1
  0
LINE
  5
B1
100
AcDbEntity
  8
additional-dimensions
  6
ByBlock
 62
    0
370
   -2
100
AcDbLine
 10
-20
 20
61.5625
 11
-20
 21
83.125
  0
LINE
  5
B2
100
AcDbEntity
  8
additional-dimensions
  6
ByBlock
 62
    0
370
   -2
100
AcDbLine
 10
-10
 20
61.5625
 11
-10
 21
83.125
  0
ENDBLK
  5
55
330
53
100
AcDbEntity
  8
0
100
AcDbBlockEnd
  0
BLOCK
  5
57
330
56
100
AcDbEntity
  8
0
100
AcDbBlockBegin
  2
*D30
 70
    1
 10
0
 20
0
  3
*D30
  1

  0
LINE
  5
B3
100
AcDbEntity
  8
additional-dimensions
  6
CONTINUOUS
 62
    7
370
    0
100
AcDbLine
 10
-10
 20
0
 11
-160
 21
-170
  0
LINE
  5
B4
100
AcDbEntity
  8
additional-dimensions
  6
CONTINUOUS
 62
    7
370
    0
100
AcDbLine
 10
-160
 20
-170
 11
-230
 21
-170
  0
LINE
  5
B5
100
AcDbEntity
  8
additional-dimensions
  6
CONTINUOUS
 62
    7
370
    0
100
AcDbLine
 10
-230
 20
-170
 11
-230
 21
-170
  0
SOLID
  5
B6
100
AcDbEntity
  8
additional-dimensions
  6
CONTINUOUS
 62
    7
370
    0
100
AcDbTrace
 10
-10
 20
0
 30
0
 11
-13.35477024427834
 21
-5.375043937956339
 31
0
 12
-14.91550021930724
 22
-3.997929254107318
 32
0
 13
-14.91550021930724
 23
-3.997929254107318
 33
0
  0
ENDBLK
  5
58
330
56
100
AcDbEntity
  8
0
100
AcDbBlockEnd
  0
BLOCK
  5
5A
330
59
100
AcDbEntity
  8
0
100
AcDbBlockBegin
  2
*D9
 70
    1
 10
0
 20
0
  3
*D9
  1

  0
LINE
  5
B7
100
AcDbEntity
  8
dimensions
  6
CONTINUOUS
 62
    7
370
    0
100
AcDbLine
 10
-140
 20
-45
 11
-160
 21
-45
  0
LINE
  5
B8
100
AcDbEntity
  8
dimensions
  6
CONTINUOUS
 62
    7
370
    0
100
AcDbLine
 10
-160
 20
-45
 11
-190
 21
-120
  0
LINE
  5
B9
100
AcDbEntity
  8
dimensions
  6
CONTINUOUS
 62
    7
370
    0
100
AcDbLine
 10
-190
 20
-120
 11
-320
 21
-120
  0
LINE
  5
BA
100
AcDbEntity
  8
dimensions
  6
CONTINUOUS
 62
    7
370
    0
100
AcDbLine
 10
-320
 20
-120
 11
-320
 21
-120
  0
SOLID
  5
BB
100
AcDbEntity
  8
dimensions
  6
CONTINUOUS
 62
    7
370
    0
100
AcDbTrace
 10
-140
 20
-45
 30
0
 11
-146.25
 21
-46.0407116444321
 31
0
 12
-146.25
 22
-43.9592883555679
 32
0
 13
-146.25
 23
-43.9592883555679
 33
0
  0
ENDBLK
  5
5B
330
59
100
AcDbEntity
  8
0
100
AcDbBlockEnd
  0
BLOCK
  5
5D
330
5C
100
AcDbEntity
  8
0
100
AcDbBlockBegin
  2
*D27
 70
    1
 10
0
 20
0
  3
*D27
  1

  0
LINE
  5
BC
100
AcDbEntity
  8
additional-dimensions
  6
CONTINUOUS
 62
    7
370
    0
100
AcDbLine
 10
40
 20
0
 11
80
 21
-90
  0
LINE
  5
BD
100
AcDbEntity
  8
additional-dimensions
  6
CONTINUOUS
 62
    7
370
    0
100
AcDbLine
 10
80
 20
-90
 11
170
 21
-90
  0
LINE
  5
BE
100
AcDbEntity
  8
additional-dimensions
  6
CONTINUOUS
 62
    7
370
    0
100
AcDbLine
 10
170
 20
-90
 11
170
 21
-90
  0
SOLID
  5
BF
100
AcDbEntity
  8
additional-dimensions
  6
CONTINUOUS
 62
    7
370
    0
100
AcDbTrace
 10
40
 20
0
 30
0
 11
43.48937973229968
 21
-5.288649148002993
 31
0
 12
41.58735109336841
 22
-6.133995209750222
 32
0
 13
41.58735109336841
 23
-6.133995209750222
 33
0
  0
ENDBLK
  5
5E
330
5C
100
AcDbEntity
  8
0
100
AcDbBlockEnd
  0
BLOCK
  5
60
330
5F
100
AcDbEntity
  8
0
100
AcDbBlockBegin
  2
*D6
 70
    1
 10
0
 20
0
  3
*D6
  1

  0
LINE
  5
C0
100
AcDbEntity
  8
dimensions
  6
ByBlock
 62
    0
370
   -2
100
AcDbLine
 10
-91.5625
 20
60
 11
-253.125
 21
60.00000000000002
  0
LINE
  5
C1
100
AcDbEntity
  8
dimensions
  6
ByBlock
 62
    0
370
   -2
100
AcDbLine
 10
-91.5625
 20
-60
 11
-253.125
 21
-59.99999999999998
  0
LINE
  5
C2
100
AcDbEntity
  8
dimensions
  6
ByBlock
 62
    0
370
   -2
100
AcDbLine
 10
-250
 20
60.00000000000002
 11
-250
 21
-59.99999999999998
  0
SOLID
  5
C3
100
AcDbEntity
  8
dimensions
  6
ByBlock
 62
    0
370
   -2
100
AcDbTrace
 10
-250
 20
60.00000000000002
 30
0
 11
-248.9592883555679
 21
53.75000000000002
 31
0
 12
-251.0407116444321
 22
53.75000000000002
 32
0
 13
-251.0407116444321
 23
53.75000000000002
 33
0
  0
SOLID
  5
C4
100
AcDbEntity
  8
dimensions
  6
ByBlock
 62
    0
370
   -2
100
AcDbTrace
 10
-250
 20
-59.99999999999998
 30
0
 11
-251.0407116444321
 21
-53.74999999999998
 31
0
 12
-248.9592883555679
 22
-53.74999999999998
 32
0
 13
-248.9592883555679
 23
-53.74999999999998
 33
0
  0
MTEXT
  5
C5
100
AcDbEntity
  8
dimensions
  6
CONTINUOUS
 62
    0
370
   -2
100
AcDbMText
 10
-254.6875
 20
0
 30
0
 40
6.25
 41
0
 71
    5
 72
    1
  1

  7
standard
210
0
220
0
230
1
 50
90
 73
    2
 44
1
  0
ENDBLK
  5
61
330
5F
100
AcDbEntity
  8
0
100
AcDbBlockEnd
  0
BLOCK
  5
63
330
62
100
AcDbEntity
  8
0
100
AcDbBlockBegin
  2
*D4
 70
    1
 10
0
 20
0
  3
*D4
  1

  0
ENDBLK
  5
64
330
62
100
AcDbEntity
  8
0
100
AcDbBlockEnd
  0
BLOCK
  5
66
330
65
100
AcDbEntity
  8
0
100
AcDbBlockBegin
  2
*D22
 70
    1
 10
0
 20
0
  3
*D22
  1

  0
LINE
  5
C6
100
AcDbEntity
  8
additional-dimensions
  6
CONTINUOUS
 62
    7
370
    0
100
AcDbLine
 10
-90
 20
0
 11
-180
 21
70
  0
LINE
  5
C7
100
AcDbEntity
  8
additional-dimensions
  6
CONTINUOUS
 62
    7
370
    0
100
AcDbLine
 10
-180
 20
70
 11
-230
 21
70
  0
LINE
  5
C8
100
AcDbEntity
  8
additional-dimensions
  6
CONTINUOUS
 62
    7
370
    0
100
AcDbLine
 10
-230
 20
70
 11
-230
 21
70
  0
SOLID
  5
C9
100
AcDbEntity
  8
additional-dimensions
  6
CONTINUOUS
 62
    7
370
    0
100
AcDbTrace
 10
-90
 20
0
 30
0
 11
-95.5723865040768
 21
3.015640790286416
 31
0
 12
-94.29451621312727
 22
4.658616878650099
 32
0
 13
-94.29451621312727
 23
4.658616878650099
 33
0
  0
ENDBLK
  5
67
330
65
100
AcDbEntity
  8
0
100
AcDbBlockEnd
  0
BLOCK
  5
69
330
68
100
AcDbEntity
  8
0
100
AcDbBlockBegin
  2
*D23
 70
    1
 10
0
 20
0
  3
*D23
  1

  0
LINE
  5
CA
100
AcDbEntity
  8
additional-dimensions
  6
ByBlock
 62
    0
370
   -2
100
AcDbLine
 10
-11.10485434560398
 20
61.10485434560398
 11
-102.209708691208
 21
152.209708691208
  0
LINE
  5
CB
100
AcDbEntity
  8
additional-dimensions
  6
ByBlock
 62
    0
370
   -2
100
AcDbLine
 10
-21.10485434560398
 20
51.10485434560398
 11
-112.209708691208
 21
142.209708691208
  0
LINE
  5
CC
100
AcDbEntity
  8
additional-dimensions
  6
ByBlock
 62
    0
370
   -2
100
AcDbLine
 10
-91.16116523516816
 20
158.8388347648318
 11
-118.8388347648318
 21
131.1611652351682
  0
SOLID
  5
CD
100
AcDbEntity
  8
additional-dimensions
  6
ByBlock
 62
    0
370
   -2
100
AcDbTrace
 10
-100
 20
150
 30
0
 11
-96.31647687862181
 21
155.1553116434537
 31
0
 12
-94.84468835654633
 22
153.6835231213782
 32
0
 13
-94.84468835654633
 23
153.6835231213782
 33
0
  0
SOLID
  5
CE
100
AcDbEntity
  8
additional-dimensions
  6
ByBlock
 62
    0
370
   -2
100
AcDbTrace
 10
-110
 20
140
 30
0
 11
-113.6835231213782
 21
134.8446883565463
 31
0
 12
-115.1553116434537
 22
136.3164768786218
 32
0
 13
-115.1553116434537
 23
136.3164768786218
 33
0
  0
MTEXT
  5
CF
100
AcDbEntity
  8
additional-dimensions
  6
CONTINUOUS
 62
    0
370
   -2
100
AcDbMText
 10
-108.3145630368119
 20
148.3145630368119
 30
0
 40
6.25
 41
0
 71
    5
 72
    1
  1

  7
standard
210
0
220
0
230
1
 50
44.99999999999995
 73
    2
 44
1
  0
ENDBLK
  5
6A
330
68
100
AcDbEntity
  8
0
100
AcDbBlockEnd
  0
BLOCK
  5
6C
330
6B
100
AcDbEntity
  8
0
100
AcDbBlockBegin
  2
*D16
 70
    1
 10
0
 20
0
  3
*D16
  1

  0
LINE
  5
D0
100
AcDbEntity
  8
dimensions
  6
ByBlock
 62
    0
370
   -2
100
AcDbLine
 10
-20
 20
-80
 11
30
 21
-80
  0
SOLID
  5
D1
100
AcDbEntity
  8
dimensions
  6
ByBlock
 62
    0
370
   -2
100
AcDbTrace
 10
-20
 20
-80
 30
0
 11
-13.75
 21
-78.95928835556791
 31
0
 12
-13.75
 22
-81.04071164443211
 32
0
 13
-13.75
 23
-81.04071164443211
 33
0
  0
SOLID
  5
D2
100
AcDbEntity
  8
dimensions
  6
ByBlock
 62
    0
370
   -2
100
AcDbTrace
 10
30
 20
-80
 30
0
 11
23.75
 21
-81.04071164443211
 31
0
 12
23.75
 22
-78.95928835556789
 32
0
 13
23.75
 23
-78.95928835556789
 33
0
  0
MTEXT
  5
D3
100
AcDbEntity
  8
dimensions
  6
CONTINUOUS
 62
    0
370
   -2
100
AcDbMText
 10
5
 20
-75.3125
 30
0
 40
6.25
 41
0
 71
    5
 72
    1
  1

  7
standard
210
0
220
0
230
1
 50
0
 73
    2
 44
1
  0
LINE
  5
D4
100
AcDbEntity
  8
dimensions
  6
ByBlock
 62
    0
370
   -2
100
AcDbLine
 10
-20
 20
-31.5625
 11
-20
 21
-83.125
  0
LINE
  5
D5
100
AcDbEntity
  8
dimensions
  6
ByBlock
 62
    0
370
   -2
100
AcDbLine
 10
30
 20
-31.5625
 11
30
 21
-83.125
  0
ENDBLK
  5
6D
330
6B
100
AcDbEntity
  8
0
100
AcDbBlockEnd
  0
BLOCK
  5
6F
330
6E
100
AcDbEntity
  8
0
100
AcDbBlockBegin
  2
*D26
 70
    1
 10
0
 20
0
  3
*D26
  1

  0
LINE
  5
D6
100
AcDbEntity
  8
additional-dimensions
  6
ByBlock
 62
    0
370
   -2
100
AcDbLine
 10
101.104854345604
 20
171.104854345604
 11
58.69500139509974
 21
128.6950013950997
  0
LINE
  5
D7
100
AcDbEntity
  8
additional-dimensions
  6
ByBlock
 62
    0
370
   -2
100
AcDbLine
 10
-19.99999999999999
 20
181.5625
 11
-19.99999999999999
 21
161.2915382639197
  0
ARC
  5
D8
100
AcDbEntity
  8
additional-dimensions
  6
ByBlock
 62
    0
370
   -2
100
AcDbCircle
 10
-20
 20
50
 40
108.1665382639197
100
AcDbArc
 50
45
 51
90
  0
SOLID
  5
D9
100
AcDbEntity
  8
additional-dimensions
  6
ByBlock
 62
    0
370
   -2
100
AcDbTrace
 10
56.48529270389177
 20
126.4852927038918
 30
0
 11
51.22572788040015
 21
130.0183591615665
 31
0
 12
52.65438722680153
 22
131.5320484887952
 32
0
 13
52.65438722680153
 23
131.5320484887952
 33
0
  0
SOLID
  5
DA
100
AcDbEntity
  8
additional-dimensions
  6
ByBlock
 62
    0
370
   -2
100
AcDbTrace
 10
-19.99999999999999
 20
158.1665382639197
 30
0
 11
-13.72254552056712
 21
159.0262742614821
 31
0
 12
-13.78267079661432
 22
156.945719561743
 32
0
 13
-13.78267079661432
 23
156.945719561743
 33
0
  0
MTEXT
  5
DB
100
AcDbEntity
  8
additional-dimensions
  6
CONTINUOUS
 62
    0
370
   -2
100
AcDbMText
 10
21.99148499295706
 20
151.3764125741832
 30
0
 40
6.25
 41
0
 71
    8
 72
    1
  1

  7
standard
210
0
220
0
230
1
 50
337.4999999999999
 73
    2
 44
1
  0
ENDBLK
  5
70
330
6E
100
AcDbEntity
  8
0
100
AcDbBlockEnd
  0
BLOCK
  5
72
330
71
100
AcDbEntity
  8
0
100
AcDbBlockBegin
  2
*D15
 70
    1
 10
0
 20
0
  3
*D15
  1

  0
LINE
  5
DC
100
AcDbEntity
  8
additional-dimensions
  6
ByBlock
 62
    0
370
   -2
100
AcDbLine
 10
30.00000000001982
 20
-31.5625
 11
30.00000000092783
 21
-103.1250000010151
  0
LINE
  5
DD
100
AcDbEntity
  8
additional-dimensions
  6
ByBlock
 62
    0
370
   -2
100
AcDbLine
 10
100.0000000000198
 20
-31.56249999911182
 11
100.0000000009278
 21
-103.1250000001269
  0
LINE
  5
DE
100
AcDbEntity
  8
additional-dimensions
  6
ByBlock
 62
    0
370
   -2
100
AcDbLine
 10
30.00000000088818
 20
-100.0000000010151
 11
100.0000000008882
 21
-100.0000000001269
  0
SOLID
  5
DF
100
AcDbEntity
  8
additional-dimensions
  6
ByBlock
 62
    0
370
   -2
100
AcDbTrace
 10
30.00000000088818
 20
-100.0000000010151
 30
0
 11
36.25000000087498
 21
-98.95928835650368
 31
0
 12
36.25000000090139
 22
-101.0407116453679
 32
0
 13
36.25000000090139
 23
-101.0407116453679
 33
0
  0
SOLID
  5
E0
100
AcDbEntity
  8
additional-dimensions
  6
ByBlock
 62
    0
370
   -2
100
AcDbTrace
 10
100.0000000008882
 20
-100.0000000001269
 30
0
 11
93.75000000090138
 21
-101.0407116446383
 31
0
 12
93.75000000087498
 22
-98.95928835577411
 32
0
 13
93.75000000087498
 23
-98.95928835577411
 33
0
  0
MTEXT
  5
E1
100
AcDbEntity
  8
additional-dimensions
  6
CONTINUOUS
 62
    0
370
   -2
100
AcDbMText
 10
65.00000000082871
 20
-95.31250000057094
 30
0
 40
6.25
 41
0
 71
    5
 72
    1
  1

  7
standard
210
0
220
0
230
1
 50
7.269730224327531e-10
 73
    2
 44
1
  0
ENDBLK
  5
73
330
71
100
AcDbEntity
  8
0
100
AcDbBlockEnd
  0
BLOCK
  5
75
330
74
100
AcDbEntity
  8
0
100
AcDbBlockBegin
  2
*D14
 70
    1
 10
0
 20
0
  3
*D14
  1

  0
LINE
  5
E2
100
AcDbEntity
  8
additional-dimensions
  6
ByBlock
 62
    0
370
   -2
100
AcDbLine
 10
-89.99999912946434
 20
-51.56249999999976
 11
-89.99997040176569
 21
-103.1250389999818
  0
LINE
  5
E3
100
AcDbEntity
  8
additional-dimensions
  6
ByBlock
 62
    0
370
   -2
100
AcDbLine
 10
-19.99999912946434
 20
-51.56246100000196
 11
-19.99997040176569
 21
-103.124999999984
  0
LINE
  5
E4
100
AcDbEntity
  8
additional-dimensions
  6
ByBlock
 62
    0
370
   -2
100
AcDbLine
 10
-89.99997214283702
 20
-100.0000389999823
 11
-19.99997214283702
 21
-99.99999999998448
  0
SOLID
  5
E5
100
AcDbEntity
  8
additional-dimensions
  6
ByBlock
 62
    0
370
   -2
100
AcDbTrace
 10
-89.99997214283702
 20
-100.0000389999823
 30
0
 11
-83.74997272266302
 21
-98.95932387340768
 31
0
 12
-83.74997156301296
 22
-101.0407471622716
 32
0
 13
-83.74997156301296
 23
-101.0407471622716
 33
0
  0
SOLID
  5
E6
100
AcDbEntity
  8
additional-dimensions
  6
ByBlock
 62
    0
370
   -2
100
AcDbTrace
 10
-19.99997214283702
 20
-99.99999999998448
 30
0
 11
-26.24997156301102
 21
-101.0407151265591
 31
0
 12
-26.24997272266108
 22
-98.9592918376952
 32
0
 13
-26.24997272266108
 23
-98.9592918376952
 33
0
  0
MTEXT
  5
E7
100
AcDbEntity
  8
additional-dimensions
  6
CONTINUOUS
 62
    0
370
   -2
100
AcDbMText
 10
-54.999974754444
 20
-95.31251949998415
 30
0
 40
6.25
 41
0
 71
    5
 72
    1
  1

  7
standard
210
0
220
0
230
1
 50
3.192193249587183e-05
 73
    2
 44
1
  0
ENDBLK
  5
76
330
74
100
AcDbEntity
  8
0
100
AcDbBlockEnd
  0
BLOCK
  5
78
330
77
100
AcDbEntity
  8
0
100
AcDbBlockBegin
  2
*D7
 70
    1
 10
0
 20
0
  3
*D7
  1

  0
LINE
  5
E8
100
AcDbEntity
  8
dimensions
  6
ByBlock
 62
    0
370
   -2
100
AcDbLine
 10
-110
 20
50
 11
-110
 21
-50
  0
SOLID
  5
E9
100
AcDbEntity
  8
dimensions
  6
ByBlock
 62
    0
370
   -2
100
AcDbTrace
 10
-110
 20
50
 30
0
 11
-108.9592883555679
 21
43.75
 31
0
 12
-111.0407116444321
 22
43.75
 32
0
 13
-111.0407116444321
 23
43.75
 33
0
  0
SOLID
  5
EA
100
AcDbEntity
  8
dimensions
  6
ByBlock
 62
    0
370
   -2
100
AcDbTrace
 10
-110
 20
-50
 30
0
 11
-111.0407116444321
 21
-43.75
 31
0
 12
-108.9592883555679
 22
-43.75
 32
0
 13
-108.9592883555679
 23
-43.75
 33
0
  0
MTEXT
  5
EB
100
AcDbEntity
  8
dimensions
  6
CONTINUOUS
 62
    0
370
   -2
100
AcDbMText
 10
-114.6875
 20
0
 30
0
 40
6.25
 41
0
 71
    5
 72
    1
  1

  7
standard
210
0
220
0
230
1
 50
90
 73
    2
 44
1
  0
LINE
  5
EC
100
AcDbEntity
  8
dimensions
  6
ByBlock
 62
    0
370
   -2
100
AcDbLine
 10
-91.5625
 20
50
 11
-113.125
 21
50
  0
LINE
  5
ED
100
AcDbEntity
  8
dimensions
  6
ByBlock
 62
    0
370
   -2
100
AcDbLine
 10
-91.5625
 20
-50
 11
-113.125
 21
-50
  0
ENDBLK
  5
79
330
77
100
AcDbEntity
  8
0
100
AcDbBlockEnd
  0
BLOCK
  5
7B
330
7A
100
AcDbEntity
  8
0
100
AcDbBlockBegin
  2
*D2
 70
    1
 10
0
 20
0
  3
*D2
  1

  0
ENDBLK
  5
7C
330
7A
100
AcDbEntity
  8
0
100
AcDbBlockEnd
  0
BLOCK
  5
7E
330
7D
100
AcDbEntity
  8
0
100
AcDbBlockBegin
  2
*D12
 70
    1
 10
0
 20
0
  3
*D12
  1

  0
LINE
  5
EE
100
AcDbEntity
  8
dimensions
  6
ByBlock
 62
    0
370
   -2
100
AcDbLine
 10
101.5625
 20
40
 11
263.125
 21
40
  0
LINE
  5
EF
100
AcDbEntity
  8
dimensions
  6
ByBlock
 62
    0
370
   -2
100
AcDbLine
 10
101.5625
 20
-40
 11
263.125
 21
-40
  0
LINE
  5
F0
100
AcDbEntity
  8
dimensions
  6
ByBlock
 62
    0
370
   -2
100
AcDbLine
 10
260
 20
40
 11
260
 21
-40
  0
SOLID
  5
F1
100
AcDbEntity
  8
dimensions
  6
ByBlock
 62
    0
370
   -2
100
AcDbTrace
 10
260
 20
40
 30
0
 11
261.0407116444321
 21
33.75
 31
0
 12
258.9592883555679
 22
33.75
 32
0
 13
258.9592883555679
 23
33.75
 33
0
  0
SOLID
  5
F2
100
AcDbEntity
  8
dimensions
  6
ByBlock
 62
    0
370
   -2
100
AcDbTrace
 10
260
 20
-40
 30
0
 11
258.9592883555679
 21
-33.75
 31
0
 12
261.0407116444321
 22
-33.75
 32
0
 13
261.0407116444321
 23
-33.75
 33
0
  0
MTEXT
  5
F3
100
AcDbEntity
  8
dimensions
  6
CONTINUOUS
 62
    0
370
   -2
100
AcDbMText
 10
255.3125
 20
0
 30
0
 40
6.25
 41
0
 71
    5
 72
    1
  1

  7
standard
210
0
220
0
230
1
 50
90
 73
    2
 44
1
  0
ENDBLK
  5
7F
330
7D
100
AcDbEntity
  8
0
100
AcDbBlockEnd
  0
BLOCK
  5
81
330
80
100
AcDbEntity
  8
0
100
AcDbBlockBegin
  2
*D25
 70
    1
 10
0
 20
0
  3
*D25
  1

  0
LINE
  5
F4
100
AcDbEntity
  8
additional-dimensions
  6
ByBlock
 62
    0
370
   -2
100
AcDbLine
 10
30
 20
41.5625
 11
30
 21
73.125
  0
LINE
  5
F5
100
AcDbEntity
  8
additional-dimensions
  6
ByBlock
 62
    0
370
   -2
100
AcDbLine
 10
40
 20
41.5625
 11
40
 21
73.125
  0
LINE
  5
F6
100
AcDbEntity
  8
additional-dimensions
  6
ByBlock
 62
    0
370
   -2
100
AcDbLine
 10
17.5
 20
70
 11
52.5
 21
70
  0
SOLID
  5
F7
100
AcDbEntity
  8
additional-dimensions
  6
ByBlock
 62
    0
370
   -2
100
AcDbTrace
 10
30
 20
70
 30
0
 11
23.75
 21
68.95928835556789
 31
0
 12
23.75
 22
71.04071164443211
 32
0
 13
23.75
 23
71.04071164443211
 33
0
  0
SOLID
  5
F8
100
AcDbEntity
  8
additional-dimensions
  6
ByBlock
 62
    0
370
   -2
100
AcDbTrace
 10
40
 20
70
 30
0
 11
46.25
 21
71.04071164443209
 31
0
 12
46.25
 22
68.95928835556789
 32
0
 13
46.25
 23
68.95928835556789
 33
0
  0
MTEXT
  5
F9
100
AcDbEntity
  8
additional-dimensions
  6
CONTINUOUS
 62
    0
370
   -2
100
AcDbMText
 10
35
 20
74.6875
 30
0
 40
6.25
 41
0
 71
    5
 72
    1
  1

  7
standard
210
0
220
0
230
1
 50
0
 73
    2
 44
1
  0
ENDBLK
  5
82
330
80
100
AcDbEntity
  8
0
100
AcDbBlockEnd
  0
BLOCK
  5
84
330
83
100
AcDbEntity
  8
0
100
AcDbBlockBegin
  2
*D1
 70
    1
 10
0
 20
0
  3
*D1
  1

  0
ENDBLK
  5
85
330
83
100
AcDbEntity
  8
0
100
AcDbBlockEnd
  0
BLOCK
  5
87
330
86
100
AcDbEntity
  8
0
100
AcDbBlockBegin
  2
*D11
 70
    1
 10
0
 20
0
  3
*D11
  1

  0
LINE
  5
FA
100
AcDbEntity
  8
dimensions
  6
CONTINUOUS
 62
    7
370
    0
100
AcDbLine
 10
160
 20
-25
 11
170
 21
-25
  0
LINE
  5
FB
100
AcDbEntity
  8
dimensions
  6
CONTINUOUS
 62
    7
370
    0
100
AcDbLine
 10
170
 20
-25
 11
210
 21
-120
  0
LINE
  5
FC
100
AcDbEntity
  8
dimensions
  6
CONTINUOUS
 62
    7
370
    0
100
AcDbLine
 10
210
 20
-120
 11
350
 21
-120
  0
LINE
  5
FD
100
AcDbEntity
  8
dimensions
  6
CONTINUOUS
 62
    7
370
    0
100
AcDbLine
 10
350
 20
-120
 11
350
 21
-120
  0
SOLID
  5
FE
100
AcDbEntity
  8
dimensions
  6
CONTINUOUS
 62
    7
370
    0
100
AcDbTrace
 10
160
 20
-25
 30
0
 11
166.25
 21
-23.9592883555679
 31
0
 12
166.25
 22
-26.0407116444321
 32
0
 13
166.25
 23
-26.0407116444321
 33
0
  0
ENDBLK
  5
88
330
86
100
AcDbEntity
  8
0
100
AcDbBlockEnd
  0
BLOCK
  5
8A
330
89
100
AcDbEntity
  8
0
100
AcDbBlockBegin
  2
*D18
 70
    1
 10
0
 20
0
  3
*D18
  1

  0
LINE
  5
FF
100
AcDbEntity
  8
additional-dimensions
  6
ByBlock
 62
    0
370
   -2
100
AcDbLine
 10
-20.58029793180329
 20
38.54925517049178
 11
-105.9881820705031
 21
-174.9704551762578
  0
LINE
  5
100
100
AcDbEntity
  8
additional-dimensions
  6
ByBlock
 62
    0
370
   -2
100
AcDbLine
 10
29.41970206819671
 20
18.54925517049178
 11
-55.98818207050314
 21
-194.9704551762578
  0
LINE
  5
101
100
AcDbEntity
  8
additional-dimensions
  6
ByBlock
 62
    0
370
   -2
100
AcDbLine
 10
-104.8275862068966
 20
-172.0689655172413
 11
-54.82758620689657
 21
-192.0689655172413
  0
SOLID
  5
102
100
AcDbEntity
  8
additional-dimensions
  6
ByBlock
 62
    0
370
   -2
100
AcDbTrace
 10
-104.8275862068966
 20
-172.0689655172413
 30
0
 11
-98.63809628734847
 21
-173.4238807406664
 31
0
 12
-99.41111749037893
 22
-175.3564337482425
 32
0
 13
-99.41111749037893
 23
-175.3564337482425
 33
0
  0
SOLID
  5
103
100
AcDbEntity
  8
additional-dimensions
  6
ByBlock
 62
    0
370
   -2
100
AcDbTrace
 10
-54.82758620689657
 20
-192.0689655172413
 30
0
 11
-61.01707612644467
 21
-190.7140502938162
 31
0
 12
-60.24405492341421
 22
-188.7814972862401
 32
0
 13
-60.24405492341421
 23
-188.7814972862401
 33
0
  0
MTEXT
  5
104
100
AcDbEntity
  8
additional-dimensions
  6
CONTINUOUS
 62
    0
370
   -2
100
AcDbMText
 10
-78.08669241148669
 20
-177.7167310287167
 30
0
 40
6.25
 41
0
 71
    5
 72
    1
  1

  7
standard
210
0
220
0
230
1
 50
338.1985905136482
 73
    2
 44
1
  0
ENDBLK
  5
8B
330
89
100
AcDbEntity
  8
0
100
AcDbBlockEnd
  0
BLOCK
  5
8D
330
8C
100
AcDbEntity
  8
0
100
AcDbBlockBegin
  2
*D20
 70
    1
 10
0
 20
0
  3
*D20
  1

  0
LINE
  5
105
100
AcDbEntity
  8
additional-dimensions
  6
ByBlock
 62
    0
370
   -2
100
AcDbLine
 10
31.5625
 20
40
 11
163.125
 21
40
  0
LINE
  5
106
100
AcDbEntity
  8
additional-dimensions
  6
ByBlock
 62
    0
370
   -2
100
AcDbLine
 10
31.5625
 20
20
 11
163.125
 21
20
  0
LINE
  5
107
100
AcDbEntity
  8
additional-dimensions
  6
ByBlock
 62
    0
370
   -2
100
AcDbLine
 10
160
 20
40
 11
160
 21
20
  0
SOLID
  5
108
100
AcDbEntity
  8
additional-dimensions
  6
ByBlock
 62
    0
370
   -2
100
AcDbTrace
 10
160
 20
40
 30
0
 11
161.0407116444321
 21
33.75
 31
0
 12
158.9592883555679
 22
33.75
 32
0
 13
158.9592883555679
 23
33.75
 33
0
  0
SOLID
  5
109
100
AcDbEntity
  8
additional-dimensions
  6
ByBlock
 62
    0
370
   -2
100
AcDbTrace
 10
160
 20
20
 30
0
 11
158.9592883555679
 21
26.25
 31
0
 12
161.0407116444321
 22
26.25
 32
0
 13
161.0407116444321
 23
26.25
 33
0
  0
MTEXT
  5
10A
100
AcDbEntity
  8
additional-dimensions
  6
CONTINUOUS
 62
    0
370
   -2
100
AcDbMText
 10
155.3125
 20
30
 30
0
 40
6.25
 41
0
 71
    5
 72
    1
  1

  7
standard
210
0
220
0
230
1
 50
90
 73
    2
 44
1
  0
ENDBLK
  5
8E
330
8C
100
AcDbEntity
  8
0
100
AcDbBlockEnd
  0
BLOCK
  5
90
330
8F
100
AcDbEntity
  8
0
100
AcDbBlockBegin
  2
*D5
 70
    1
 10
0
 20
0
  3
*D5
  1

  0
LINE
  5
10B
100
AcDbEntity
  8
additional-dimensions
  6
CONTINUOUS
 62
    7
370
    0
100
AcDbLine
 10
40
 20
80
 11
70
 21
110
  0
SOLID
  5
10C
100
AcDbEntity
  8
additional-dimensions
  6
CONTINUOUS
 62
    7
370
    0
100
AcDbTrace
 10
40
 20
80
 30
0
 11
43.68352312137818
 21
85.15531164345366
 31
0
 12
45.15531164345366
 22
83.68352312137819
 32
0
 13
45.15531164345366
 23
83.68352312137819
 33
0
  0
ENDBLK
  5
91
330
8F
100
AcDbEntity
  8
0
100
AcDbBlockEnd
  0
BLOCK
  5
93
330
92
100
AcDbEntity
  8
0
100
AcDbBlockBegin
  2
*D17
 70
    1
 10
0
 20
0
  3
*D17
  1

  0
LINE
  5
10D
100
AcDbEntity
  8
dimensions
  6
ByBlock
 62
    0
370
   -2
100
AcDbLine
 10
-90
 20
-140
 11
100
 21
-140
  0
SOLID
  5
10E
100
AcDbEntity
  8
dimensions
  6
ByBlock
 62
    0
370
   -2
100
AcDbTrace
 10
-90
 20
-140
 30
0
 11
-83.75
 21
-138.9592883555679
 31
0
 12
-83.75
 22
-141.0407116444321
 32
0
 13
-83.75
 23
-141.0407116444321
 33
0
  0
SOLID
  5
10F
100
AcDbEntity
  8
dimensions
  6
ByBlock
 62
    0
370
   -2
100
AcDbTrace
 10
100
 20
-140
 30
0
 11
93.75
 21
-141.0407116444321
 31
0
 12
93.75
 22
-138.9592883555679
 32
0
 13
93.75
 23
-138.9592883555679
 33
0
  0
MTEXT
  5
110
100
AcDbEntity
  8
dimensions
  6
CONTINUOUS
 62
    0
370
   -2
100
AcDbMText
 10
5
 20
-135.3125
 30
0
 40
6.25
 41
0
 71
    5
 72
    1
  1

  7
standard
210
0
220
0
230
1
 50
0
 73
    2
 44
1
  0
LINE
  5
111
100
AcDbEntity
  8
dimensions
  6
ByBlock
 62
    0
370
   -2
100
AcDbLine
 10
-90
 20
-61.5625
 11
-90
 21
-143.125
  0
LINE
  5
112
100
AcDbEntity
  8
dimensions
  6
ByBlock
 62
    0
370
   -2
100
AcDbLine
 10
100
 20
-41.5625
 11
100
 21
-143.125
  0
ENDBLK
  5
94
330
92
100
AcDbEntity
  8
0
100
AcDbBlockEnd
  0
BLOCK
  5
96
330
95
100
AcDbEntity
  8
0
100
AcDbBlockBegin
  2
*D29
 70
    1
 10
0
 20
0
  3
*D29
  1

  0
LINE
  5
113
100
AcDbEntity
  8
axis
  6
CONTINUOUS
 62
    7
370
    0
100
AcDbLine
 10
-90
 20
-260
 11
-90
 21
0
  0
SOLID
  5
114
100
AcDbEntity
  8
axis
  6
CONTINUOUS
 62
    7
370
    0
100
AcDbTrace
 10
-90
 20
-260
 30
0
 11
-91.04071164443209
 21
-253.75
 31
0
 12
-88.95928835556789
 22
-253.75
 32
0
 13
-88.95928835556789
 23
-253.75
 33
0
  0
ENDBLK
  5
97
330
95
100
AcDbEntity
  8
0
100
AcDbBlockEnd
  0
BLOCK
  5
99
330
98
100
AcDbEntity
  8
0
100
AcDbBlockBegin
  2
*D13
 70
    1
 10
0
 20
0
  3
*D13
  1

  0
LINE
  5
115
100
AcDbEntity
  8
dimensions
  6
ByBlock
 62
    0
370
   -2
100
AcDbLine
 10
150
 20
-7.5
 11
150
 21
-42.5
  0
SOLID
  5
116
100
AcDbEntity
  8
dimensions
  6
ByBlock
 62
    0
370
   -2
100
AcDbTrace
 10
150
 20
-20
 30
0
 11
148.9592883555679
 21
-13.75
 31
0
 12
151.0407116444321
 22
-13.75
 32
0
 13
151.0407116444321
 23
-13.75
 33
0
  0
SOLID
  5
117
100
AcDbEntity
  8
dimensions
  6
ByBlock
 62
    0
370
   -2
100
AcDbTrace
 10
150
 20
-30
 30
0
 11
151.0407116444321
 21
-36.25
 31
0
 12
148.9592883555679
 22
-36.25
 32
0
 13
148.9592883555679
 23
-36.25
 33
0
  0
MTEXT
  5
118
100
AcDbEntity
  8
dimensions
  6
CONTINUOUS
 62
    0
370
   -2
100
AcDbMText
 10
145.3125
 20
-25
 30
0
 40
6.25
 41
0
 71
    5
 72
    1
  1

  7
standard
210
0
220
0
230
1
 50
90
 73
    2
 44
1
  0
LINE
  5
119
100
AcDbEntity
  8
dimensions
  6
ByBlock
 62
    0
370
   -2
100
AcDbLine
 10
31.5625
 20
-20
 11
153.125
 21
-20
  0
LINE
  5
11A
100
AcDbEntity
  8
dimensions
  6
ByBlock
 62
    0
370
   -2
100
AcDbLine
 10
31.5625
 20
-30
 11
153.125
 21
-30
  0
ENDBLK
  5
9A
330
98
100
AcDbEntity
  8
0
100
AcDbBlockEnd
  0
BLOCK
  5
9C
330
9B
100
AcDbEntity
  8
0
100
AcDbBlockBegin
  2
*D21
 70
    1
 10
0
 20
0
  3
*D21
  1

  0
LINE
  5
11B
100
AcDbEntity
  8
additional-dimensions
  6
CONTINUOUS
 62
    7
370
    0
100
AcDbLine
 10
-20
 20
0
 11
-80
 21
70
  0
LINE
  5
11C
100
AcDbEntity
  8
additional-dimensions
  6
CONTINUOUS
 62
    7
370
    0
100
AcDbLine
 10
-80
 20
70
 11
-150
 21
70
  0
LINE
  5
11D
100
AcDbEntity
  8
additional-dimensions
  6
CONTINUOUS
 62
    7
370
    0
100
AcDbLine
 10
-150
 20
70
 11
-150
 21
70
  0
SOLID
  5
11E
100
AcDbEntity
  8
additional-dimensions
  6
CONTINUOUS
 62
    7
370
    0
100
AcDbTrace
 10
-20
 20
0
 30
0
 11
-24.85761327129332
 21
4.068067604331518
 31
0
 12
-23.27727889690629
 22
5.422639925234691
 32
0
 13
-23.27727889690629
 23
5.422639925234691
 33
0
  0
ENDBLK
  5
9D
330
9B
100
AcDbEntity
  8
0
100
AcDbBlockEnd
  0
BLOCK
  5
9F
330
9E
100
AcDbEntity
  8
0
100
AcDbBlockBegin
  2
*D28
 70
    1
 10
0
 20
0
  3
*D28
  1

  0
LINE
  5
11F
100
AcDbEntity
  8
axis
  6
CONTINUOUS
 62
    7
370
    0
100
AcDbLine
 10
360
 20
0
 11
-90
 21
0
  0
SOLID
  5
120
100
AcDbEntity
  8
axis
  6
CONTINUOUS
 62
    7
370
    0
100
AcDbTrace
 10
360
 20
0
 30
0
 11
353.75
 21
-1.040711644432101
 31
0
 12
353.75
 22
1.040711644432101
 32
0
 13
353.75
 23
1.040711644432101
 33
0
  0
ENDBLK
  5
A0
330
9E
100
AcDbEntity
  8
0
100
AcDbBlockEnd
  0
BLOCK
  5
A2
330
A1
100
AcDbEntity
  8
0
100
AcDbBlockBegin
  2
*D3
 70
    1
 10
0
 20
0
  3
*D3
  1

  0
LINE
  5
121
100
AcDbEntity
  8
additional-dimensions
  6
CONTINUOUS
 62
    7
370
    0
100
AcDbLine
 10
-10
 20
90
 11
10
 21
110
  0
LINE
  5
122
100
AcDbEntity
  8
additional-dimensions
  6
CONTINUOUS
 62
    7
370
    0
100
AcDbLine
 10
10
 20
110
 11
120
 21
110
  0
LINE
  5
123
100
AcDbEntity
  8
additional-dimensions
  6
CONTINUOUS
 62
    7
370
    0
100
AcDbLine
 10
120
 20
110
 11
120
 21
110
  0
SOLID
  5
124
100
AcDbEntity
  8
additional-dimensions
  6
CONTINUOUS
 62
    7
370
    0
100
AcDbTrace
 10
-10
 20
90
 30
0
 11
-6.316476878621819
 21
95.15531164345366
 31
0
 12
-4.844688356546335
 22
93.68352312137819
 32
0
 13
-4.844688356546335
 23
93.68352312137819
 33
0
  0
ENDBLK
  5
A3
330
A1
100
AcDbEntity
  8
0
100
AcDbBlockEnd
  0
BLOCK
  5
A5
330
A4
100
AcDbEntity
  8
0
100
AcDbBlockBegin
  2
*D8
 70
    1
 10
0
 20
0
  3
*D8
  1

  0
LINE
  5
125
100
AcDbEntity
  8
dimensions
  6
ByBlock
 62
    0
370
   -2
100
AcDbLine
 10
-130
 20
-27.5
 11
-130
 21
-62.5
  0
SOLID
  5
126
100
AcDbEntity
  8
dimensions
  6
ByBlock
 62
    0
370
   -2
100
AcDbTrace
 10
-130
 20
-40
 30
0
 11
-131.0407116444321
 21
-33.75
 31
0
 12
-128.9592883555679
 22
-33.75
 32
0
 13
-128.9592883555679
 23
-33.75
 33
0
  0
SOLID
  5
127
100
AcDbEntity
  8
dimensions
  6
ByBlock
 62
    0
370
   -2
100
AcDbTrace
 10
-130
 20
-50
 30
0
 11
-128.9592883555679
 21
-56.25
 31
0
 12
-131.0407116444321
 22
-56.25
 32
0
 13
-131.0407116444321
 23
-56.25
 33
0
  0
MTEXT
  5
128
100
AcDbEntity
  8
dimensions
  6
CONTINUOUS
 62
    0
370
   -2
100
AcDbMText
 10
-134.6875
 20
-45
 30
0
 40
6.25
 41
0
 71
    5
 72
    1
  1

  7
standard
210
0
220
0
230
1
 50
90
 73
    2
 44
1
  0
LINE
  5
129
100
AcDbEntity
  8
dimensions
  6
ByBlock
 62
    0
370
   -2
100
AcDbLine
 10
-11.5625
 20
-40
 11
-133.125
 21
-40
  0
LINE
  5
12A
100
AcDbEntity
  8
dimensions
  6
ByBlock
 62
    0
370
   -2
100
AcDbLine
 10
-11.5625
 20
-50
 11
-133.125
 21
-50
  0
ENDBLK
  5
A6
330
A4
100
AcDbEntity
  8
0
100
AcDbBlockEnd
  0
BLOCK
  5
A8
330
A7
100
AcDbEntity
  8
0
100
AcDbBlockBegin
  2
*D19
 70
    1
 10
0
 20
0
  3
*D19
  1

  0
LINE
  5
12B
100
AcDbEntity
  8
additional-dimensions
  6
CONTINUOUS
 62
    7
370
    0
100
AcDbLine
 10
30
 20
0
 11
60
 21
50
  0
LINE
  5
12C
100
AcDbEntity
  8
additional-dimensions
  6
CONTINUOUS
 62
    7
370
    0
100
AcDbLine
 10
60
 20
50
 11
120
 21
50
  0
SOLID
  5
12D
100
AcDbEntity
  8
additional-dimensions
  6
CONTINUOUS
 62
    7
370
    0
100
AcDbTrace
 10
30
 20
0
 30
0
 11
32.32319559861484
 21
5.894772509387719
 31
0
 12
34.10800134422924
 22
4.823889062019084
 32
0
 13
34.10800134422924
 23
4.823889062019084
 33
0
  0
ENDBLK
  5
A9
330
A7
100
AcDbEntity
  8
0
100
AcDbBlockEnd
  0
BLOCK
  5
AB
330
AA
100
AcDbEntity
  8
0
100
AcDbBlockBegin
  2
*D10
 70
    1
 10
0
 20
0
  3
*D10
  1

  0
LINE
  5
12E
100
AcDbEntity
  8
dimensions
  6
ByBlock
 62
    0
370
   -2
100
AcDbLine
 10
120
 20
30
 11
120
 21
-30
  0
SOLID
  5
12F
100
AcDbEntity
  8
dimensions
  6
ByBlock
 62
    0
370
   -2
100
AcDbTrace
 10
120
 20
30
 30
0
 11
121.0407116444321
 21
23.75
 31
0
 12
118.9592883555679
 22
23.75
 32
0
 13
118.9592883555679
 23
23.75
 33
0
  0
SOLID
  5
130
100
AcDbEntity
  8
dimensions
  6
ByBlock
 62
    0
370
   -2
100
AcDbTrace
 10
120
 20
-30
 30
0
 11
118.9592883555679
 21
-23.75
 31
0
 12
121.0407116444321
 22
-23.75
 32
0
 13
121.0407116444321
 23
-23.75
 33
0
  0
MTEXT
  5
131
100
AcDbEntity
  8
dimensions
  6
CONTINUOUS
 62
    0
370
   -2
100
AcDbMText
 10
115.3125
 20
0
 30
0
 40
6.25
 41
0
 71
    5
 72
    1
  1

  7
standard
210
0
220
0
230
1
 50
90
 73
    2
 44
1
  0
LINE
  5
132
100
AcDbEntity
  8
dimensions
  6
ByBlock
 62
    0
370
   -2
100
AcDbLine
 10
101.562468
 20
30
 11
123.125
 21
30
  0
LINE
  5
133
100
AcDbEntity
  8
dimensions
  6
ByBlock
 62
    0
370
   -2
100
AcDbLine
 10
101.5625
 20
-30
 11
123.125
 21
-30
  0
ENDBLK
  5
AC
330
AA
100
AcDbEntity
  8
0
100
AcDbBlockEnd
  0
ENDSEC
  0
SECTION
  2
ENTITIES
  0
HATCH
  5
134
100
AcDbEntity
  8
additional-dimensions
  6
ByLayer
 62
    5
370
   -1
100
AcDbHatch
 10
0
 20
0
 30
0
210
0
220
0
230
1
  2
SOLID
 70
    1
 71
    0
 91
    1
 92
    0
 93
    3
 72
    1
 10
-20
 20
40
 11
30
 21
40
 72
    1
 10
30
 20
40
 11
30
 21
20
 72
    1
 10
30
 20
20
 11
-20
 21
40
 97
    0
 75
    0
 76
    1
 98
    0
  0
HATCH
  5
135
100
AcDbEntity
  8
out-part
  6
ByLayer
 62
  256
370
   -1
100
AcDbHatch
 10
0
 20
0
 30
0
210
0
220
0
230
1
  2
ansi31
 70
    0
 71
    0
 91
    1
 92
    0
 93
   10
 72
    1
 10
100
 20
30
 11
30
 21
30
 72
    1
 10
30
 20
30
 11
30
 21
20
 72
    1
 10
30
 20
20
 11
-20
 21
40
 72
    1
 10
-20
 20
40
 11
-20
 21
50
 72
    1
 10
-20
 20
50
 11
-90
 21
50
 72
    1
 10
-90
 20
50
 11
-90
 21
60
 72
    1
 10
-90
 20
60
 11
-10
 21
60
 72
    1
 10
-10
 20
60
 11
40
 21
40
 72
    1
 10
40
 20
40
 11
100
 21
40
 72
    1
 10
100
 20
40
 11
100
 21
30
 97
    0
 75
    0
 76
    1
 52
0
 41
4
 77
    0
 78
    0
 98
    0
  0
HATCH
  5
136
100
AcDbEntity
  8
out-part
  6
ByLayer
 62
  256
370
   -1
100
AcDbHatch
 10
0
 20
0
 30
0
210
0
220
0
230
1
  2
ansi31
 70
    0
 71
    0
 91
    1
 92
    0
 93
   10
 72
    1
 10
30
 20
-20
 11
30
 21
-30
 72
    1
 10
30
 20
-30
 11
100
 21
-30
 72
    1
 10
100
 20
-30
 11
100
 21
-40
 72
    1
 10
100
 20
-40
 11
40
 21
-40
 72
    1
 10
40
 20
-40
 11
-10
 21
-60
 72
    1
 10
-10
 20
-60
 11
-90
 21
-60
 72
    1
 10
-90
 20
-60
 11
-90
 21
-50
 72
    1
 10
-90
 20
-50
 11
-20
 21
-50
 72
    1
 10
-20
 20
-50
 11
-20
 21
-40
 72
    1
 10
-20
 20
-40
 11
30
 21
-20
 97
    0
 75
    0
 76
    1
 52
0
 41
4
 77
    0
 78
    0
 98
    0
  0
LINE
  5
137
100
AcDbEntity
  8
out-part
  6
ByLayer
 62
  256
370
   -1
100
AcDbLine
 10
-90
 20
-60
 11
-90
 21
-50
  0
LINE
  5
138
100
AcDbEntity
  8
out-part
  6
ByLayer
 62
  256
370
   -1
100
AcDbLine
 10
-90
 20
-50
 11
-20
 21
-50
  0
LINE
  5
139
100
AcDbEntity
  8
out-part
  6
ByLayer
 62
  256
370
   -1
100
AcDbLine
 10
-20
 20
-50
 11
-20
 21
-40
  0
LINE
  5
13A
100
AcDbEntity
  8
out-part
  6
ByLayer
 62
  256
370
   -1
100
AcDbLine
 10
-10
 20
-60
 11
-90
 21
-60
  0
LINE
  5
13B
100
AcDbEntity
  8
out-part
  6
ByLayer
 62
  256
370
   -1
100
AcDbLine
 10
40
 20
-40
 11
-10
 21
-60
  0
LINE
  5
13C
100
AcDbEntity
  8
out-part
  6
ByLayer
 62
  256
370
   -1
100
AcDbLine
 10
100
 20
-30
 11
100
 21
-40
  0
LINE
  5
13D
100
AcDbEntity
  8
out-part
  6
ByLayer
 62
  256
370
   -1
100
AcDbLine
 10
30
 20
-20
 11
30
 21
-30
  0
LINE
  5
13E
100
AcDbEntity
  8
out-part
  6
ByLayer
 62
  256
370
   -1
100
AcDbLine
 10
100
 20
-40
 11
40
 21
-40
  0
LINE
  5
13F
100
AcDbEntity
  8
out-part
  6
ByLayer
 62
  256
370
   -1
100
AcDbLine
 10
-20
 20
-40
 11
30
 21
-20
  0
LINE
  5
140
100
AcDbEntity
  8
internal
  6
ByLayer
 62
  256
370
   -1
100
AcDbLine
 10
-90
 20
50
 11
-90
 21
-50
  0
LINE
  5
141
100
AcDbEntity
  8
internal
  6
ByLayer
 62
  256
370
   -1
100
AcDbLine
 10
-20
 20
40
 11
-20
 21
-40
  0
LINE
  5
142
100
AcDbEntity
  8
internal
  6
ByLayer
 62
  256
370
   -1
100
AcDbLine
 10
30
 20
20
 11
30
 21
-20
  0
LINE
  5
143
100
AcDbEntity
  8
internal
  6
ByLayer
 62
  256
370
   -1
100
AcDbLine
 10
99.99996800000002
 20
30
 11
100
 21
-30
  0
LEADER
  5
144
100
AcDbEntity
  8
dimensions
  6
ByLayer
 62
  256
370
   -1
100
AcDbLeader
  3
Standard
 71
    1
 72
    0
 73
    3
 74
    0
 75
    0
 40
1
 41
10
 76
0
 76
0
  0
LINE
  5
145
100
AcDbEntity
  8
out-part
  6
ByLayer
 62
  256
370
   -1
100
AcDbLine
 10
30
 20
-30
 11
100
 21
-30
  0
LWPOLYLINE
  5
146
100
AcDbEntity
  8
0
  6
ByLayer
 62
  256
370
   -1
100
AcDbPolyline
 90
    4
 70
    1
 43
0
 10
-90
 20
50
 10
-20
 20
50
 10
-20
 20
-50
 10
-90
 20
-50
  0
LWPOLYLINE
  5
147
100
AcDbEntity
  8
0
  6
ByLayer
 62
  256
370
   -1
100
AcDbPolyline
 90
    4
 70
    1
 43
0
 10
30
 20
30
 10
100
 20
30
 10
100
 20
-30
 10
30
 20
-30
  0
LINE
  5
148
100
AcDbEntity
  8
0
  6
ByLayer
 62
  256
370
   -1
100
AcDbLine
 10
-20
 20
40
 11
30
 21
20
  0
LINE
  5
149
100
AcDbEntity
  8
0
  6
ByLayer
 62
  256
370
   -1
100
AcDbLine
 10
-20
 20
-40
 11
30
 21
-20
  0
LEADER
  5
14A
100
AcDbEntity
  8
0
  6
ByLayer
 62
  256
370
   -1
100
AcDbLeader
  3
Standard
 71
    1
 72
    0
 73
    3
 74
    0
 75
    0
 40
1
 41
10
 76
0
 76
0
  0
LINE
  5
14B
100
AcDbEntity
  8
auxiliary
  6
DASHDOT2
 62
  256
370
   -1
100
AcDbLine
 10
-90
 20
0
 11
100
 21
0
  0
LINE
  5
14C
100
AcDbEntity
  8
out-part
  6
CONTINUOUS
 62
  256
370
   -1
100
AcDbLine
 10
-20
 20
40
 11
-20
 21
50
  0
LINE
  5
14D
100
AcDbEntity
  8
out-part
  6
CONTINUOUS
 62
  256
370
   -1
100
AcDbLine
 10
-90
 20
60
 11
-10
 21
60
  0
LINE
  5
14E
100
AcDbEntity
  8
out-part
  6
CONTINUOUS
 62
  256
370
   -1
100
AcDbLine
 10
-10
 20
60
 11
40
 21
40
  0
LINE
  5
14F
100
AcDbEntity
  8
out-part
  6
CONTINUOUS
 62
  256
370
   -1
100
AcDbLine
 10
40
 20
40
 11
100
 21
40
  0
LINE
  5
150
100
AcDbEntity
  8
out-part
  6
CONTINUOUS
 62
  256
370
   -1
100
AcDbLine
 10
100
 20
40
 11
100
 21
30
  0
LINE
  5
151
100
AcDbEntity
  8
out-part
  6
CONTINUOUS
 62
  256
370
   -1
100
AcDbLine
 10
100
 20
30
 11
30
 21
30
  0
LINE
  5
152
100
AcDbEntity
  8
out-part
  6
CONTINUOUS
 62
  256
370
   -1
100
AcDbLine
 10
30
 20
30
 11
30
 21
20
  0
LINE
  5
153
100
AcDbEntity
  8
out-part
  6
CONTINUOUS
 62
  256
370
   -1
100
AcDbLine
 10
30
 20
20
 11
-20
 21
40
  0
LINE
  5
154
100
AcDbEntity
  8
out-part
  6
CONTINUOUS
 62
  256
370
   -1
100
AcDbLine
 10
-20
 20
50
 11
-90
 21
50
  0
LINE
  5
155
100
AcDbEntity
  8
out-part
  6
CONTINUOUS
 62
  256
370
   -1
100
AcDbLine
 10
-90
 20
50
 11
-90
 21
60
  0
LEADER
  5
156
100
AcDbEntity
  8
additional-dimensions
  6
ByLayer
 62
  256
370
   -1
100
AcDbLeader
  3
Standard
 71
    1
 72
    0
 73
    3
 74
    0
 75
    0
 40
1
 41
10
 76
4
 76
4
 10
-10
 20
90
 30
0
 10
10
 20
110
 30
0
 10
120
 20
110
 30
0
 10
120
 20
110
 30
0
  0
LEADER
  5
157
100
AcDbEntity
  8
auxiliary
  6
ByLayer
 62
  256
370
   -1
100
AcDbLeader
  3
Standard
 71
    1
 72
    0
 73
    3
 74
    0
 75
    0
 40
1
 41
10
 76
0
 76
0
  0
LEADER
  5
158
100
AcDbEntity
  8
additional-dimensions
  6
ByLayer
 62
  256
370
   -1
100
AcDbLeader
  3
Standard
 71
    1
 72
    0
 73
    3
 74
    0
 75
    0
 40
1
 41
10
 76
2
 76
2
 10
40
 20
80
 30
0
 10
70
 20
110
 30
0
  0
LINE
  5
159
100
AcDbEntity
  8
additional-dimensions
  6
ByLayer
 62
    5
370
   -1
100
AcDbLine
 10
-20
 20
40
 11
30
 21
40
  0
LINE
  5
15A
100
AcDbEntity
  8
additional-dimensions
  6
ByLayer
 62
    5
370
   -1
100
AcDbLine
 10
30
 20
40
 11
30
 21
20
  0
LINE
  5
15B
100
AcDbEntity
  8
additional-dimensions
  6
ByLayer
 62
    5
370
   -1
100
AcDbLine
 10
30
 20
20
 11
-20
 21
40
  0
MTEXT
  5
15C
100
AcDbEntity
  8
dimensions
  6
ByLayer
 62
  256
370
   -1
100
AcDbMText
 10
140
 20
20
 30
0
 40
30
 41
86.66666666666853
 71
    1
 72
    1
  1
POD1
  7
standard
210
0
220
0
230
1
 50
0
 73
    2
 44
1
  0
MTEXT
  5
15D
100
AcDbEntity
  8
dimensions
  6
CONTINUOUS
 62
  256
370
   -1
100
AcDbMText
 10
-300
 20
30
 30
0
 40
30
 41
20
 71
    1
 72
    1
  1
M
  7
standard
210
0
220
0
230
1
 50
0
 73
    2
 44
1
  0
MTEXT
  5
15E
100
AcDbEntity
  8
dimensions
  6
CONTINUOUS
 62
  256
370
   -1
100
AcDbMText
 10
280
 20
20
 30
0
 40
30
 41
36.66666666666666
 71
    1
 72
    1
  1
M1
  7
standard
210
0
220
0
230
1
 50
0
 73
    2
 44
1
  0
MTEXT
  5
15F
100
AcDbEntity
  8
dimensions
  6
CONTINUOUS
 62
  256
370
   -1
100
AcDbMText
 10
-196.6666666666667
 20
20
 30
0
 40
30
 41
70.00000000000186
 71
    1
 72
    1
  1
POD
  7
standard
210
0
220
0
230
1
 50
0
 73
    2
 44
1
  0
DIMENSION
  5
160
100
AcDbEntity
  8
dimensions
  6
ByLayer
 62
  256
370
   -1
100
AcDbDimension
  2
*D6
 10
-250
 20
-60
 30
0
 11
-254.6875
 21
0
 31
0
 70
   33
  1
 
 71
    5
 72
    0
  3
Standard
 53
0
210
0
220
0
230
1
100
AcDbAlignedDimension
 13
-90
 23
60
 33
0
 14
-90
 24
-60
 34
0
  0
DIMENSION
  5
161
100
AcDbEntity
  8
dimensions
  6
ByLayer
 62
  256
370
   -1
100
AcDbDimension
  2
*D7
 10
-110
 20
-50
 30
0
 11
-114.6875
 21
0
 31
0
 70
   32
  1
 
 71
    5
 72
    0
  3
Standard
 53
0
210
0
220
0
230
1
100
AcDbAlignedDimension
 13
-90
 23
50
 33
0
 14
-90
 24
-50
 34
0
 50
90
100
AcDbRotatedDimension
  0
DIMENSION
  5
162
100
AcDbEntity
  8
dimensions
  6
ByLayer
 62
  256
370
   -1
100
AcDbDimension
  2
*D8
 10
-130
 20
-50
 30
0
 11
-134.6875
 21
-45
 31
0
 70
   32
  1
 
 71
    5
 72
    0
  3
Standard
 53
0
210
0
220
0
230
1
100
AcDbAlignedDimension
 13
-10
 23
-40
 33
0
 14
-10
 24
-50
 34
0
 50
90
100
AcDbRotatedDimension
  0
LEADER
  5
163
100
AcDbEntity
  8
dimensions
  6
ByLayer
 62
  256
370
   -1
100
AcDbLeader
  3
Standard
 71
    1
 72
    0
 73
    3
 74
    0
 75
    0
 40
1
 41
10
 76
5
 76
5
 10
-140
 20
-45
 30
0
 10
-160
 20
-45
 30
0
 10
-190
 20
-120
 30
0
 10
-320
 20
-120
 30
0
 10
-320
 20
-120
 30
0
  0
MTEXT
  5
164
100
AcDbEntity
  8
dimensions
  6
ByLayer
 62
  256
370
   -1
100
AcDbMText
 10
-306.6666666666666
 20
-80
 30
0
 40
30
 41
90.00000000000139
 71
    1
 72
    1
  1
PThk
  7
standard
210
0
220
0
230
1
 50
0
 73
    2
 44
1
  0
DIMENSION
  5
165
100
AcDbEntity
  8
dimensions
  6
ByLayer
 62
  256
370
   -1
100
AcDbDimension
  2
*D10
 10
120
 20
-30
 30
0
 11
115.3125
 21
0
 31
0
 70
   32
  1
 
 71
    5
 72
    0
  3
Standard
 53
0
210
0
220
0
230
1
100
AcDbAlignedDimension
 13
99.99996800000002
 23
30
 33
0
 14
100
 24
-30
 34
0
 50
90
100
AcDbRotatedDimension
  0
LEADER
  5
166
100
AcDbEntity
  8
dimensions
  6
ByLayer
 62
  256
370
   -1
100
AcDbLeader
  3
Standard
 71
    1
 72
    0
 73
    3
 74
    0
 75
    0
 40
1
 41
10
 76
5
 76
5
 10
160
 20
-25
 30
0
 10
170
 20
-25
 30
0
 10
210
 20
-120
 30
0
 10
350
 20
-120
 30
0
 10
350
 20
-120
 30
0
  0
MTEXT
  5
167
100
AcDbEntity
  8
dimensions
  6
ByLayer
 62
  256
370
   -1
100
AcDbMText
 10
233.3333333333333
 20
-80
 30
0
 40
30
 41
106.6666666666681
 71
    1
 72
    1
  1
PThk1
  7
standard
210
0
220
0
230
1
 50
0
 73
    2
 44
1
  0
MTEXT
  5
168
100
AcDbEntity
  8
additional-dimensions
  6
ByLayer
 62
  256
370
   -1
100
AcDbMText
 10
20
 20
210
 30
0
 40
30
 41
30.0000000000014
 71
    1
 72
    1
  1
b1
  7
standard
210
0
220
0
230
1
 50
0
 73
    2
 44
1
  0
LINE
  5
169
100
AcDbEntity
  8
additional-dimensions
  6
DASHED2
 62
  256
370
   -1
100
AcDbLine
 10
-20
 20
50
 11
-20
 21
180
  0
LINE
  5
16A
100
AcDbEntity
  8
additional-dimensions
  6
DASHED2
 62
  256
370
   -1
100
AcDbLine
 10
-20
 20
50
 11
100
 21
170
  0
MTEXT
  5
16B
100
AcDbEntity
  8
additional-dimensions
  6
ByLayer
 62
  256
370
   -1
100
AcDbMText
 10
76.66666666666526
 20
150
 30
0
 40
30
 41
30.0000000000014
 71
    1
 72
    1
  1
a1
  7
standard
210
0
220
0
230
1
 50
0
 73
    2
 44
1
  0
DIMENSION
  5
16C
100
AcDbEntity
  8
dimensions
  6
ByLayer
 62
  256
370
   -1
100
AcDbDimension
  2
*D12
 10
260
 20
-40
 30
0
 11
255.3125
 21
0
 31
0
 70
   33
  1
 
 71
    5
 72
    0
  3
Standard
 53
0
210
0
220
0
230
1
100
AcDbAlignedDimension
 13
100
 23
40
 33
0
 14
100
 24
-40
 34
0
  0
DIMENSION
  5
16D
100
AcDbEntity
  8
dimensions
  6
ByLayer
 62
  256
370
   -1
100
AcDbDimension
  2
*D13
 10
150
 20
-30
 30
0
 11
145.3125
 21
-25
 31
0
 70
   32
  1
 
 71
    5
  3
Standard
 53
0
210
0
220
0
230
1
100
AcDbAlignedDimension
 13
30
 23
-20
 33
0
 14
30
 24
-30
 34
0
 50
90
100
AcDbRotatedDimension
  0
DIMENSION
  5
16E
100
AcDbEntity
  8
additional-dimensions
  6
ByLayer
 62
    5
370
   -1
100
AcDbDimension
  2
*D14
 10
-19.99997214283701
 20
-99.99999999998448
 30
0
 11
-54.999974754444
 21
-95.31251949998415
 31
0
 70
   33
  1
 
 71
    5
  3
Standard
 53
0
210
0
220
0
230
1
100
AcDbAlignedDimension
 13
-90
 23
-50
 33
0
 14
-20
 24
-49.9999610000022
 34
0
  0
DIMENSION
  5
16F
100
AcDbEntity
  8
additional-dimensions
  6
ByLayer
 62
  256
370
   -1
100
AcDbDimension
  2
*D15
 10
100.0000000008882
 20
-100.0000000001269
 30
0
 11
65.00000000082871
 21
-95.31250000057094
 31
0
 70
   33
  1
 
 71
    5
  3
Standard
 53
0
210
0
220
0
230
1
100
AcDbAlignedDimension
 13
30
 23
-30
 33
0
 14
100
 24
-29.99999999911182
 34
0
  0
MTEXT
  5
170
100
AcDbEntity
  8
dimensions
  6
ByLayer
 62
  256
370
   -1
100
AcDbMText
 10
0
 20
-90
 30
0
 40
30
 41
16.66666666666667
 71
    1
 72
    1
  1
N
  7
standard
210
0
220
0
230
1
 50
0
 73
    2
 44
1
  0
DIMENSION
  5
171
100
AcDbEntity
  8
dimensions
  6
ByLayer
 62
  256
370
   -1
100
AcDbDimension
  2
*D16
 10
30
 20
-80
 30
0
 11
5
 21
-75.3125
 31
0
 70
   32
  1
 
 71
    5
 72
    0
  3
Standard
 53
0
210
0
220
0
230
1
100
AcDbAlignedDimension
 13
-20
 23
-30
 33
0
 14
30
 24
-30
 34
0
100
AcDbRotatedDimension
  0
DIMENSION
  5
172
100
AcDbEntity
  8
dimensions
  6
ByLayer
 62
  256
370
   -1
100
AcDbDimension
  2
*D17
 10
100
 20
-140
 30
0
 11
5
 21
-135.3125
 31
0
 70
   32
  1
 
 71
    5
  3
Standard
 53
0
210
0
220
0
230
1
100
AcDbAlignedDimension
 13
-90
 23
-60
 33
0
 14
100
 24
-40
 34
0
100
AcDbRotatedDimension
  0
MTEXT
  5
173
100
AcDbEntity
  8
dimensions
  6
ByLayer
 62
  256
370
   -1
100
AcDbMText
 10
10
 20
-150
 30
0
 40
30
 41
13.33333333333333
 71
    1
 72
    1
  1
L
  7
standard
210
0
220
0
230
1
 50
0
 73
    2
 44
1
  0
MTEXT
  5
174
100
AcDbEntity
  8
additional-dimensions
  6
ByLayer
 62
  256
370
   -1
100
AcDbMText
 10
-70
 20
-110
 30
0
 40
30
 41
36.66666666666993
 71
    1
 72
    1
  1
a5
  7
standard
210
0
220
0
230
1
 50
0
 73
    2
 44
1
  0
DIMENSION
  5
175
100
AcDbEntity
  8
additional-dimensions
  6
DASHED2
 62
  256
370
   -1
100
AcDbDimension
  2
*D18
 10
-54.82758620689653
 20
-192.0689655172413
 30
0
 11
-78.08669241148669
 21
-177.7167310287167
 31
0
 70
   33
  1
 
 71
    5
  3
Standard
 53
0
210
0
220
0
230
1
100
AcDbAlignedDimension
 13
-20
 23
40
 33
0
 14
30
 24
20
 34
0
  0
MTEXT
  5
176
100
AcDbEntity
  8
additional-dimensions
  6
ByLayer
 62
  256
370
   -1
100
AcDbMText
 10
-220
 20
120
 30
0
 40
30
 41
30
 71
    1
 72
    1
  1
p1
  7
standard
210
0
220
0
230
1
 50
0
 73
    2
 44
1
  0
MTEXT
  5
177
100
AcDbEntity
  8
additional-dimensions
  6
ByLayer
 62
  256
370
   -1
100
AcDbMText
 10
-140
 20
120
 30
0
 40
30
 41
36.66666666666667
 71
    1
 72
    1
  1
p2
  7
standard
210
0
220
0
230
1
 50
0
 73
    2
 44
1
  0
MTEXT
  5
178
100
AcDbEntity
  8
additional-dimensions
  6
ByLayer
 62
  256
370
   -1
100
AcDbMText
 10
-143.3333333333347
 20
190
 30
0
 40
30
 41
36.66666666666806
 71
    1
 72
    1
  1
a2
  7
standard
210
0
220
0
230
1
 50
0
 73
    2
 44
1
  0
LEADER
  5
179
100
AcDbEntity
  8
additional-dimensions
  6
ByLayer
 62
  256
370
   -1
100
AcDbLeader
  3
Standard
 71
    1
 72
    0
 73
    3
 74
    0
 75
    0
 40
1
 41
10
 76
3
 76
3
 10
30
 20
0
 30
0
 10
60
 20
50
 30
0
 10
120
 20
50
 30
0
  0
MTEXT
  5
17A
100
AcDbEntity
  8
additional-dimensions
  6
ByLayer
 62
  256
370
   -1
100
AcDbMText
 10
76.66666666666666
 20
100
 30
0
 40
30
 41
36.66666666666853
 71
    1
 72
    1
  1
p3
  7
standard
210
0
220
0
230
1
 50
0
 73
    2
 44
1
  0
DIMENSION
  5
17B
100
AcDbEntity
  8
additional-dimensions
  6
ByLayer
 62
    5
370
   -1
100
AcDbDimension
  2
*D20
 10
160
 20
20
 30
0
 11
155.3125
 21
30
 31
0
 70
   33
  1
 
 71
    5
  3
Standard
 53
0
210
0
220
0
230
1
100
AcDbAlignedDimension
 13
30
 23
40
 33
0
 14
30
 24
20
 34
0
  0
MTEXT
  5
17C
100
AcDbEntity
  8
additional-dimensions
  6
ByLayer
 62
  256
370
   -1
100
AcDbMText
 10
176.6666666666653
 20
90
 30
0
 40
30
 41
40.00000000000139
 71
    1
 72
    1
  1
a4
  7
standard
210
0
220
0
230
1
 50
0
 73
    2
 44
1
  0
LEADER
  5
17D
100
AcDbEntity
  8
additional-dimensions
  6
ByLayer
 62
  256
370
   -1
100
AcDbLeader
  3
Standard
 71
    1
 72
    0
 73
    3
 74
    0
 75
    0
 40
1
 41
10
 76
4
 76
4
 10
-20
 20
0
 30
0
 10
-80
 20
70
 30
0
 10
-150
 20
70
 30
0
 10
-150
 20
70
 30
0
  0
LEADER
  5
17E
100
AcDbEntity
  8
additional-dimensions
  6
ByLayer
 62
  256
370
   -1
100
AcDbLeader
  3
Standard
 71
    1
 72
    0
 73
    3
 74
    0
 75
    0
 40
1
 41
10
 76
4
 76
4
 10
-90
 20
0
 30
0
 10
-180
 20
70
 30
0
 10
-230
 20
70
 30
0
 10
-230
 20
70
 30
0
  0
MTEXT
  5
17F
100
AcDbEntity
  8
additional-dimensions
  6
ByLayer
 62
  256
370
   -1
100
AcDbMText
 10
-123.3333333333347
 20
-190
 30
0
 40
30
 41
36.66666666666993
 71
    1
 72
    1
  1
a3
  7
standard
210
0
220
0
230
1
 50
0
 73
    2
 44
1
  0
MTEXT
  5
180
100
AcDbEntity
  8
additional-dimensions
  6
ByLayer
 62
  256
370
   -1
100
AcDbMText
 10
60
 20
-110
 30
0
 40
30
 41
36.66666666666993
 71
    1
 72
    1
  1
a5
  7
standard
210
0
220
0
230
1
 50
0
 73
    2
 44
1
  0
DIMENSION
  5
181
100
AcDbEntity
  8
additional-dimensions
  6
ByLayer
 62
  256
370
   -1
100
AcDbDimension
  2
*D23
 10
-110
 20
140
 30
0
 11
-108.3145630368119
 21
148.3145630368119
 31
0
 70
   33
  1
 
 71
    5
  3
Standard
 53
0
210
0
220
0
230
1
100
AcDbAlignedDimension
 13
-10
 23
60
 33
0
 14
-20
 24
50
 34
0
  0
DIMENSION
  5
182
100
AcDbEntity
  8
additional-dimensions
  6
ByLayer
 62
  256
370
   -1
100
AcDbDimension
  2
*D24
 10
-10
 20
80
 30
0
 11
-15
 21
84.6875
 31
0
 70
   32
  1
 
 71
    5
 72
    0
  3
Standard
 53
0
210
0
220
0
230
1
100
AcDbAlignedDimension
 13
-20
 23
60
 33
0
 14
-10
 24
60
 34
0
100
AcDbRotatedDimension
  0
DIMENSION
  5
183
100
AcDbEntity
  8
additional-dimensions
  6
ByLayer
 62
  256
370
   -1
100
AcDbDimension
  2
*D25
 10
40
 20
70
 30
0
 11
35
 21
74.6875
 31
0
 70
   33
  1
 
 71
    5
 72
    0
  3
Standard
 53
0
210
0
220
0
230
1
100
AcDbAlignedDimension
 13
30
 23
40
 33
0
 14
40
 24
40
 34
0
  0
DIMENSION
  5
184
100
AcDbEntity
  8
additional-dimensions
  6
DASHED2
 62
  256
370
   -1
100
AcDbDimension
  2
*D26
 10
-20
 20
180
 30
0
 11
120
 21
250
 31
0
 70
   34
  1
 
 71
    5
  3
Standard
 53
0
210
0
220
0
230
1
100
AcDb2LineAngularDimension
 13
-20
 23
50
 33
0
 14
100
 24
170
 34
0
 15
-20
 25
50
 35
0
 16
40
 26
140
 36
0
  0
LEADER
  5
185
100
AcDbEntity
  8
additional-dimensions
  6
ByLayer
 62
  256
370
   -1
100
AcDbLeader
  3
Standard
 71
    1
 72
    0
 73
    3
 74
    0
 75
    0
 40
1
 41
10
 76
4
 76
4
 10
40
 20
0
 30
0
 10
80
 20
-90
 30
0
 10
170
 20
-90
 30
0
 10
170
 20
-90
 30
0
  0
LEADER
  5
186
100
AcDbEntity
  8
axis
  6
ByLayer
 62
  256
370
   -1
100
AcDbLeader
  3
Standard
 71
    1
 72
    0
 73
    3
 74
    0
 75
    0
 40
1
 41
10
 76
2
 76
2
 10
360
 20
0
 30
0
 10
-90
 20
0
 30
0
  0
MTEXT
  5
187
100
AcDbEntity
  8
axis
  6
ByLayer
 62
  256
370
   -1
100
AcDbMText
 10
350
 20
40
 30
0
 40
30
 41
209.1666666666685
 71
    1
 72
    1
  1
FreeCAD Z
  7
standard
210
0
220
0
230
1
 50
0
 73
    2
 44
1
  0
LEADER
  5
188
100
AcDbEntity
  8
axis
  6
ByLayer
 62
  256
370
   -1
100
AcDbLeader
  3
Standard
 71
    1
 72
    0
 73
    3
 74
    0
 75
    0
 40
1
 41
10
 76
2
 76
2
 10
-90
 20
-260
 30
0
 10
-90
 20
0
 30
0
  0
MTEXT
  5
189
100
AcDbEntity
  8
axis
  6
ByLayer
 62
  256
370
   -1
100
AcDbMText
 10
-70
 20
-230
 30
0
 40
30
 41
212.5000000000019
 71
    1
 72
    1
  1
FreeCAD X
  7
standard
210
0
220
0
230
1
 50
0
 73
    2
 44
1
  0
MTEXT
  5
18A
100
AcDbEntity
  8
additional-dimensions
  6
ByLayer
 62
  256
370
   -1
100
AcDbMText
 10
116.6666666666667
 20
-40
 30
0
 40
30
 41
36.66666666666853
 71
    1
 72
    1
  1
p5
  7
standard
210
0
220
0
230
1
 50
0
 73
    2
 44
1
  0
MTEXT
  5
18B
100
AcDbEntity
  8
additional-dimensions
  6
ByLayer
 62
  256
370
   -1
100
AcDbMText
 10
-213.3333333333333
 20
-120
 30
0
 40
30
 41
40
 71
    1
 72
    1
  1
p4
  7
standard
210
0
220
0
230
1
 50
0
 73
    2
 44
1
  0
LEADER
  5
18C
100
AcDbEntity
  8
additional-dimensions
  6
ByLayer
 62
  256
370
   -1
100
AcDbLeader
  3
Standard
 71
    1
 72
    0
 73
    3
 74
    0
 75
    0
 40
1
 41
10
 76
4
 76
4
 10
-10
 20
0
 30
0
 10
-160
 20
-170
 30
0
 10
-230
 20
-170
 30
0
 10
-230
 20
-170
 30
0
  0
ENDSEC
  0
SECTION
  2
OBJECTS
  0
DICTIONARY
  5
C
330
0
100
AcDbDictionary
281
    1
  3
ACAD_GROUP
350
D
  0
DICTIONARY
  5
D
330
C
100
AcDbDictionary
281
    1
  0
ENDSEC
  0
EOF
