999
dxfrw 0.6.3
  0
SECTION
  2
HEADER
  9
$ACADVER
  1
AC1021
  9
$DWGCODEPAGE
  3
ANSI_1252
  9
$INSBASE
 10
0
 20
0
 30
0
  9
$EXTMIN
 10
-290
 20
-200
 30
0
  9
$EXTMAX
 10
582.5000000000018
 20
270
 30
0
  9
$LIMMIN
 10
0
 20
0
  9
$LIMMAX
 10
420
 20
297
  9
$ORTHOMODE
 70
    0
  9
$REGENMODE
 70
    1
  9
$FILLMODE
 70
    1
  9
$QTEXTMODE
 70
    0
  9
$MIRRTEXT
 70
    0
  9
$LTSCALE
 40
1
  9
$ATTMODE
 70
    0
  9
$TEXTSIZE
 40
2.5
  9
$TRACEWID
 40
15.68
  9
$TEXTSTYLE
  7
STANDARD
  9
$CLAYER
  8
additional-dimensions
  9
$CELTYPE
  6
BYLAYER
  9
$CECOLOR
 62
  256
  9
$CELTSCALE
 40
1
  9
$DISPSILH
 70
    0
  9
$DIMSCALE
 40
2.5
  9
$DIMASZ
 40
2.5
  9
$DIMEXO
 40
0.625
  9
$DIMDLI
 40
3.75
  9
$DIMRND
 40
0
  9
$DIMDLE
 40
0
  9
$DIMEXE
 40
1.25
  9
$DIMTP
 40
0
  9
$DIMTM
 40
0
  9
$DIMTXT
 40
2.5
  9
$DIMCEN
 40
2.5
  9
$DIMTSZ
 40
0
  9
$DIMTOL
 70
    0
  9
$DIMLIM
 70
    0
  9
$DIMTIH
 70
    0
  9
$DIMTOH
 70
    0
  9
$DIMSE1
 70
    0
  9
$DIMSE2
 70
    0
  9
$DIMTAD
 70
    1
  9
$DIMZIN
 70
    8
  9
$DIMBLK
  1

  9
$DIMASO
 70
    1
  9
$DIMSHO
 70
    1
  9
$DIMPOST
  1

  9
$DIMAPOST
  1

  9
$DIMALT
 70
    0
  9
$DIMALTD
 70
    3
  9
$DIMALTF
 40
0.03937
  9
$DIMLFAC
 40
1
  9
$DIMTOFL
 70
    1
  9
$DIMTVP
 40
0
  9
$DIMTIX
 70
    0
  9
$DIMSOXD
 70
    0
  9
$DIMSAH
 70
    0
  9
$DIMBLK1
  1

  9
$DIMBLK2
  1

  9
$DIMSTYLE
  2
STANDARD
  9
$DIMCLRD
 70
    0
  9
$DIMCLRE
 70
    0
  9
$DIMCLRT
 70
    0
  9
$DIMTFAC
 40
1
  9
$DIMGAP
 40
0.625
  9
$DIMJUST
 70
    0
  9
$DIMSD1
 70
    0
  9
$DIMSD2
 70
    0
  9
$DIMTOLJ
 70
    0
  9
$DIMTZIN
 70
    8
  9
$DIMALTZ
 70
    0
  9
$DIMALTTZ
 70
    0
  9
$DIMUPT
 70
    0
  9
$DIMDEC
 70
    2
  9
$DIMTDEC
 70
    2
  9
$DIMALTU
 70
    2
  9
$DIMALTTD
 70
    3
  9
$DIMTXSTY
  7
standard
  9
$DIMAUNIT
 70
    0
  9
$DIMADEC
 70
    0
  9
$DIMALTRND
 40
0
  9
$DIMAZIN
 70
    0
  9
$DIMDSEP
 70
   44
  9
$DIMATFIT
 70
    3
  9
$DIMFRAC
 70
    0
  9
$DIMLDRBLK
  1
STANDARD
  9
$DIMLUNIT
 70
    2
  9
$DIMLWD
 70
   -2
  9
$DIMLWE
 70
   -2
  9
$DIMTMOVE
 70
    0
  9
$DIMFXL
 40
1
  9
$DIMFXLON
 70
    0
  9
$DIMJOGANG
 40
0.7854
  9
$DIMTFILL
 70
    0
  9
$DIMTFILLCLR
 70
    0
  9
$DIMARCSYM
 70
    0
  9
$DIMLTYPE
  6

  9
$DIMLTEX1
  6

  9
$DIMLTEX2
  6

  9
$LUNITS
 70
    2
  9
$LUPREC
 70
    4
  9
$SKETCHINC
 40
1
  9
$FILLETRAD
 40
0
  9
$AUNITS
 70
    0
  9
$AUPREC
 70
    2
  9
$MENU
  1
.
  9
$ELEVATION
 40
0
  9
$PELEVATION
 40
0
  9
$THICKNESS
 40
0
  9
$LIMCHECK
 70
    0
  9
$CHAMFERA
 40
0
  9
$CHAMFERB
 40
0
  9
$CHAMFERC
 40
0
  9
$CHAMFERD
 40
0
  9
$SKPOLY
 70
    0
  9
$USRTIMER
 70
    1
  9
$ANGBASE
 50
0
  9
$ANGDIR
 70
    0
  9
$PDMODE
 70
   34
  9
$PDSIZE
 40
0
  9
$PLINEWID
 40
0
  9
$SPLFRAME
 70
    0
  9
$SPLINETYPE
 70
    2
  9
$SPLINESEGS
 70
    8
  9
$HANDSEED
  5
20000
  9
$SURFTAB1
 70
    6
  9
$SURFTAB2
 70
    6
  9
$SURFTYPE
 70
    6
  9
$SURFU
 70
    6
  9
$SURFV
 70
    6
  9
$UCSBASE
  2

  9
$UCSNAME
  2

  9
$UCSORG
 10
0
 20
0
 30
0
  9
$UCSXDIR
 10
1
 20
0
 30
0
  9
$UCSYDIR
 10
0
 20
1
 30
0
  9
$UCSORTHOREF
  2

  9
$UCSORTHOVIEW
 70
    0
  9
$UCSORGTOP
 10
0
 20
0
 30
0
  9
$UCSORGBOTTOM
 10
0
 20
0
 30
0
  9
$UCSORGLEFT
 10
0
 20
0
 30
0
  9
$UCSORGRIGHT
 10
0
 20
0
 30
0
  9
$UCSORGFRONT
 10
0
 20
0
 30
0
  9
$UCSORGBACK
 10
0
 20
0
 30
0
  9
$PUCSBASE
  2

  9
$PUCSNAME
  2

  9
$PUCSORG
 10
0
 20
0
 30
0
  9
$PUCSXDIR
 10
1
 20
0
 30
0
  9
$PUCSYDIR
 10
0
 20
1
 30
0
  9
$PUCSORTHOREF
  2

  9
$PUCSORTHOVIEW
 70
    0
  9
$PUCSORGTOP
 10
0
 20
0
 30
0
  9
$PUCSORGBOTTOM
 10
0
 20
0
 30
0
  9
$PUCSORGLEFT
 10
0
 20
0
 30
0
  9
$PUCSORGRIGHT
 10
0
 20
0
 30
0
  9
$PUCSORGFRONT
 10
0
 20
0
 30
0
  9
$PUCSORGBACK
 10
0
 20
0
 30
0
  9
$USERI1
 70
    0
  9
$USERI2
 70
    0
  9
$USERI3
 70
    0
  9
$USERI4
 70
    0
  9
$USERI5
 70
    0
  9
$USERR1
 40
0
  9
$USERR2
 40
0
  9
$USERR3
 40
0
  9
$USERR4
 40
0
  9
$USERR5
 40
0
  9
$WORLDVIEW
 70
    1
  9
$SHADEDGE
 70
    3
  9
$SHADEDIF
 70
   70
  9
$TILEMODE
 70
    1
  9
$MAXACTVP
 70
   64
  9
$PINSBASE
 10
0
 20
0
 30
0
  9
$PLIMCHECK
 70
    0
  9
$PEXTMIN
 10
0
 20
0
 30
0
  9
$PEXTMAX
 10
0
 20
0
 30
0
  9
$GRIDMODE
 70
    1
  9
$SNAPSTYLE
 70
    0
  9
$GRIDUNIT
 10
0
 20
0
  9
$PLIMMIN
 10
0
 20
0
  9
$PLIMMAX
 10
210
 20
297
  9
$UNITMODE
 70
    0
  9
$VISRETAIN
 70
    1
  9
$PLINEGEN
 70
    0
  9
$PSLTSCALE
 70
    1
  9
$TREEDEPTH
 70
 3020
  9
$CMLSTYLE
  2
Standard
  9
$CMLJUST
 70
    0
  9
$CMLSCALE
 40
20
  9
$PROXYGRAPHICS
 70
    1
  9
$MEASUREMENT
 70
    1
  9
$CELWEIGHT
370
   -1
  9
$ENDCAPS
280
    0
  9
$JOINSTYLE
280
    0
  9
$LWDISPLAY
290
    0
  9
$INSUNITS
 70
    4
  9
$HYPERLINKBASE
  1

  9
$STYLESHEET
  1

  9
$XEDIT
290
    1
  9
$CEPSNTYPE
380
    0
  9
$PSTYLEMODE
290
    1
  9
$EXTNAMES
290
    1
  9
$PSVPSCALE
 40
1
  9
$OLESTARTUP
290
    0
  9
$SORTENTS
280
  127
  9
$INDEXCTL
280
    0
  9
$HIDETEXT
280
    1
  9
$XCLIPFRAME
290
    0
  9
$HALOGAP
280
    0
  9
$OBSCOLOR
 70
  257
  9
$OBSLTYPE
280
    0
  9
$INTERSECTIONDISPLAY
280
    0
  9
$INTERSECTIONCOLOR
 70
  257
  9
$DIMASSOC
280
    1
  9
$PROJECTNAME
  1

  9
$CAMERADISPLAY
290
    0
  9
$LENSLENGTH
 40
50
  9
$CAMERAHEIGHT
 40
0
  9
$STEPSPERSEC
 40
2
  9
$STEPSIZE
 40
50
  9
$3DDWFPREC
 40
2
  9
$PSOLWIDTH
 40
5
  9
$PSOLHEIGHT
 40
80
  9
$LOFTANG1
 40
1.570796326794897
  9
$LOFTANG2
 40
1.570796326794897
  9
$LOFTMAG1
 40
0
  9
$LOFTMAG2
 40
0
  9
$LOFTPARAM
 70
    7
  9
$LOFTNORMALS
280
    1
  9
$LATITUDE
 40
1
  9
$LONGITUDE
 40
1
  9
$NORTHDIRECTION
 40
0
  9
$TIMEZONE
 70
-8000
  9
$LIGHTGLYPHDISPLAY
280
    1
  9
$TILEMODELIGHTSYNCH
280
    1
  9
$SOLIDHIST
280
    1
  9
$SHOWHIST
280
    1
  9
$DWFFRAME
280
    2
  9
$DGNFRAME
280
    0
  9
$REALWORLDSCALE
290
    1
  9
$INTERFERECOLOR
 62
    1
  9
$CSHADOW
280
    0
  9
$SHADOWPLANELOCATION
 40
0
  0
ENDSEC
  0
SECTION
  2
CLASSES
  0
ENDSEC
  0
SECTION
  2
TABLES
  0
TABLE
  2
VPORT
  5
8
330
0
100
AcDbSymbolTable
 70
    1
  0
VPORT
  5
31
330
2
100
AcDbSymbolTableRecord
100
AcDbViewportTableRecord
  2
*ACTIVE
 70
    0
 10
0
 20
0
 11
1
 21
1
 12
287.8699956298732
 22
122.2810600905656
 13
0
 23
0
 14
10
 24
10
 15
10
 25
10
 16
0
 26
0
 36
1
 17
0
 27
0
 37
0
 40
568.9465990324928
 41
1.646268656716418
 42
50
 43
0
 44
0
 50
0
 51
0
 71
    0
 72
  100
 73
    1
 74
    3
 75
    0
 76
    1
 77
    0
 78
    0
281
    0
 65
    1
110
0
120
0
130
0
111
1
121
0
131
0
112
0
122
1
132
0
 79
    0
146
0
348
10020
 60
    7
 61
    5
292
1
282
    1
141
0
142
0
 63
  250
421
3358443
  0
ENDTAB
  0
TABLE
  2
LTYPE
  5
5
330
0
100
AcDbSymbolTable
 70
    4
  0
LTYPE
  5
14
330
5
100
AcDbSymbolTableRecord
100
AcDbLinetypeTableRecord
  2
ByBlock
 70
    0
  3

 72
   65
 73
    0
 40
0
  0
LTYPE
  5
15
330
5
100
AcDbSymbolTableRecord
100
AcDbLinetypeTableRecord
  2
ByLayer
 70
    0
  3

 72
   65
 73
    0
 40
0
  0
LTYPE
  5
16
330
5
100
AcDbSymbolTableRecord
100
AcDbLinetypeTableRecord
  2
Continuous
 70
    0
  3
Solid line
 72
   65
 73
    0
 40
0
  0
LTYPE
  5
32
330
5
100
AcDbSymbolTableRecord
100
AcDbLinetypeTableRecord
  2
DOT
 70
    0
  3
Dot . . . . . . . . . . . . . . . . . . . . . .
 72
   65
 73
    2
 40
6.35
 49
0
 74
    0
 49
-6.35
 74
    0
  0
LTYPE
  5
33
330
5
100
AcDbSymbolTableRecord
100
AcDbLinetypeTableRecord
  2
DOTTINY
 70
    0
  3
Dot (.15x) .....................................
 72
   65
 73
    2
 40
0.9525
 49
0
 74
    0
 49
-0.9525
 74
    0
  0
LTYPE
  5
34
330
5
100
AcDbSymbolTableRecord
100
AcDbLinetypeTableRecord
  2
DOT2
 70
    0
  3
Dot (.5x) .....................................
 72
   65
 73
    2
 40
3.175
 49
0
 74
    0
 49
-3.175
 74
    0
  0
LTYPE
  5
35
330
5
100
AcDbSymbolTableRecord
100
AcDbLinetypeTableRecord
  2
DOTX2
 70
    0
  3
Dot (2x) .  .  .  .  .  .  .  .  .  .  .  .  .
 72
   65
 73
    2
 40
12.7
 49
0
 74
    0
 49
-12.7
 74
    0
  0
LTYPE
  5
36
330
5
100
AcDbSymbolTableRecord
100
AcDbLinetypeTableRecord
  2
DASHED
 70
    0
  3
Dashed _ _ _ _ _ _ _ _ _ _ _ _ _ _ _ _ _
 72
   65
 73
    2
 40
19.05
 49
12.7
 74
    0
 49
-6.35
 74
    0
  0
LTYPE
  5
37
330
5
100
AcDbSymbolTableRecord
100
AcDbLinetypeTableRecord
  2
DASHEDTINY
 70
    0
  3
Dashed (.15x) _ _ _ _ _ _ _ _ _ _ _ _ _ _ _ _ _
 72
   65
 73
    2
 40
2.8575
 49
1.905
 74
    0
 49
-0.9525
 74
    0
  0
LTYPE
  5
38
330
5
100
AcDbSymbolTableRecord
100
AcDbLinetypeTableRecord
  2
DASHED2
 70
    0
  3
Dashed (.5x) _ _ _ _ _ _ _ _ _ _ _ _ _ _ _ _ _
 72
   65
 73
    2
 40
9.524999999999999
 49
6.35
 74
    0
 49
-3.175
 74
    0
  0
LTYPE
  5
39
330
5
100
AcDbSymbolTableRecord
100
AcDbLinetypeTableRecord
  2
DASHEDX2
 70
    0
  3
Dashed (2x) ____  ____  ____  ____  ____  ___
 72
   65
 73
    2
 40
38.09999999999999
 49
25.4
 74
    0
 49
-12.7
 74
    0
  0
LTYPE
  5
3A
330
5
100
AcDbSymbolTableRecord
100
AcDbLinetypeTableRecord
  2
DASHDOT
 70
    0
  3
Dash dot __ . __ . __ . __ . __ . __ . __ . __
 72
   65
 73
    4
 40
25.4
 49
12.7
 74
    0
 49
-6.35
 74
    0
 49
0
 74
    0
 49
-6.35
 74
    0
  0
LTYPE
  5
3B
330
5
100
AcDbSymbolTableRecord
100
AcDbLinetypeTableRecord
  2
DASHDOTTINY
 70
    0
  3
Dash dot (.15x) _._._._._._._._._._._._._._._.
 72
   65
 73
    4
 40
3.81
 49
1.905
 74
    0
 49
-0.9525
 74
    0
 49
0
 74
    0
 49
-0.9525
 74
    0
  0
LTYPE
  5
3C
330
5
100
AcDbSymbolTableRecord
100
AcDbLinetypeTableRecord
  2
DASHDOT2
 70
    0
  3
Dash dot (.5x) _._._._._._._._._._._._._._._.
 72
   65
 73
    4
 40
12.7
 49
6.35
 74
    0
 49
-3.175
 74
    0
 49
0
 74
    0
 49
-3.175
 74
    0
  0
LTYPE
  5
3D
330
5
100
AcDbSymbolTableRecord
100
AcDbLinetypeTableRecord
  2
DASHDOTX2
 70
    0
  3
Dash dot (2x) ____  .  ____  .  ____  .  ___
 72
   65
 73
    4
 40
50.8
 49
25.4
 74
    0
 49
-12.7
 74
    0
 49
0
 74
    0
 49
-12.7
 74
    0
  0
LTYPE
  5
3E
330
5
100
AcDbSymbolTableRecord
100
AcDbLinetypeTableRecord
  2
DIVIDE
 70
    0
  3
Divide ____ . . ____ . . ____ . . ____ . . ____
 72
   65
 73
    6
 40
31.75
 49
12.7
 74
    0
 49
-6.35
 74
    0
 49
0
 74
    0
 49
-6.35
 74
    0
 49
0
 74
    0
 49
-6.35
 74
    0
  0
LTYPE
  5
3F
330
5
100
AcDbSymbolTableRecord
100
AcDbLinetypeTableRecord
  2
DIVIDETINY
 70
    0
  3
Divide (.15x) __..__..__..__..__..__..__..__.._
 72
   65
 73
    6
 40
4.7625
 49
1.905
 74
    0
 49
-0.9525
 74
    0
 49
0
 74
    0
 49
-0.9525
 74
    0
 49
0
 74
    0
 49
-0.9525
 74
    0
  0
LTYPE
  5
40
330
5
100
AcDbSymbolTableRecord
100
AcDbLinetypeTableRecord
  2
DIVIDE2
 70
    0
  3
Divide (.5x) __..__..__..__..__..__..__..__.._
 72
   65
 73
    6
 40
15.875
 49
6.35
 74
    0
 49
-3.175
 74
    0
 49
0
 74
    0
 49
-3.175
 74
    0
 49
0
 74
    0
 49
-3.175
 74
    0
  0
LTYPE
  5
41
330
5
100
AcDbSymbolTableRecord
100
AcDbLinetypeTableRecord
  2
DIVIDEX2
 70
    0
  3
Divide (2x) ________  .  .  ________  .  .  _
 72
   65
 73
    6
 40
63.5
 49
25.4
 74
    0
 49
-12.7
 74
    0
 49
0
 74
    0
 49
-12.7
 74
    0
 49
0
 74
    0
 49
-12.7
 74
    0
  0
LTYPE
  5
42
330
5
100
AcDbSymbolTableRecord
100
AcDbLinetypeTableRecord
  2
BORDER
 70
    0
  3
Border __ __ . __ __ . __ __ . __ __ . __ __ .
 72
   65
 73
    6
 40
44.45
 49
12.7
 74
    0
 49
-6.35
 74
    0
 49
12.7
 74
    0
 49
-6.35
 74
    0
 49
0
 74
    0
 49
-6.35
 74
    0
  0
LTYPE
  5
43
330
5
100
AcDbSymbolTableRecord
100
AcDbLinetypeTableRecord
  2
BORDERTINY
 70
    0
  3
Border (.15x) __.__.__.__.__.__.__.__.__.__.__.
 72
   65
 73
    6
 40
6.6675
 49
1.905
 74
    0
 49
-0.9525
 74
    0
 49
1.905
 74
    0
 49
-0.9525
 74
    0
 49
0
 74
    0
 49
-0.9525
 74
    0
  0
LTYPE
  5
44
330
5
100
AcDbSymbolTableRecord
100
AcDbLinetypeTableRecord
  2
BORDER2
 70
    0
  3
Border (.5x) __.__.__.__.__.__.__.__.__.__.__.
 72
   65
 73
    6
 40
22.225
 49
6.35
 74
    0
 49
-3.175
 74
    0
 49
6.35
 74
    0
 49
-3.175
 74
    0
 49
0
 74
    0
 49
-3.175
 74
    0
  0
LTYPE
  5
45
330
5
100
AcDbSymbolTableRecord
100
AcDbLinetypeTableRecord
  2
BORDERX2
 70
    0
  3
Border (2x) ____  ____  .  ____  ____  .  ___
 72
   65
 73
    6
 40
88.89999999999999
 49
25.4
 74
    0
 49
-12.7
 74
    0
 49
25.4
 74
    0
 49
-12.7
 74
    0
 49
0
 74
    0
 49
-12.7
 74
    0
  0
LTYPE
  5
46
330
5
100
AcDbSymbolTableRecord
100
AcDbLinetypeTableRecord
  2
CENTER
 70
    0
  3
Center ____ _ ____ _ ____ _ ____ _ ____ _ ____
 72
   65
 73
    4
 40
50.8
 49
31.75
 74
    0
 49
-6.35
 74
    0
 49
6.35
 74
    0
 49
-6.35
 74
    0
  0
LTYPE
  5
47
330
5
100
AcDbSymbolTableRecord
100
AcDbLinetypeTableRecord
  2
CENTERTINY
 70
    0
  3
Center (.15x) ___ _ ___ _ ___ _ ___ _ ___ _ ___
 72
   65
 73
    4
 40
7.619999999999999
 49
4.7625
 74
    0
 49
-0.9525
 74
    0
 49
0.9525
 74
    0
 49
-0.9525
 74
    0
  0
LTYPE
  5
48
330
5
100
AcDbSymbolTableRecord
100
AcDbLinetypeTableRecord
  2
CENTER2
 70
    0
  3
Center (.5x) ___ _ ___ _ ___ _ ___ _ ___ _ ___
 72
   65
 73
    4
 40
28.575
 49
19.05
 74
    0
 49
-3.175
 74
    0
 49
3.175
 74
    0
 49
-3.175
 74
    0
  0
LTYPE
  5
49
330
5
100
AcDbSymbolTableRecord
100
AcDbLinetypeTableRecord
  2
CENTERX2
 70
    0
  3
Center (2x) ________  __  ________  __  _____
 72
   65
 73
    4
 40
101.6
 49
63.5
 74
    0
 49
-12.7
 74
    0
 49
12.7
 74
    0
 49
-12.7
 74
    0
  0
ENDTAB
  0
TABLE
  2
LAYER
  5
2
330
0
100
AcDbSymbolTable
 70
    1
  0
LAYER
  5
10
330
2
100
AcDbSymbolTableRecord
100
AcDbLayerTableRecord
  2
0
 70
    1
 62
    6
  6
CONTINUOUS
370
    0
390
F
  0
LAYER
  5
4A
330
2
100
AcDbSymbolTableRecord
100
AcDbLayerTableRecord
  2
additional-dimensions
 70
    0
 62
    5
  6
CONTINUOUS
370
    0
390
F
  0
LAYER
  5
4B
330
2
100
AcDbSymbolTableRecord
100
AcDbLayerTableRecord
  2
auxiliary
 70
    0
 62
    7
  6
CONTINUOUS
370
    0
390
F
  0
LAYER
  5
4C
330
2
100
AcDbSymbolTableRecord
100
AcDbLayerTableRecord
  2
axis
 70
    0
 62
    1
  6
CONTINUOUS
370
    0
390
F
  0
LAYER
  5
4D
330
2
100
AcDbSymbolTableRecord
100
AcDbLayerTableRecord
  2
dimensions
 70
    0
 62
    7
  6
CONTINUOUS
370
    0
390
F
  0
LAYER
  5
4E
330
2
100
AcDbSymbolTableRecord
100
AcDbLayerTableRecord
  2
internal
 70
    0
 62
    7
  6
CONTINUOUS
370
    0
390
F
  0
LAYER
  5
4F
330
2
100
AcDbSymbolTableRecord
100
AcDbLayerTableRecord
  2
out-part
 70
    0
 62
    7
  6
CONTINUOUS
370
    0
390
F
  0
ENDTAB
  0
TABLE
  2
STYLE
  5
3
330
0
100
AcDbSymbolTable
 70
    3
  0
STYLE
  5
50
330
2
100
AcDbSymbolTableRecord
100
AcDbTextStyleTableRecord
  2
standard
 70
    0
 40
0
 41
1
 50
0
 71
    0
 42
1
  3
standard
  4

  0
ENDTAB
  0
TABLE
  2
VIEW
  5
6
330
0
100
AcDbSymbolTable
 70
    0
  0
ENDTAB
  0
TABLE
  2
UCS
  5
7
330
0
100
AcDbSymbolTable
 70
    0
  0
ENDTAB
  0
TABLE
  2
APPID
  5
9
330
0
100
AcDbSymbolTable
 70
    1
  0
APPID
  5
12
330
9
100
AcDbSymbolTableRecord
100
AcDbRegAppTableRecord
  2
ACAD
 70
    0
  0
APPID
  5
51
330
9
100
AcDbSymbolTableRecord
100
AcDbRegAppTableRecord
  2
LibreCad
 70
    0
  0
ENDTAB
  0
TABLE
  2
DIMSTYLE
  5
A
330
0
100
AcDbSymbolTable
 70
    1
100
AcDbDimStyleTable
 71
    1
  0
DIMSTYLE
105
52
330
A
100
AcDbSymbolTableRecord
100
AcDbDimStyleTableRecord
  2
Standard
 70
    0
 40
2.5
 41
2.5
 42
0.625
 43
0.38
 44
1.25
 45
0
 46
0
 47
0
 48
0
 49
1
140
2.5
141
0.09
142
0
143
25.4
144
1
145
0
146
1
147
0.625
148
0
 71
    0
 72
    0
 73
    0
 74
    1
 75
    0
 76
    0
 77
    0
 78
    8
 79
    0
170
    0
171
    2
172
    0
173
    0
174
    0
175
    0
176
    0
177
    0
178
    0
179
    0
271
    2
272
    4
273
    2
274
    2
275
    0
276
    0
277
    2
278
   44
279
    0
280
    0
281
    0
282
    0
283
    1
284
    0
285
    0
286
    0
288
    0
289
    3
340
standard
341

371
   -2
372
   -2
  0
ENDTAB
  0
TABLE
  2
BLOCK_RECORD
  5
1
330
0
100
AcDbSymbolTable
 70
    2
  0
BLOCK_RECORD
  5
1F
330
1
100
AcDbSymbolTableRecord
100
AcDbBlockTableRecord
  2
*Model_Space
 70
    0
280
    1
281
    0
  0
BLOCK_RECORD
  5
1E
330
1
100
AcDbSymbolTableRecord
100
AcDbBlockTableRecord
  2
*Paper_Space
 70
    0
280
    1
281
    0
  0
BLOCK_RECORD
  5
53
330
1
100
AcDbSymbolTableRecord
100
AcDbBlockTableRecord
  2
*D7
 70
    0
280
    1
281
    0
  0
BLOCK_RECORD
  5
56
330
1
100
AcDbSymbolTableRecord
100
AcDbBlockTableRecord
  2
*D3
 70
    0
280
    1
281
    0
  0
BLOCK_RECORD
  5
59
330
1
100
AcDbSymbolTableRecord
100
AcDbBlockTableRecord
  2
*D20
 70
    0
280
    1
281
    0
  0
BLOCK_RECORD
  5
5C
330
1
100
AcDbSymbolTableRecord
100
AcDbBlockTableRecord
  2
*D29
 70
    0
280
    1
281
    0
  0
BLOCK_RECORD
  5
5F
330
1
100
AcDbSymbolTableRecord
100
AcDbBlockTableRecord
  2
*D23
 70
    0
280
    1
281
    0
  0
BLOCK_RECORD
  5
62
330
1
100
AcDbSymbolTableRecord
100
AcDbBlockTableRecord
  2
*D16
 70
    0
280
    1
281
    0
  0
BLOCK_RECORD
  5
65
330
1
100
AcDbSymbolTableRecord
100
AcDbBlockTableRecord
  2
*D4
 70
    0
280
    1
281
    0
  0
BLOCK_RECORD
  5
68
330
1
100
AcDbSymbolTableRecord
100
AcDbBlockTableRecord
  2
*D13
 70
    0
280
    1
281
    0
  0
BLOCK_RECORD
  5
6B
330
1
100
AcDbSymbolTableRecord
100
AcDbBlockTableRecord
  2
*D27
 70
    0
280
    1
281
    0
  0
BLOCK_RECORD
  5
6E
330
1
100
AcDbSymbolTableRecord
100
AcDbBlockTableRecord
  2
*D15
 70
    0
280
    1
281
    0
  0
BLOCK_RECORD
  5
71
330
1
100
AcDbSymbolTableRecord
100
AcDbBlockTableRecord
  2
*D19
 70
    0
280
    1
281
    0
  0
BLOCK_RECORD
  5
74
330
1
100
AcDbSymbolTableRecord
100
AcDbBlockTableRecord
  2
*D6
 70
    0
280
    1
281
    0
  0
BLOCK_RECORD
  5
77
330
1
100
AcDbSymbolTableRecord
100
AcDbBlockTableRecord
  2
*D10
 70
    0
280
    1
281
    0
  0
BLOCK_RECORD
  5
7A
330
1
100
AcDbSymbolTableRecord
100
AcDbBlockTableRecord
  2
*D2
 70
    0
280
    1
281
    0
  0
BLOCK_RECORD
  5
7D
330
1
100
AcDbSymbolTableRecord
100
AcDbBlockTableRecord
  2
*D25
 70
    0
280
    1
281
    0
  0
BLOCK_RECORD
  5
80
330
1
100
AcDbSymbolTableRecord
100
AcDbBlockTableRecord
  2
*D9
 70
    0
280
    1
281
    0
  0
BLOCK_RECORD
  5
83
330
1
100
AcDbSymbolTableRecord
100
AcDbBlockTableRecord
  2
*D5
 70
    0
280
    1
281
    0
  0
BLOCK_RECORD
  5
86
330
1
100
AcDbSymbolTableRecord
100
AcDbBlockTableRecord
  2
*D24
 70
    0
280
    1
281
    0
  0
BLOCK_RECORD
  5
89
330
1
100
AcDbSymbolTableRecord
100
AcDbBlockTableRecord
  2
*D26
 70
    0
280
    1
281
    0
  0
BLOCK_RECORD
  5
8C
330
1
100
AcDbSymbolTableRecord
100
AcDbBlockTableRecord
  2
*D1
 70
    0
280
    1
281
    0
  0
BLOCK_RECORD
  5
8F
330
1
100
AcDbSymbolTableRecord
100
AcDbBlockTableRecord
  2
*D18
 70
    0
280
    1
281
    0
  0
BLOCK_RECORD
  5
92
330
1
100
AcDbSymbolTableRecord
100
AcDbBlockTableRecord
  2
*D17
 70
    0
280
    1
281
    0
  0
BLOCK_RECORD
  5
95
330
1
100
AcDbSymbolTableRecord
100
AcDbBlockTableRecord
  2
*D28
 70
    0
280
    1
281
    0
  0
BLOCK_RECORD
  5
98
330
1
100
AcDbSymbolTableRecord
100
AcDbBlockTableRecord
  2
*D11
 70
    0
280
    1
281
    0
  0
BLOCK_RECORD
  5
9B
330
1
100
AcDbSymbolTableRecord
100
AcDbBlockTableRecord
  2
*D14
 70
    0
280
    1
281
    0
  0
BLOCK_RECORD
  5
9E
330
1
100
AcDbSymbolTableRecord
100
AcDbBlockTableRecord
  2
*D8
 70
    0
280
    1
281
    0
  0
BLOCK_RECORD
  5
A1
330
1
100
AcDbSymbolTableRecord
100
AcDbBlockTableRecord
  2
*D21
 70
    0
280
    1
281
    0
  0
BLOCK_RECORD
  5
A4
330
1
100
AcDbSymbolTableRecord
100
AcDbBlockTableRecord
  2
*D22
 70
    0
280
    1
281
    0
  0
BLOCK_RECORD
  5
A7
330
1
100
AcDbSymbolTableRecord
100
AcDbBlockTableRecord
  2
*D12
 70
    0
280
    1
281
    0
  0
ENDTAB
  0
ENDSEC
  0
SECTION
  2
BLOCKS
  0
BLOCK
  5
20
330
1F
100
AcDbEntity
  8
0
100
AcDbBlockBegin
  2
*Model_Space
 70
    0
 10
0
 20
0
 30
0
  3
*Model_Space
  1

  0
ENDBLK
  5
21
330
1F
100
AcDbEntity
  8
0
100
AcDbBlockEnd
  0
BLOCK
  5
1C
330
1B
100
AcDbEntity
  8
0
100
AcDbBlockBegin
  2
*Paper_Space
 70
    0
 10
0
 20
0
 30
0
  3
*Paper_Space
  1

  0
ENDBLK
  5
1D
330
1F
100
AcDbEntity
  8
0
100
AcDbBlockEnd
  0
BLOCK
  5
54
330
53
100
AcDbEntity
  8
0
100
AcDbBlockBegin
  2
*D7
 70
    1
 10
0
 20
0
  3
*D7
  1

  0
LINE
  5
AA
100
AcDbEntity
  8
dimensions
  6
ByBlock
 62
    0
370
   -2
100
AcDbLine
 10
230
 20
39.99999999999999
 11
230
 21
-40
  0
SOLID
  5
AB
100
AcDbEntity
  8
dimensions
  6
ByBlock
 62
    0
370
   -2
100
AcDbTrace
 10
230
 20
39.99999999999999
 30
0
 11
231.0407116444321
 21
33.74999999999999
 31
0
 12
228.9592883555679
 22
33.74999999999999
 32
0
 13
228.9592883555679
 23
33.74999999999999
 33
0
  0
SOLID
  5
AC
100
AcDbEntity
  8
dimensions
  6
ByBlock
 62
    0
370
   -2
100
AcDbTrace
 10
230
 20
-40
 30
0
 11
228.9592883555679
 21
-33.75
 31
0
 12
231.0407116444321
 22
-33.75
 32
0
 13
231.0407116444321
 23
-33.75
 33
0
  0
MTEXT
  5
AD
100
AcDbEntity
  8
dimensions
  6
CONTINUOUS
 62
    0
370
   -2
100
AcDbMText
 10
225.3125
 20
7.105427357601002e-15
 30
0
 40
6.25
 41
0
 71
    5
 72
    1
  1

  7
standard
210
0
220
0
230
1
 50
90
 73
    2
 44
1
  0
LINE
  5
AE
100
AcDbEntity
  8
dimensions
  6
ByBlock
 62
    0
370
   -2
100
AcDbLine
 10
111.5625
 20
40
 11
233.125
 21
39.99999999999999
  0
LINE
  5
AF
100
AcDbEntity
  8
dimensions
  6
ByBlock
 62
    0
370
   -2
100
AcDbLine
 10
111.5625
 20
-40
 11
233.125
 21
-40
  0
ENDBLK
  5
55
330
53
100
AcDbEntity
  8
0
100
AcDbBlockEnd
  0
BLOCK
  5
57
330
56
100
AcDbEntity
  8
0
100
AcDbBlockBegin
  2
*D3
 70
    1
 10
0
 20
0
  3
*D3
  1

  0
ENDBLK
  5
58
330
56
100
AcDbEntity
  8
0
100
AcDbBlockEnd
  0
BLOCK
  5
5A
330
59
100
AcDbEntity
  8
0
100
AcDbBlockBegin
  2
*D20
 70
    1
 10
0
 20
0
  3
*D20
  1

  0
LINE
  5
B0
100
AcDbEntity
  8
dimensions
  6
ByBlock
 62
    0
370
   -2
100
AcDbLine
 10
91.5625
 20
60
 11
123.125
 21
60
  0
LINE
  5
B1
100
AcDbEntity
  8
dimensions
  6
ByBlock
 62
    0
370
   -2
100
AcDbLine
 10
91.5625
 20
0
 11
123.125
 21
0
  0
LINE
  5
B2
100
AcDbEntity
  8
dimensions
  6
ByBlock
 62
    0
370
   -2
100
AcDbLine
 10
120
 20
60
 11
120
 21
0
  0
SOLID
  5
B3
100
AcDbEntity
  8
dimensions
  6
ByBlock
 62
    0
370
   -2
100
AcDbTrace
 10
120
 20
60
 30
0
 11
121.0407116444321
 21
53.75
 31
0
 12
118.9592883555679
 22
53.75
 32
0
 13
118.9592883555679
 23
53.75
 33
0
  0
SOLID
  5
B4
100
AcDbEntity
  8
dimensions
  6
ByBlock
 62
    0
370
   -2
100
AcDbTrace
 10
120
 20
0
 30
0
 11
118.9592883555679
 21
6.25
 31
0
 12
121.0407116444321
 22
6.25
 32
0
 13
121.0407116444321
 23
6.25
 33
0
  0
MTEXT
  5
B5
100
AcDbEntity
  8
dimensions
  6
CONTINUOUS
 62
    0
370
   -2
100
AcDbMText
 10
115.3125
 20
30
 30
0
 40
6.25
 41
0
 71
    5
 72
    1
  1

  7
standard
210
0
220
0
230
1
 50
90
 73
    2
 44
1
  0
ENDBLK
  5
5B
330
59
100
AcDbEntity
  8
0
100
AcDbBlockEnd
  0
BLOCK
  5
5D
330
5C
100
AcDbEntity
  8
0
100
AcDbBlockBegin
  2
*D29
 70
    1
 10
0
 20
0
  3
*D29
  1

  0
LINE
  5
B6
100
AcDbEntity
  8
additional-dimensions
  6
CONTINUOUS
 62
    7
370
    0
100
AcDbLine
 10
60
 20
0
 11
110
 21
-200
  0
LINE
  5
B7
100
AcDbEntity
  8
additional-dimensions
  6
CONTINUOUS
 62
    7
370
    0
100
AcDbLine
 10
110
 20
-200
 11
190
 21
-200
  0
SOLID
  5
B8
100
AcDbEntity
  8
additional-dimensions
  6
CONTINUOUS
 62
    7
370
    0
100
AcDbTrace
 10
60
 20
0
 30
0
 11
62.5254862531368
 21
-5.810980976743394
 31
0
 12
60.50620905981737
 22
-6.315800275073254
 32
0
 13
60.50620905981737
 23
-6.315800275073254
 33
0
  0
ENDBLK
  5
5E
330
5C
100
AcDbEntity
  8
0
100
AcDbBlockEnd
  0
BLOCK
  5
60
330
5F
100
AcDbEntity
  8
0
100
AcDbBlockBegin
  2
*D23
 70
    1
 10
0
 20
0
  3
*D23
  1

  0
LINE
  5
B9
100
AcDbEntity
  8
additional-dimensions
  6
CONTINUOUS
 62
    7
370
    0
100
AcDbLine
 10
-120
 20
0
 11
-190
 21
60
  0
LINE
  5
BA
100
AcDbEntity
  8
additional-dimensions
  6
CONTINUOUS
 62
    7
370
    0
100
AcDbLine
 10
-190
 20
60
 11
-240
 21
60
  0
SOLID
  5
BB
100
AcDbEntity
  8
additional-dimensions
  6
CONTINUOUS
 62
    7
370
    0
100
AcDbTrace
 10
-120
 20
0
 30
0
 11
-125.4226399252347
 21
3.277278896906288
 31
0
 12
-124.0680676043315
 22
4.857613271293323
 32
0
 13
-124.0680676043315
 23
4.857613271293323
 33
0
  0
ENDBLK
  5
61
330
5F
100
AcDbEntity
  8
0
100
AcDbBlockEnd
  0
BLOCK
  5
63
330
62
100
AcDbEntity
  8
0
100
AcDbBlockBegin
  2
*D16
 70
    1
 10
0
 20
0
  3
*D16
  1

  0
LINE
  5
BC
100
AcDbEntity
  8
out-part
  6
ByBlock
 62
    0
370
   -2
100
AcDbLine
 10
110
 20
-130
 11
7.888609052210118e-31
 21
-130
  0
SOLID
  5
BD
100
AcDbEntity
  8
out-part
  6
ByBlock
 62
    0
370
   -2
100
AcDbTrace
 10
110
 20
-130
 30
0
 11
103.75
 21
-131.0407116444321
 31
0
 12
103.75
 22
-128.9592883555679
 32
0
 13
103.75
 23
-128.9592883555679
 33
0
  0
SOLID
  5
BE
100
AcDbEntity
  8
out-part
  6
ByBlock
 62
    0
370
   -2
100
AcDbTrace
 10
7.888609052210118e-31
 20
-130
 30
0
 11
6.25
 21
-128.9592883555679
 31
0
 12
6.25
 22
-131.0407116444321
 32
0
 13
6.25
 23
-131.0407116444321
 33
0
  0
MTEXT
  5
BF
100
AcDbEntity
  8
out-part
  6
CONTINUOUS
 62
    0
370
   -2
100
AcDbMText
 10
55
 20
-125.3125
 30
0
 40
6.25
 41
0
 71
    5
 72
    1
  1

  7
standard
210
0
220
0
230
1
 50
360
 73
    2
 44
1
  0
LINE
  5
C0
100
AcDbEntity
  8
out-part
  6
ByBlock
 62
    0
370
   -2
100
AcDbLine
 10
110
 20
-41.5625
 11
110
 21
-133.125
  0
LINE
  5
C1
100
AcDbEntity
  8
out-part
  6
ByBlock
 62
    0
370
   -2
100
AcDbLine
 10
-2.870265935501609e-16
 20
-41.5625
 11
-5.74053187100321e-16
 21
-133.125
  0
ENDBLK
  5
64
330
62
100
AcDbEntity
  8
0
100
AcDbBlockEnd
  0
BLOCK
  5
66
330
65
100
AcDbEntity
  8
0
100
AcDbBlockBegin
  2
*D4
 70
    1
 10
0
 20
0
  3
*D4
  1

  0
LINE
  5
C2
100
AcDbEntity
  8
dimensions
  6
ByBlock
 62
    0
370
   -2
100
AcDbLine
 10
10
 20
61.5625
 11
10
 21
68.125
  0
LINE
  5
C3
100
AcDbEntity
  8
dimensions
  6
ByBlock
 62
    0
370
   -2
100
AcDbLine
 10
20
 20
61.5625
 11
20
 21
68.125
  0
LINE
  5
C4
100
AcDbEntity
  8
dimensions
  6
ByBlock
 62
    0
370
   -2
100
AcDbLine
 10
-2.5
 20
65
 11
32.5
 21
65
  0
SOLID
  5
C5
100
AcDbEntity
  8
dimensions
  6
ByBlock
 62
    0
370
   -2
100
AcDbTrace
 10
10
 20
65
 30
0
 11
3.75
 21
63.9592883555679
 31
0
 12
3.75
 22
66.04071164443211
 32
0
 13
3.75
 23
66.04071164443211
 33
0
  0
SOLID
  5
C6
100
AcDbEntity
  8
dimensions
  6
ByBlock
 62
    0
370
   -2
100
AcDbTrace
 10
20
 20
65
 30
0
 11
26.25
 21
66.04071164443209
 31
0
 12
26.25
 22
63.9592883555679
 32
0
 13
26.25
 23
63.9592883555679
 33
0
  0
MTEXT
  5
C7
100
AcDbEntity
  8
dimensions
  6
CONTINUOUS
 62
    0
370
   -2
100
AcDbMText
 10
15
 20
69.6875
 30
0
 40
6.25
 41
0
 71
    5
 72
    1
  1

  7
standard
210
0
220
0
230
1
 50
0
 73
    2
 44
1
  0
ENDBLK
  5
67
330
65
100
AcDbEntity
  8
0
100
AcDbBlockEnd
  0
BLOCK
  5
69
330
68
100
AcDbEntity
  8
0
100
AcDbBlockBegin
  2
*D13
 70
    1
 10
0
 20
0
  3
*D13
  1

  0
LINE
  5
C8
100
AcDbEntity
  8
dimensions
  6
ByBlock
 62
    0
370
   -2
100
AcDbLine
 10
-120
 20
-51.5625
 11
-120
 21
-133.125
  0
LINE
  5
C9
100
AcDbEntity
  8
dimensions
  6
ByBlock
 62
    0
370
   -2
100
AcDbLine
 10
-2.870265935501609e-16
 20
-51.5625
 11
-1.526981477686856e-14
 21
-133.125
  0
LINE
  5
CA
100
AcDbEntity
  8
dimensions
  6
ByBlock
 62
    0
370
   -2
100
AcDbLine
 10
-120
 20
-130
 11
-1.469576158976824e-14
 21
-130
  0
SOLID
  5
CB
100
AcDbEntity
  8
dimensions
  6
ByBlock
 62
    0
370
   -2
100
AcDbTrace
 10
-120
 20
-130
 30
0
 11
-113.75
 21
-128.9592883555679
 31
0
 12
-113.75
 22
-131.0407116444321
 32
0
 13
-113.75
 23
-131.0407116444321
 33
0
  0
SOLID
  5
CC
100
AcDbEntity
  8
dimensions
  6
ByBlock
 62
    0
370
   -2
100
AcDbTrace
 10
-1.469576158976824e-14
 20
-130
 30
0
 11
-6.250000000000015
 21
-131.0407116444321
 31
0
 12
-6.250000000000015
 22
-128.9592883555679
 32
0
 13
-6.250000000000015
 23
-128.9592883555679
 33
0
  0
MTEXT
  5
CD
100
AcDbEntity
  8
dimensions
  6
CONTINUOUS
 62
    0
370
   -2
100
AcDbMText
 10
-60.00000000000001
 20
-125.3125
 30
0
 40
6.25
 41
0
 71
    5
 72
    1
  1

  7
standard
210
0
220
0
230
1
 50
0
 73
    2
 44
1
  0
ENDBLK
  5
6A
330
68
100
AcDbEntity
  8
0
100
AcDbBlockEnd
  0
BLOCK
  5
6C
330
6B
100
AcDbEntity
  8
0
100
AcDbBlockBegin
  2
*D27
 70
    1
 10
0
 20
0
  3
*D27
  1

  0
LINE
  5
CE
100
AcDbEntity
  8
additional-dimensions
  6
CONTINUOUS
 62
    7
370
    0
100
AcDbLine
 10
0
 20
60
 11
-70
 21
210
  0
LINE
  5
CF
100
AcDbEntity
  8
additional-dimensions
  6
CONTINUOUS
 62
    7
370
    0
100
AcDbLine
 10
-70
 20
210
 11
-150
 21
210
  0
SOLID
  5
D0
100
AcDbEntity
  8
additional-dimensions
  6
CONTINUOUS
 62
    7
370
    0
100
AcDbTrace
 10
0
 20
60
 30
0
 11
-3.586109504100643
 21
65.22354279693923
 31
0
 12
-1.699958812538407
 22
66.10374645300159
 32
0
 13
-1.699958812538407
 23
66.10374645300159
 33
0
  0
ENDBLK
  5
6D
330
6B
100
AcDbEntity
  8
0
100
AcDbBlockEnd
  0
BLOCK
  5
6F
330
6E
100
AcDbEntity
  8
0
100
AcDbBlockBegin
  2
*D15
 70
    1
 10
0
 20
0
  3
*D15
  1

  0
LINE
  5
D1
100
AcDbEntity
  8
out-part
  6
ByBlock
 62
    0
370
   -2
100
AcDbLine
 10
0.4999999999999858
 20
-70
 11
50
 21
-70
  0
SOLID
  5
D2
100
AcDbEntity
  8
out-part
  6
ByBlock
 62
    0
370
   -2
100
AcDbTrace
 10
0.4999999999999858
 20
-70
 30
0
 11
6.749999999999986
 21
-68.95928835556791
 31
0
 12
6.749999999999986
 22
-71.04071164443211
 32
0
 13
6.749999999999986
 23
-71.04071164443211
 33
0
  0
SOLID
  5
D3
100
AcDbEntity
  8
out-part
  6
ByBlock
 62
    0
370
   -2
100
AcDbTrace
 10
50
 20
-70
 30
0
 11
43.75
 21
-71.04071164443211
 31
0
 12
43.75
 22
-68.95928835556789
 32
0
 13
43.75
 23
-68.95928835556789
 33
0
  0
MTEXT
  5
D4
100
AcDbEntity
  8
out-part
  6
CONTINUOUS
 62
    0
370
   -2
100
AcDbMText
 10
25.24999999999999
 20
-65.3125
 30
0
 40
6.25
 41
0
 71
    5
 72
    1
  1

  7
standard
210
0
220
0
230
1
 50
0
 73
    2
 44
1
  0
LINE
  5
D5
100
AcDbEntity
  8
out-part
  6
ByBlock
 62
    0
370
   -2
100
AcDbLine
 10
0.4999999999999784
 20
-47.0625
 11
0.4999999999999852
 21
-73.125
  0
LINE
  5
D6
100
AcDbEntity
  8
out-part
  6
ByBlock
 62
    0
370
   -2
100
AcDbLine
 10
50
 20
-51.5625
 11
50
 21
-73.125
  0
ENDBLK
  5
70
330
6E
100
AcDbEntity
  8
0
100
AcDbBlockEnd
  0
BLOCK
  5
72
330
71
100
AcDbEntity
  8
0
100
AcDbBlockBegin
  2
*D19
 70
    1
 10
0
 20
0
  3
*D19
  1

  0
LINE
  5
D7
100
AcDbEntity
  8
dimensions
  6
ByBlock
 62
    0
370
   -2
100
AcDbLine
 10
121.5625
 20
110
 11
193.125
 21
110
  0
LINE
  5
D8
100
AcDbEntity
  8
dimensions
  6
ByBlock
 62
    0
370
   -2
100
AcDbLine
 10
121.5625
 20
0
 11
193.125
 21
0
  0
LINE
  5
D9
100
AcDbEntity
  8
dimensions
  6
ByBlock
 62
    0
370
   -2
100
AcDbLine
 10
190
 20
110
 11
190
 21
0
  0
SOLID
  5
DA
100
AcDbEntity
  8
dimensions
  6
ByBlock
 62
    0
370
   -2
100
AcDbTrace
 10
190
 20
110
 30
0
 11
191.0407116444321
 21
103.75
 31
0
 12
188.9592883555679
 22
103.75
 32
0
 13
188.9592883555679
 23
103.75
 33
0
  0
SOLID
  5
DB
100
AcDbEntity
  8
dimensions
  6
ByBlock
 62
    0
370
   -2
100
AcDbTrace
 10
190
 20
0
 30
0
 11
188.9592883555679
 21
6.25
 31
0
 12
191.0407116444321
 22
6.25
 32
0
 13
191.0407116444321
 23
6.25
 33
0
  0
MTEXT
  5
DC
100
AcDbEntity
  8
dimensions
  6
CONTINUOUS
 62
    0
370
   -2
100
AcDbMText
 10
185.3125
 20
55
 30
0
 40
6.25
 41
0
 71
    5
 72
    1
  1

  7
standard
210
0
220
0
230
1
 50
90
 73
    2
 44
1
  0
ENDBLK
  5
73
330
71
100
AcDbEntity
  8
0
100
AcDbBlockEnd
  0
BLOCK
  5
75
330
74
100
AcDbEntity
  8
0
100
AcDbBlockBegin
  2
*D6
 70
    1
 10
0
 20
0
  3
*D6
  1

  0
LINE
  5
DD
100
AcDbEntity
  8
dimensions
  6
ByBlock
 62
    0
370
   -2
100
AcDbLine
 10
130
 20
-17.5
 11
130
 21
-52.5
  0
SOLID
  5
DE
100
AcDbEntity
  8
dimensions
  6
ByBlock
 62
    0
370
   -2
100
AcDbTrace
 10
130
 20
-30
 30
0
 11
128.9592883555679
 21
-23.75
 31
0
 12
131.0407116444321
 22
-23.75
 32
0
 13
131.0407116444321
 23
-23.75
 33
0
  0
SOLID
  5
DF
100
AcDbEntity
  8
dimensions
  6
ByBlock
 62
    0
370
   -2
100
AcDbTrace
 10
130
 20
-40
 30
0
 11
131.0407116444321
 21
-46.25
 31
0
 12
128.9592883555679
 22
-46.25
 32
0
 13
128.9592883555679
 23
-46.25
 33
0
  0
MTEXT
  5
E0
100
AcDbEntity
  8
dimensions
  6
CONTINUOUS
 62
    0
370
   -2
100
AcDbMText
 10
125.3125
 20
-35
 30
0
 40
6.25
 41
0
 71
    5
 72
    1
  1

  7
standard
210
0
220
0
230
1
 50
90
 73
    2
 44
1
  0
LINE
  5
E1
100
AcDbEntity
  8
dimensions
  6
ByBlock
 62
    0
370
   -2
100
AcDbLine
 10
111.5625
 20
-30
 11
133.125
 21
-30
  0
LINE
  5
E2
100
AcDbEntity
  8
dimensions
  6
ByBlock
 62
    0
370
   -2
100
AcDbLine
 10
111.5625
 20
-40
 11
133.125
 21
-40
  0
ENDBLK
  5
76
330
74
100
AcDbEntity
  8
0
100
AcDbBlockEnd
  0
BLOCK
  5
78
330
77
100
AcDbEntity
  8
0
100
AcDbBlockBegin
  2
*D10
 70
    1
 10
0
 20
0
  3
*D10
  1

  0
LINE
  5
E3
100
AcDbEntity
  8
dimensions
  6
ByBlock
 62
    0
370
   -2
100
AcDbLine
 10
-127.999976
 20
40.000024
 11
-127.999976
 21
-40
  0
SOLID
  5
E4
100
AcDbEntity
  8
dimensions
  6
ByBlock
 62
    0
370
   -2
100
AcDbTrace
 10
-127.999976
 20
40.000024
 30
0
 11
-126.9592643555679
 21
33.750024
 31
0
 12
-129.0406876444321
 22
33.750024
 32
0
 13
-129.0406876444321
 23
33.750024
 33
0
  0
SOLID
  5
E5
100
AcDbEntity
  8
dimensions
  6
ByBlock
 62
    0
370
   -2
100
AcDbTrace
 10
-127.999976
 20
-40
 30
0
 11
-129.0406876444321
 21
-33.75
 31
0
 12
-126.9592643555679
 22
-33.75
 32
0
 13
-126.9592643555679
 23
-33.75
 33
0
  0
MTEXT
  5
E6
100
AcDbEntity
  8
dimensions
  6
CONTINUOUS
 62
    0
370
   -2
100
AcDbMText
 10
-132.687476
 20
1.199999999812462e-05
 30
0
 40
6.25
 41
0
 71
    5
 72
    1
  1

  7
standard
210
0
220
0
230
1
 50
90
 73
    2
 44
1
  0
LINE
  5
E7
100
AcDbEntity
  8
dimensions
  6
ByBlock
 62
    0
370
   -2
100
AcDbLine
 10
-89.562476
 20
40.000024
 11
-131.124976
 21
40.000024
  0
LINE
  5
E8
100
AcDbEntity
  8
dimensions
  6
ByBlock
 62
    0
370
   -2
100
AcDbLine
 10
-89.562476
 20
-40
 11
-131.124976
 21
-40
  0
ENDBLK
  5
79
330
77
100
AcDbEntity
  8
0
100
AcDbBlockEnd
  0
BLOCK
  5
7B
330
7A
100
AcDbEntity
  8
0
100
AcDbBlockBegin
  2
*D2
 70
    1
 10
0
 20
0
  3
*D2
  1

  0
LINE
  5
E9
100
AcDbEntity
  8
dimensions
  6
CONTINUOUS
 62
    7
370
    0
100
AcDbLine
 10
0
 20
90
 11
-10
 21
80
  0
LINE
  5
EA
100
AcDbEntity
  8
dimensions
  6
CONTINUOUS
 62
    7
370
    0
100
AcDbLine
 10
-10
 20
80
 11
-140
 21
80
  0
SOLID
  5
EB
100
AcDbEntity
  8
dimensions
  6
CONTINUOUS
 62
    7
370
    0
100
AcDbTrace
 10
0
 20
90
 30
0
 11
-3.68352312137818
 21
84.84468835654634
 31
0
 12
-5.155311643453665
 22
86.31647687862181
 32
0
 13
-5.155311643453665
 23
86.31647687862181
 33
0
  0
ENDBLK
  5
7C
330
7A
100
AcDbEntity
  8
0
100
AcDbBlockEnd
  0
BLOCK
  5
7E
330
7D
100
AcDbEntity
  8
0
100
AcDbBlockBegin
  2
*D25
 70
    1
 10
0
 20
0
  3
*D25
  1

  0
LINE
  5
EC
100
AcDbEntity
  8
additional-dimensions
  6
ByBlock
 62
    0
370
   -2
100
AcDbLine
 10
72.5
 20
50
 11
37.5
 21
50
  0
SOLID
  5
ED
100
AcDbEntity
  8
additional-dimensions
  6
ByBlock
 62
    0
370
   -2
100
AcDbTrace
 10
60
 20
50
 30
0
 11
66.25
 21
51.0407116444321
 31
0
 12
66.25
 22
48.9592883555679
 32
0
 13
66.25
 23
48.9592883555679
 33
0
  0
SOLID
  5
EE
100
AcDbEntity
  8
additional-dimensions
  6
ByBlock
 62
    0
370
   -2
100
AcDbTrace
 10
50
 20
50
 30
0
 11
43.75
 21
48.9592883555679
 31
0
 12
43.75
 22
51.0407116444321
 32
0
 13
43.75
 23
51.0407116444321
 33
0
  0
MTEXT
  5
EF
100
AcDbEntity
  8
additional-dimensions
  6
CONTINUOUS
 62
    0
370
   -2
100
AcDbMText
 10
55
 20
54.6875
 30
0
 40
6.25
 41
0
 71
    5
 72
    1
  1

  7
standard
210
0
220
0
230
1
 50
360
 73
    2
 44
1
  0
LINE
  5
F0
100
AcDbEntity
  8
additional-dimensions
  6
ByBlock
 62
    0
370
   -2
100
AcDbLine
 10
60
 20
41.5625
 11
60
 21
53.125
  0
LINE
  5
F1
100
AcDbEntity
  8
additional-dimensions
  6
ByBlock
 62
    0
370
   -2
100
AcDbLine
 10
50
 20
41.5625
 11
50
 21
53.125
  0
ENDBLK
  5
7F
330
7D
100
AcDbEntity
  8
0
100
AcDbBlockEnd
  0
BLOCK
  5
81
330
80
100
AcDbEntity
  8
0
100
AcDbBlockBegin
  2
*D9
 70
    1
 10
0
 20
0
  3
*D9
  1

  0
LINE
  5
F2
100
AcDbEntity
  8
dimensions
  6
ByBlock
 62
    0
370
   -2
100
AcDbLine
 10
-140
 20
-27.5
 11
-140
 21
-62.5
  0
SOLID
  5
F3
100
AcDbEntity
  8
dimensions
  6
ByBlock
 62
    0
370
   -2
100
AcDbTrace
 10
-140
 20
-40
 30
0
 11
-141.0407116444321
 21
-33.75
 31
0
 12
-138.9592883555679
 22
-33.75
 32
0
 13
-138.9592883555679
 23
-33.75
 33
0
  0
SOLID
  5
F4
100
AcDbEntity
  8
dimensions
  6
ByBlock
 62
    0
370
   -2
100
AcDbTrace
 10
-140
 20
-50
 30
0
 11
-138.9592883555679
 21
-56.25
 31
0
 12
-141.0407116444321
 22
-56.25
 32
0
 13
-141.0407116444321
 23
-56.25
 33
0
  0
MTEXT
  5
F5
100
AcDbEntity
  8
dimensions
  6
CONTINUOUS
 62
    0
370
   -2
100
AcDbMText
 10
-144.6875
 20
-45
 30
0
 40
6.25
 41
0
 71
    5
 72
    1
  1

  7
standard
210
0
220
0
230
1
 50
90
 73
    2
 44
1
  0
LINE
  5
F6
100
AcDbEntity
  8
dimensions
  6
ByBlock
 62
    0
370
   -2
100
AcDbLine
 10
-121.5625
 20
-40
 11
-143.125
 21
-40
  0
LINE
  5
F7
100
AcDbEntity
  8
dimensions
  6
ByBlock
 62
    0
370
   -2
100
AcDbLine
 10
-121.5625
 20
-50
 11
-143.125
 21
-50
  0
ENDBLK
  5
82
330
80
100
AcDbEntity
  8
0
100
AcDbBlockEnd
  0
BLOCK
  5
84
330
83
100
AcDbEntity
  8
0
100
AcDbBlockBegin
  2
*D5
 70
    1
 10
0
 20
0
  3
*D5
  1

  0
LINE
  5
F8
100
AcDbEntity
  8
dimensions
  6
CONTINUOUS
 62
    7
370
    0
100
AcDbLine
 10
14
 20
65
 11
24
 21
75
  0
LINE
  5
F9
100
AcDbEntity
  8
dimensions
  6
CONTINUOUS
 62
    7
370
    0
100
AcDbLine
 10
24
 20
75
 11
124
 21
75
  0
SOLID
  5
FA
100
AcDbEntity
  8
dimensions
  6
CONTINUOUS
 62
    7
370
    0
100
AcDbTrace
 10
14
 20
65
 30
0
 11
17.68352312137818
 21
70.15531164345366
 31
0
 12
19.15531164345366
 22
68.68352312137819
 32
0
 13
19.15531164345366
 23
68.68352312137819
 33
0
  0
ENDBLK
  5
85
330
83
100
AcDbEntity
  8
0
100
AcDbBlockEnd
  0
BLOCK
  5
87
330
86
100
AcDbEntity
  8
0
100
AcDbBlockBegin
  2
*D24
 70
    1
 10
0
 20
0
  3
*D24
  1

  0
LINE
  5
FB
100
AcDbEntity
  8
additional-dimensions
  6
CONTINUOUS
 62
    7
370
    0
100
AcDbLine
 10
-40
 20
0
 11
-110
 21
60
  0
LINE
  5
FC
100
AcDbEntity
  8
additional-dimensions
  6
CONTINUOUS
 62
    7
370
    0
100
AcDbLine
 10
-110
 20
60
 11
-170
 21
60
  0
SOLID
  5
FD
100
AcDbEntity
  8
additional-dimensions
  6
CONTINUOUS
 62
    7
370
    0
100
AcDbTrace
 10
-40
 20
0
 30
0
 11
-45.42263992523469
 21
3.277278896906288
 31
0
 12
-44.06806760433152
 22
4.857613271293323
 32
0
 13
-44.06806760433152
 23
4.857613271293323
 33
0
  0
ENDBLK
  5
88
330
86
100
AcDbEntity
  8
0
100
AcDbBlockEnd
  0
BLOCK
  5
8A
330
89
100
AcDbEntity
  8
0
100
AcDbBlockBegin
  2
*D26
 70
    1
 10
0
 20
0
  3
*D26
  1

  0
LINE
  5
FE
100
AcDbEntity
  8
additional-dimensions
  6
CONTINUOUS
 62
    7
370
    0
100
AcDbLine
 10
50
 20
0
 11
-90
 21
140
  0
LINE
  5
FF
100
AcDbEntity
  8
additional-dimensions
  6
CONTINUOUS
 62
    7
370
    0
100
AcDbLine
 10
-90
 20
140
 11
-140
 21
140
  0
SOLID
  5
100
100
AcDbEntity
  8
additional-dimensions
  6
CONTINUOUS
 62
    7
370
    0
100
AcDbTrace
 10
50
 20
0
 30
0
 11
44.84468835654634
 21
3.683523121378181
 31
0
 12
46.31647687862182
 22
5.155311643453666
 32
0
 13
46.31647687862182
 23
5.155311643453666
 33
0
  0
ENDBLK
  5
8B
330
89
100
AcDbEntity
  8
0
100
AcDbBlockEnd
  0
BLOCK
  5
8D
330
8C
100
AcDbEntity
  8
0
100
AcDbBlockBegin
  2
*D1
 70
    1
 10
0
 20
0
  3
*D1
  1

  0
ENDBLK
  5
8E
330
8C
100
AcDbEntity
  8
0
100
AcDbBlockEnd
  0
BLOCK
  5
90
330
8F
100
AcDbEntity
  8
0
100
AcDbBlockBegin
  2
*D18
 70
    1
 10
0
 20
0
  3
*D18
  1

  0
LINE
  5
101
100
AcDbEntity
  8
axis
  6
CONTINUOUS
 62
    7
370
    0
100
AcDbLine
 10
0
 20
250
 11
0
 21
-40
  0
SOLID
  5
102
100
AcDbEntity
  8
axis
  6
CONTINUOUS
 62
    7
370
    0
100
AcDbTrace
 10
0
 20
250
 30
0
 11
1.040711644432101
 21
243.75
 31
0
 12
-1.040711644432102
 22
243.75
 32
0
 13
-1.040711644432102
 23
243.75
 33
0
  0
ENDBLK
  5
91
330
8F
100
AcDbEntity
  8
0
100
AcDbBlockEnd
  0
BLOCK
  5
93
330
92
100
AcDbEntity
  8
0
100
AcDbBlockBegin
  2
*D17
 70
    1
 10
0
 20
0
  3
*D17
  1

  0
LINE
  5
103
100
AcDbEntity
  8
axis
  6
CONTINUOUS
 62
    7
370
    0
100
AcDbLine
 10
510
 20
0
 11
0
 21
0
  0
SOLID
  5
104
100
AcDbEntity
  8
axis
  6
CONTINUOUS
 62
    7
370
    0
100
AcDbTrace
 10
510
 20
0
 30
0
 11
503.75
 21
-1.040711644432101
 31
0
 12
503.75
 22
1.040711644432101
 32
0
 13
503.75
 23
1.040711644432101
 33
0
  0
ENDBLK
  5
94
330
92
100
AcDbEntity
  8
0
100
AcDbBlockEnd
  0
BLOCK
  5
96
330
95
100
AcDbEntity
  8
0
100
AcDbBlockBegin
  2
*D28
 70
    1
 10
0
 20
0
  3
*D28
  1

  0
LINE
  5
105
100
AcDbEntity
  8
additional-dimensions
  6
CONTINUOUS
 62
    7
370
    0
100
AcDbLine
 10
-30
 20
0
 11
-80
 21
-200
  0
LINE
  5
106
100
AcDbEntity
  8
additional-dimensions
  6
CONTINUOUS
 62
    7
370
    0
100
AcDbLine
 10
-80
 20
-200
 11
-160
 21
-200
  0
SOLID
  5
107
100
AcDbEntity
  8
additional-dimensions
  6
CONTINUOUS
 62
    7
370
    0
100
AcDbTrace
 10
-30
 20
0
 30
0
 11
-30.50620905981736
 21
-6.315800275073254
 31
0
 12
-32.5254862531368
 22
-5.810980976743395
 32
0
 13
-32.5254862531368
 23
-5.810980976743395
 33
0
  0
ENDBLK
  5
97
330
95
100
AcDbEntity
  8
0
100
AcDbBlockEnd
  0
BLOCK
  5
99
330
98
100
AcDbEntity
  8
0
100
AcDbBlockBegin
  2
*D11
 70
    1
 10
0
 20
0
  3
*D11
  1

  0
LINE
  5
108
100
AcDbEntity
  8
dimensions
  6
ByBlock
 62
    0
370
   -2
100
AcDbLine
 10
-89.562476
 20
50
 11
-243.125
 21
50.00000000000002
  0
LINE
  5
109
100
AcDbEntity
  8
dimensions
  6
ByBlock
 62
    0
370
   -2
100
AcDbLine
 10
-89.562476
 20
-50
 11
-243.125
 21
-49.99999999999998
  0
LINE
  5
10A
100
AcDbEntity
  8
dimensions
  6
ByBlock
 62
    0
370
   -2
100
AcDbLine
 10
-240
 20
50.00000000000002
 11
-240
 21
-49.99999999999998
  0
SOLID
  5
10B
100
AcDbEntity
  8
dimensions
  6
ByBlock
 62
    0
370
   -2
100
AcDbTrace
 10
-240
 20
50.00000000000002
 30
0
 11
-238.9592883555679
 21
43.75000000000002
 31
0
 12
-241.0407116444321
 22
43.75000000000002
 32
0
 13
-241.0407116444321
 23
43.75000000000002
 33
0
  0
SOLID
  5
10C
100
AcDbEntity
  8
dimensions
  6
ByBlock
 62
    0
370
   -2
100
AcDbTrace
 10
-240
 20
-49.99999999999998
 30
0
 11
-241.0407116444321
 21
-43.74999999999998
 31
0
 12
-238.9592883555679
 22
-43.74999999999998
 32
0
 13
-238.9592883555679
 23
-43.74999999999998
 33
0
  0
MTEXT
  5
10D
100
AcDbEntity
  8
dimensions
  6
CONTINUOUS
 62
    0
370
   -2
100
AcDbMText
 10
-244.6875
 20
2.131628207280301e-14
 30
0
 40
6.25
 41
0
 71
    5
 72
    1
  1

  7
standard
210
0
220
0
230
1
 50
90
 73
    2
 44
1
  0
ENDBLK
  5
9A
330
98
100
AcDbEntity
  8
0
100
AcDbBlockEnd
  0
BLOCK
  5
9C
330
9B
100
AcDbEntity
  8
0
100
AcDbBlockBegin
  2
*D14
 70
    1
 10
0
 20
0
  3
*D14
  1

  0
LINE
  5
10E
100
AcDbEntity
  8
dimensions
  6
ByBlock
 62
    0
370
   -2
100
AcDbLine
 10
-2.870265935501609e-16
 20
-51.56249999999999
 11
-4.24799358454238e-15
 21
-73.12499999999999
  0
LINE
  5
10F
100
AcDbEntity
  8
dimensions
  6
ByBlock
 62
    0
370
   -2
100
AcDbLine
 10
-40
 20
-51.56250000000001
 11
-40.00000000000001
 21
-73.125
  0
LINE
  5
110
100
AcDbEntity
  8
dimensions
  6
ByBlock
 62
    0
370
   -2
100
AcDbLine
 10
-3.673940397442058e-15
 20
-69.99999999999999
 11
-40.00000000000001
 21
-70
  0
SOLID
  5
111
100
AcDbEntity
  8
dimensions
  6
ByBlock
 62
    0
370
   -2
100
AcDbTrace
 10
-3.673940397442058e-15
 20
-69.99999999999999
 30
0
 11
-6.250000000000004
 21
-71.04071164443209
 31
0
 12
-6.250000000000004
 22
-68.95928835556789
 32
0
 13
-6.250000000000004
 23
-68.95928835556789
 33
0
  0
SOLID
  5
112
100
AcDbEntity
  8
dimensions
  6
ByBlock
 62
    0
370
   -2
100
AcDbTrace
 10
-40.00000000000001
 20
-70
 30
0
 11
-33.75000000000001
 21
-68.95928835556791
 31
0
 12
-33.75000000000001
 22
-71.04071164443211
 32
0
 13
-33.75000000000001
 23
-71.04071164443211
 33
0
  0
MTEXT
  5
113
100
AcDbEntity
  8
dimensions
  6
CONTINUOUS
 62
    0
370
   -2
100
AcDbMText
 10
-20.00000000000001
 20
-65.3125
 30
0
 40
6.25
 41
0
 71
    5
 72
    1
  1

  7
standard
210
0
220
0
230
1
 50
360
 73
    2
 44
1
  0
ENDBLK
  5
9D
330
9B
100
AcDbEntity
  8
0
100
AcDbBlockEnd
  0
BLOCK
  5
9F
330
9E
100
AcDbEntity
  8
0
100
AcDbBlockBegin
  2
*D8
 70
    1
 10
0
 20
0
  3
*D8
  1

  0
LINE
  5
114
100
AcDbEntity
  8
dimensions
  6
CONTINUOUS
 62
    7
370
    0
100
AcDbLine
 10
130
 20
-35
 11
150
 21
-35
  0
LINE
  5
115
100
AcDbEntity
  8
dimensions
  6
CONTINUOUS
 62
    7
370
    0
100
AcDbLine
 10
150
 20
-35
 11
190
 21
-130
  0
LINE
  5
116
100
AcDbEntity
  8
dimensions
  6
CONTINUOUS
 62
    7
370
    0
100
AcDbLine
 10
190
 20
-130
 11
390
 21
-130
  0
SOLID
  5
117
100
AcDbEntity
  8
dimensions
  6
CONTINUOUS
 62
    7
370
    0
100
AcDbTrace
 10
130
 20
-35
 30
0
 11
136.25
 21
-33.9592883555679
 31
0
 12
136.25
 22
-36.0407116444321
 32
0
 13
136.25
 23
-36.0407116444321
 33
0
  0
ENDBLK
  5
A0
330
9E
100
AcDbEntity
  8
0
100
AcDbBlockEnd
  0
BLOCK
  5
A2
330
A1
100
AcDbEntity
  8
0
100
AcDbBlockBegin
  2
*D21
 70
    1
 10
0
 20
0
  3
*D21
  1

  0
LINE
  5
118
100
AcDbEntity
  8
dimensions
  6
ByBlock
 62
    0
370
   -2
100
AcDbLine
 10
-18.4375
 20
90
 11
-16.875
 21
90
  0
LINE
  5
119
100
AcDbEntity
  8
dimensions
  6
ByBlock
 62
    0
370
   -2
100
AcDbLine
 10
21.5625
 20
90
 11
23.125
 21
90
  0
LINE
  5
11A
100
AcDbEntity
  8
dimensions
  6
ByBlock
 62
    0
370
   -2
100
AcDbLine
 10
-20
 20
90
 11
20
 21
90
  0
SOLID
  5
11B
100
AcDbEntity
  8
dimensions
  6
ByBlock
 62
    0
370
   -2
100
AcDbTrace
 10
-20
 20
90
 30
0
 11
-13.75
 21
91.04071164443209
 31
0
 12
-13.75
 22
88.95928835556789
 32
0
 13
-13.75
 23
88.95928835556789
 33
0
  0
SOLID
  5
11C
100
AcDbEntity
  8
dimensions
  6
ByBlock
 62
    0
370
   -2
100
AcDbTrace
 10
20
 20
90
 30
0
 11
13.75
 21
88.95928835556789
 31
0
 12
13.75
 22
91.04071164443211
 32
0
 13
13.75
 23
91.04071164443211
 33
0
  0
MTEXT
  5
11D
100
AcDbEntity
  8
dimensions
  6
CONTINUOUS
 62
    0
370
   -2
100
AcDbMText
 10
2.870265935501609e-16
 20
94.6875
 30
0
 40
6.25
 41
0
 71
    5
 72
    1
  1

  7
standard
210
0
220
0
230
1
 50
0
 73
    2
 44
1
  0
ENDBLK
  5
A3
330
A1
100
AcDbEntity
  8
0
100
AcDbBlockEnd
  0
BLOCK
  5
A5
330
A4
100
AcDbEntity
  8
0
100
AcDbBlockBegin
  2
*D22
 70
    1
 10
0
 20
0
  3
*D22
  1

  0
LINE
  5
11E
100
AcDbEntity
  8
dimensions
  6
ByBlock
 62
    0
370
   -2
100
AcDbLine
 10
-30
 20
111.5625
 11
-30
 21
123.125
  0
LINE
  5
11F
100
AcDbEntity
  8
dimensions
  6
ByBlock
 62
    0
370
   -2
100
AcDbLine
 10
30
 20
111.5625
 11
30
 21
123.125
  0
LINE
  5
120
100
AcDbEntity
  8
dimensions
  6
ByBlock
 62
    0
370
   -2
100
AcDbLine
 10
-30
 20
120
 11
30
 21
120
  0
SOLID
  5
121
100
AcDbEntity
  8
dimensions
  6
ByBlock
 62
    0
370
   -2
100
AcDbTrace
 10
-30
 20
120
 30
0
 11
-23.75
 21
121.0407116444321
 31
0
 12
-23.75
 22
118.9592883555679
 32
0
 13
-23.75
 23
118.9592883555679
 33
0
  0
SOLID
  5
122
100
AcDbEntity
  8
dimensions
  6
ByBlock
 62
    0
370
   -2
100
AcDbTrace
 10
30
 20
120
 30
0
 11
23.75
 21
118.9592883555679
 31
0
 12
23.75
 22
121.0407116444321
 32
0
 13
23.75
 23
121.0407116444321
 33
0
  0
MTEXT
  5
123
100
AcDbEntity
  8
dimensions
  6
CONTINUOUS
 62
    0
370
   -2
100
AcDbMText
 10
2.870265935501609e-16
 20
124.6875
 30
0
 40
6.25
 41
0
 71
    5
 72
    1
  1

  7
standard
210
0
220
0
230
1
 50
0
 73
    2
 44
1
  0
ENDBLK
  5
A6
330
A4
100
AcDbEntity
  8
0
100
AcDbBlockEnd
  0
BLOCK
  5
A8
330
A7
100
AcDbEntity
  8
0
100
AcDbBlockBegin
  2
*D12
 70
    1
 10
0
 20
0
  3
*D12
  1

  0
LINE
  5
124
100
AcDbEntity
  8
dimensions
  6
CONTINUOUS
 62
    7
370
    0
100
AcDbLine
 10
-140
 20
-45
 11
-150
 21
-45
  0
LINE
  5
125
100
AcDbEntity
  8
dimensions
  6
CONTINUOUS
 62
    7
370
    0
100
AcDbLine
 10
-150
 20
-45
 11
-160
 21
-120
  0
LINE
  5
126
100
AcDbEntity
  8
dimensions
  6
CONTINUOUS
 62
    7
370
    0
100
AcDbLine
 10
-160
 20
-120
 11
-290
 21
-120
  0
SOLID
  5
127
100
AcDbEntity
  8
dimensions
  6
CONTINUOUS
 62
    7
370
    0
100
AcDbTrace
 10
-140
 20
-45
 30
0
 11
-146.25
 21
-46.0407116444321
 31
0
 12
-146.25
 22
-43.9592883555679
 32
0
 13
-146.25
 23
-43.9592883555679
 33
0
  0
ENDBLK
  5
A9
330
A7
100
AcDbEntity
  8
0
100
AcDbBlockEnd
  0
ENDSEC
  0
SECTION
  2
ENTITIES
  0
HATCH
  5
128
100
AcDbEntity
  8
out-part
  6
ByLayer
 62
  256
370
   -1
100
AcDbHatch
 10
0
 20
0
 30
0
210
0
220
0
230
1
  2
ansi31
 70
    0
 71
    0
 91
    1
 92
    0
 93
   12
 72
    1
 10
20
 20
110
 11
20
 21
60
 72
    1
 10
20
 20
60
 11
10
 21
60
 72
    1
 10
10
 20
60
 11
10
 21
24.44444444444444
 72
    1
 10
10
 20
24.44444444444444
 11
50
 21
20
 72
    1
 10
50
 20
20
 11
50
 21
30
 72
    1
 10
50
 20
30
 11
110
 21
30
 72
    1
 10
110
 20
30
 11
110
 21
40
 72
    1
 10
110
 20
40
 11
110
 21
40
 72
    1
 10
110
 20
40
 11
50
 21
40
 72
    1
 10
50
 20
40
 11
30
 21
42.22222222222222
 72
    1
 10
30
 20
42.22222222222222
 11
30
 21
110
 72
    1
 10
30
 20
110
 11
20
 21
110
 97
    0
 75
    0
 76
    1
 52
0
 41
3
 77
    0
 78
    0
 98
    0
  0
HATCH
  5
129
100
AcDbEntity
  8
out-part
  6
ByLayer
 62
  256
370
   -1
100
AcDbHatch
 10
0
 20
0
 30
0
210
0
220
0
230
1
  2
ansi31
 70
    0
 71
    0
 91
    1
 92
    0
 93
   12
 72
    1
 10
-20
 20
110
 11
-20
 21
60
 72
    1
 10
-20
 20
60
 11
-10
 21
60
 72
    1
 10
-10
 20
60
 11
-10
 21
26.66666666666666
 72
    1
 10
-10
 20
26.66666666666666
 11
-40
 21
30
 72
    1
 10
-40
 20
30
 11
-40
 21
40
 72
    1
 10
-40
 20
40
 11
-120
 21
40
 72
    1
 10
-120
 20
40
 11
-120
 21
50
 72
    1
 10
-120
 20
50
 11
-120
 21
50
 72
    1
 10
-120
 20
50
 11
-40
 21
50
 72
    1
 10
-40
 20
50
 11
-30
 21
48.88888888888889
 72
    1
 10
-30
 20
48.88888888888889
 11
-30
 21
110
 72
    1
 10
-30
 20
110
 11
-20
 21
110
 97
    0
 75
    0
 76
    1
 52
0
 41
3
 77
    0
 78
    0
 98
    0
  0
HATCH
  5
12A
100
AcDbEntity
  8
out-part
  6
ByLayer
 62
  256
370
   -1
100
AcDbHatch
 10
0
 20
0
 30
0
210
0
220
0
230
1
  2
ansi31
 70
    0
 71
    0
 91
    1
 92
    0
 93
   11
 72
    1
 10
50
 20
-20
 11
50
 21
-30
 72
    1
 10
50
 20
-30
 11
110
 21
-30
 72
    1
 10
110
 20
-30
 11
110
 21
-40
 72
    1
 10
110
 20
-40
 11
50
 21
-40
 72
    1
 10
50
 20
-40
 11
-40
 21
-50
 72
    1
 10
-40
 20
-50
 11
-120
 21
-50
 72
    1
 10
-120
 20
-50
 11
-120
 21
-50
 72
    1
 10
-120
 20
-50
 11
-120
 21
-40
 72
    1
 10
-120
 20
-40
 11
-40
 21
-40
 72
    1
 10
-40
 20
-40
 11
-40
 21
-30
 72
    1
 10
-40
 20
-30
 11
50
 21
-20
 97
    0
 75
    0
 76
    1
 52
0
 41
3
 77
    0
 78
    0
 98
    0
  0
LEADER
  5
12B
100
AcDbEntity
  8
dimensions
  6
ByLayer
 62
  256
370
   -1
100
AcDbLeader
  3
Standard
 71
    1
 72
    0
 73
    3
 74
    0
 75
    0
 40
1
 41
10
 76
0
 76
0
  0
LINE
  5
12C
100
AcDbEntity
  8
auxiliary
  6
DASHDOT2
 62
  256
370
   -1
100
AcDbLine
 10
0
 20
110
 11
0
 21
0
  0
LWPOLYLINE
  5
12D
100
AcDbEntity
  8
0
  6
ByLayer
 62
  256
370
   -1
100
AcDbPolyline
 90
    4
 70
    1
 43
0
 10
-10
 20
60
 10
10
 20
60
 10
10
 20
0
 10
-10
 20
0
  0
LWPOLYLINE
  5
12E
100
AcDbEntity
  8
0
  6
ByLayer
 62
  256
370
   -1
100
AcDbPolyline
 90
    4
 70
    1
 43
0
 10
-120
 20
40
 10
-40
 20
40
 10
-40
 20
-40
 10
-120
 20
-40
  0
LINE
  5
12F
100
AcDbEntity
  8
auxiliary
  6
DASHDOT2
 62
  256
370
   -1
100
AcDbLine
 10
-120
 20
0
 11
90
 21
0
  0
LINE
  5
130
100
AcDbEntity
  8
out-part
  6
ByLayer
 62
  256
370
   -1
100
AcDbLine
 10
50
 20
30
 11
50
 21
40
  0
LINE
  5
131
100
AcDbEntity
  8
out-part
  6
ByLayer
 62
  256
370
   -1
100
AcDbLine
 10
30
 20
50
 11
30
 21
110
  0
LINE
  5
132
100
AcDbEntity
  8
out-part
  6
ByLayer
 62
  256
370
   -1
100
AcDbLine
 10
-30
 20
110
 11
-30
 21
50
  0
LINE
  5
133
100
AcDbEntity
  8
out-part
  6
ByLayer
 62
  256
370
   -1
100
AcDbLine
 10
-120
 20
50
 11
-120
 21
40
  0
LINE
  5
134
100
AcDbEntity
  8
out-part
  6
ByLayer
 62
  256
370
   -1
100
AcDbLine
 10
-30
 20
110
 11
-20
 21
110
  0
LINE
  5
135
100
AcDbEntity
  8
out-part
  6
ByLayer
 62
  256
370
   -1
100
AcDbLine
 10
-20
 20
110
 11
-20
 21
60
  0
LINE
  5
136
100
AcDbEntity
  8
out-part
  6
ByLayer
 62
  256
370
   -1
100
AcDbLine
 10
20
 20
60
 11
20
 21
110
  0
LINE
  5
137
100
AcDbEntity
  8
out-part
  6
ByLayer
 62
  256
370
   -1
100
AcDbLine
 10
-20
 20
60
 11
-10
 21
60
  0
LINE
  5
138
100
AcDbEntity
  8
out-part
  6
ByLayer
 62
  256
370
   -1
100
AcDbLine
 10
20
 20
60
 11
10
 21
60
  0
LINE
  5
139
100
AcDbEntity
  8
out-part
  6
ByLayer
 62
  256
370
   -1
100
AcDbLine
 10
20
 20
110
 11
30
 21
110
  0
LINE
  5
13A
100
AcDbEntity
  8
internal
  6
ByLayer
 62
  256
370
   -1
100
AcDbLine
 10
-120
 20
40
 11
-120
 21
-40
  0
LINE
  5
13B
100
AcDbEntity
  8
internal
  6
ByLayer
 62
  256
370
   -1
100
AcDbLine
 10
-10
 20
60
 11
10
 21
60
  0
LINE
  5
13C
100
AcDbEntity
  8
internal
  6
ByLayer
 62
  256
370
   -1
100
AcDbLine
 10
-20
 20
110
 11
20
 21
110
  0
MTEXT
  5
13D
100
AcDbEntity
  8
dimensions
  6
CONTINUOUS
 62
  256
370
   -1
100
AcDbMText
 10
-210
 20
20
 30
0
 40
30
 41
70.00000000000186
 71
    1
 72
    1
  1
POD
  7
standard
210
0
220
0
230
1
 50
0
 73
    2
 44
1
  0
MTEXT
  5
13E
100
AcDbEntity
  8
dimensions
  6
CONTINUOUS
 62
  256
370
   -1
100
AcDbMText
 10
-272.000024
 20
30
 30
0
 40
30
 41
20
 71
    1
 72
    1
  1
M
  7
standard
210
0
220
0
230
1
 50
0
 73
    2
 44
1
  0
LINE
  5
13F
100
AcDbEntity
  8
out-part
  6
ByLayer
 62
  256
370
   -1
100
AcDbLine
 10
50
 20
40
 11
110
 21
40
  0
MTEXT
  5
140
100
AcDbEntity
  8
dimensions
  6
ByLayer
 62
  256
370
   -1
100
AcDbMText
 10
130
 20
50
 30
0
 40
30
 41
33.3333333333352
 71
    1
 72
    1
  1
G1
  7
standard
210
0
220
0
230
1
 50
0
 73
    2
 44
1
  0
MTEXT
  5
141
100
AcDbEntity
  8
dimensions
  6
ByLayer
 62
  256
370
   -1
100
AcDbMText
 10
-20
 20
160
 30
0
 40
30
 41
36.66666666666666
 71
    1
 72
    1
  1
M1
  7
standard
210
0
220
0
230
1
 50
0
 73
    2
 44
1
  0
LEADER
  5
142
100
AcDbEntity
  8
dimensions
  6
ByLayer
 62
  256
370
   -1
100
AcDbLeader
  3
Standard
 71
    1
 72
    0
 73
    3
 74
    0
 75
    0
 40
1
 41
10
 76
3
 76
3
 10
0
 20
90
 30
0
 10
-10
 20
80
 30
0
 10
-140
 20
80
 30
0
  0
LEADER
  5
143
100
AcDbEntity
  8
dimensions
  6
ByLayer
 62
  256
370
   -1
100
AcDbLeader
  3
Standard
 71
    1
 72
    0
 73
    3
 74
    0
 75
    0
 40
1
 41
10
 76
0
 76
0
  0
MTEXT
  5
144
100
AcDbEntity
  8
dimensions
  6
ByLayer
 62
  256
370
   -1
100
AcDbMText
 10
-133.3333333333333
 20
120
 30
0
 40
30
 41
86.66666666666853
 71
    1
 72
    1
  1
POD1
  7
standard
210
0
220
0
230
1
 50
0
 73
    2
 44
1
  0
MTEXT
  5
145
100
AcDbEntity
  8
dimensions
  6
ByLayer
 62
  256
370
   -1
100
AcDbMText
 10
-30
 20
-80
 30
0
 40
30
 41
16.66666666666853
 71
    1
 72
    1
  1
G
  7
standard
210
0
220
0
230
1
 50
0
 73
    2
 44
1
  0
MTEXT
  5
146
100
AcDbEntity
  8
dimensions
  6
ByLayer
 62
  256
370
   -1
100
AcDbMText
 10
-100
 20
-90
 30
0
 40
30
 41
16.66666666666667
 71
    1
 72
    1
  1
H
  7
standard
210
0
220
0
230
1
 50
0
 73
    2
 44
1
  0
LWPOLYLINE
  5
147
100
AcDbEntity
  8
0
  6
ByLayer
 62
  256
370
   -1
100
AcDbPolyline
 90
    4
 70
    1
 43
0
 10
-40
 20
30
 10
50
 20
20
 10
50
 20
-20
 10
-40
 20
-30
  0
LWPOLYLINE
  5
148
100
AcDbEntity
  8
0
  6
ByLayer
 62
  256
370
   -1
100
AcDbPolyline
 90
    4
 70
    1
 43
0
 10
50
 20
30
 10
110
 20
30
 10
110
 20
-30
 10
50
 20
-30
  0
LWPOLYLINE
  5
149
100
AcDbEntity
  8
0
  6
ByLayer
 62
  256
370
   -1
100
AcDbPolyline
 90
    4
 70
    1
 43
0
 10
-120
 20
50
 10
-40
 20
50
 10
-40
 20
-50
 10
-120
 20
-50
  0
LWPOLYLINE
  5
14A
100
AcDbEntity
  8
0
  6
ByLayer
 62
  256
370
   -1
100
AcDbPolyline
 90
    4
 70
    1
 43
0
 10
110
 20
-40
 10
50
 20
-40
 10
50
 20
40
 10
110
 20
40
  0
LWPOLYLINE
  5
14B
100
AcDbEntity
  8
0
  6
ByLayer
 62
  256
370
   -1
100
AcDbPolyline
 90
    4
 70
    1
 43
0
 10
-30
 20
110
 10
30
 20
110
 10
30
 20
30
 10
-30
 20
40
  0
LWPOLYLINE
  5
14C
100
AcDbEntity
  8
0
  6
ByLayer
 62
  256
370
   -1
100
AcDbPolyline
 90
    4
 70
    1
 43
0
 10
20
 20
60
 10
-20
 20
60
 10
-20
 20
110
 10
20
 20
110
  0
DIMENSION
  5
14D
100
AcDbEntity
  8
dimensions
  6
ByLayer
 62
  256
370
   -1
100
AcDbDimension
  2
*D4
 10
20
 20
65
 30
0
 11
15
 21
69.6875
 31
0
 70
   33
  1
 
 71
    5
  3
Standard
 53
0
210
0
220
0
230
1
100
AcDbAlignedDimension
 13
10
 23
60
 33
0
 14
20
 24
60
 34
0
  0
LEADER
  5
14E
100
AcDbEntity
  8
dimensions
  6
ByLayer
 62
  256
370
   -1
100
AcDbLeader
  3
Standard
 71
    1
 72
    0
 73
    3
 74
    0
 75
    0
 40
1
 41
10
 76
3
 76
3
 10
14
 20
65
 30
0
 10
24
 20
75
 30
0
 10
124
 20
75
 30
0
  0
MTEXT
  5
14F
100
AcDbEntity
  8
dimensions
  6
ByLayer
 62
  256
370
   -1
100
AcDbMText
 10
43.33333333333333
 20
110
 30
0
 40
30
 41
106.6666666666681
 71
    1
 72
    1
  1
PThk1
  7
standard
210
0
220
0
230
1
 50
0
 73
    2
 44
1
  0
MTEXT
  5
150
100
AcDbEntity
  8
dimensions
  6
ByLayer
 62
  256
370
   -1
100
AcDbMText
 10
203.3333333333333
 20
100
 30
0
 40
30
 41
33.33333333333334
 71
    1
 72
    1
  1
H1
  7
standard
210
0
220
0
230
1
 50
0
 73
    2
 44
1
  0
MTEXT
  5
151
100
AcDbEntity
  8
dimensions
  6
ByLayer
 62
  256
370
   -1
100
AcDbMText
 10
250
 20
20
 30
0
 40
30
 41
93.33333333333519
 71
    1
 72
    1
  1
POD2
  7
standard
210
0
220
0
230
1
 50
0
 73
    2
 44
1
  0
DIMENSION
  5
152
100
AcDbEntity
  8
dimensions
  6
ByLayer
 62
  256
370
   -1
100
AcDbDimension
  2
*D6
 10
130
 20
-40
 30
0
 11
125.3125
 21
-35
 31
0
 70
   32
  1
 
 71
    5
 72
    0
  3
Standard
 53
0
210
0
220
0
230
1
100
AcDbAlignedDimension
 13
110
 23
-30
 33
0
 14
110
 24
-40
 34
0
 50
90
100
AcDbRotatedDimension
  0
DIMENSION
  5
153
100
AcDbEntity
  8
dimensions
  6
ByLayer
 62
  256
370
   -1
100
AcDbDimension
  2
*D7
 10
230
 20
-40.00000000000001
 30
0
 11
225.3125
 21
7.105427357601002e-15
 31
0
 70
   32
  1
 
 71
    5
 72
    0
  3
Standard
 53
0
210
0
220
0
230
1
100
AcDbAlignedDimension
 13
110
 23
40
 33
0
 14
110
 24
-40
 34
0
 50
90
100
AcDbRotatedDimension
  0
LEADER
  5
154
100
AcDbEntity
  8
dimensions
  6
ByLayer
 62
  256
370
   -1
100
AcDbLeader
  3
Standard
 71
    1
 72
    0
 73
    3
 74
    0
 75
    0
 40
1
 41
10
 76
4
 76
4
 10
130
 20
-35
 30
0
 10
150
 20
-35
 30
0
 10
190
 20
-130
 30
0
 10
390
 20
-130
 30
0
  0
MTEXT
  5
155
100
AcDbEntity
  8
dimensions
  6
ByLayer
 62
  256
370
   -1
100
AcDbMText
 10
240
 20
-80
 30
0
 40
30
 41
113.3333333333347
 71
    1
 72
    1
  1
PThk2
  7
standard
210
0
220
0
230
1
 50
0
 73
    2
 44
1
  0
LINE
  5
156
100
AcDbEntity
  8
internal
  6
ByLayer
 62
  256
370
   -1
100
AcDbLine
 10
-40
 20
30
 11
-40
 21
-30
  0
LINE
  5
157
100
AcDbEntity
  8
internal
  6
ByLayer
 62
  256
370
   -1
100
AcDbLine
 10
110
 20
30
 11
110
 21
-30
  0
LINE
  5
158
100
AcDbEntity
  8
internal
  6
ByLayer
 62
  256
370
   -1
100
AcDbLine
 10
50
 20
20
 11
50
 21
-20
  0
DIMENSION
  5
159
100
AcDbEntity
  8
dimensions
  6
ByLayer
 62
  256
370
   -1
100
AcDbDimension
  2
*D9
 10
-140
 20
-50
 30
0
 11
-144.6875
 21
-45
 31
0
 70
   32
  1
 
 71
    5
 72
    0
  3
Standard
 53
0
210
0
220
0
230
1
100
AcDbAlignedDimension
 13
-120
 23
-40
 33
0
 14
-120
 24
-50
 34
0
 50
90
100
AcDbRotatedDimension
  0
DIMENSION
  5
15A
100
AcDbEntity
  8
dimensions
  6
ByLayer
 62
  256
370
   -1
100
AcDbDimension
  2
*D10
 10
-127.999976
 20
-40
 30
0
 11
-132.687476
 21
1.199999999812462e-05
 31
0
 70
   32
  1
 
 71
    5
  3
Standard
 53
0
210
0
220
0
230
1
100
AcDbAlignedDimension
 13
-87.999976
 23
40.000024
 33
0
 14
-87.999976
 24
-40
 34
0
 50
90
100
AcDbRotatedDimension
  0
DIMENSION
  5
15B
100
AcDbEntity
  8
dimensions
  6
ByLayer
 62
  256
370
   -1
100
AcDbDimension
  2
*D11
 10
-240
 20
-50.00000000000001
 30
0
 11
-244.6875
 21
2.131628207280301e-14
 31
0
 70
   33
  1
 
 71
    5
  3
Standard
 53
0
210
0
220
0
230
1
100
AcDbAlignedDimension
 13
-87.999976
 23
50
 33
0
 14
-87.999976
 24
-50
 34
0
  0
LEADER
  5
15C
100
AcDbEntity
  8
dimensions
  6
ByLayer
 62
  256
370
   -1
100
AcDbLeader
  3
Standard
 71
    1
 72
    0
 73
    3
 74
    0
 75
    0
 40
1
 41
10
 76
4
 76
4
 10
-140
 20
-45
 30
0
 10
-150
 20
-45
 30
0
 10
-160
 20
-120
 30
0
 10
-290
 20
-120
 30
0
  0
MTEXT
  5
15D
100
AcDbEntity
  8
dimensions
  6
ByLayer
 62
  256
370
   -1
100
AcDbMText
 10
-276.6666666666666
 20
-80
 30
0
 40
30
 41
90.00000000000139
 71
    1
 72
    1
  1
PThk
  7
standard
210
0
220
0
230
1
 50
0
 73
    2
 44
1
  0
LWPOLYLINE
  5
15E
100
AcDbEntity
  8
out-part
  6
ByLayer
 62
  256
370
   -1
100
AcDbPolyline
 90
   13
 70
    0
 43
0
 10
-120
 20
50
 10
-40
 20
50
 10
-30
 20
48.88888888888889
 10
-30
 20
110
 10
-20
 20
110
 10
-20
 20
60
 10
-10
 20
60
 10
-10
 20
26.66666666666666
 10
-40
 20
30
 10
-40
 20
40
 10
-120
 20
40
 10
-120
 20
50
 10
-120
 20
50
  0
LWPOLYLINE
  5
15F
100
AcDbEntity
  8
out-part
  6
ByLayer
 62
  256
370
   -1
100
AcDbPolyline
 90
   13
 70
    0
 43
0
 10
110
 20
40
 10
50
 20
40
 10
30
 20
42.22222222222222
 10
30
 20
110
 10
20
 20
110
 10
20
 20
60
 10
10
 20
60
 10
10
 20
24.44444444444444
 10
50
 20
20
 10
50
 20
30
 10
110
 20
30
 10
110
 20
40
 10
110
 20
40
  0
DIMENSION
  5
160
100
AcDbEntity
  8
dimensions
  6
ByLayer
 62
  256
370
   -1
100
AcDbDimension
  2
*D13
 10
-4.849068745662361e-16
 20
-130
 30
0
 11
-60.00000000000001
 21
-125.3125
 31
0
 70
   33
  1
 
 71
    5
  3
Standard
 53
0
210
0
220
0
230
1
100
AcDbAlignedDimension
 13
-120
 23
-50
 33
0
 14
0
 24
-50
 34
0
  0
DIMENSION
  5
161
100
AcDbEntity
  8
dimensions
  6
ByLayer
 62
  256
370
   -1
100
AcDbDimension
  2
*D14
 10
-39.99999999999999
 20
-70
 30
0
 11
-20.00000000000001
 21
-65.3125
 31
0
 70
   33
  1
 
 71
    5
  3
Standard
 53
0
210
0
220
0
230
1
100
AcDbAlignedDimension
 13
0
 23
-49.99999999999999
 33
0
 14
-40
 24
-50.00000000000001
 34
0
  0
DIMENSION
  5
162
100
AcDbEntity
  8
out-part
  6
ByLayer
 62
  256
370
   -1
100
AcDbDimension
  2
*D15
 10
50
 20
-70
 30
0
 11
25.24999999999999
 21
-65.3125
 31
0
 70
   32
  1
 
 71
    5
 72
    0
  3
Standard
 53
0
210
0
220
0
230
1
100
AcDbAlignedDimension
 13
0.4999999999999787
 23
-45.5
 33
0
 14
50
 24
-50
 34
0
100
AcDbRotatedDimension
  0
MTEXT
  5
163
100
AcDbEntity
  8
out-part
  6
ByLayer
 62
  256
370
   -1
100
AcDbMText
 10
10
 20
-80
 30
0
 40
30
 41
40.00000000000186
 71
    1
 72
    1
  1
G2
  7
standard
210
0
220
0
230
1
 50
0
 73
    2
 44
1
  0
DIMENSION
  5
164
100
AcDbEntity
  8
out-part
  6
ByLayer
 62
  256
370
   -1
100
AcDbDimension
  2
*D16
 10
-5.51091059616309e-15
 20
-130
 30
0
 11
55
 21
-125.3125
 31
0
 70
   32
  1
 
 71
    5
 72
    0
  3
Standard
 53
0
210
0
220
0
230
1
100
AcDbAlignedDimension
 13
110
 23
-40
 33
0
 14
0
 24
-40
 34
0
100
AcDbRotatedDimension
  0
MTEXT
  5
165
100
AcDbEntity
  8
out-part
  6
ByLayer
 62
  256
370
   -1
100
AcDbMText
 10
60
 20
-90
 30
0
 40
30
 41
40
 71
    1
 72
    1
  1
H2
  7
standard
210
0
220
0
230
1
 50
0
 73
    2
 44
1
  0
LEADER
  5
166
100
AcDbEntity
  8
axis
  6
ByLayer
 62
  256
370
   -1
100
AcDbLeader
  3
Standard
 71
    1
 72
    0
 73
    3
 74
    0
 75
    0
 40
1
 41
10
 76
2
 76
2
 10
510
 20
0
 30
0
 10
0
 20
0
 30
0
  0
MTEXT
  5
167
100
AcDbEntity
  8
axis
  6
ByLayer
 62
  256
370
   -1
100
AcDbMText
 10
370
 20
40
 30
0
 40
30
 41
212.5000000000019
 71
    1
 72
    1
  1
FreeCAD X
  7
standard
210
0
220
0
230
1
 50
0
 73
    2
 44
1
  0
LWPOLYLINE
  5
168
100
AcDbEntity
  8
out-part
  6
ByLayer
 62
  256
370
   -1
100
AcDbPolyline
 90
   12
 70
    0
 43
0
 10
-120
 20
-40
 10
-40
 20
-40
 10
-40
 20
-30
 10
50
 20
-20
 10
50
 20
-30
 10
110
 20
-30
 10
110
 20
-40
 10
50
 20
-40
 10
-40
 20
-50
 10
-120
 20
-50
 10
-120
 20
-40
 10
-120
 20
-40
  0
MTEXT
  5
169
100
AcDbEntity
  8
axis
  6
ByLayer
 62
  256
370
   -1
100
AcDbMText
 10
10
 20
230
 30
0
 40
30
 41
209.1666666666685
 71
    1
 72
    1
  1
FreeCAD Z
  7
standard
210
0
220
0
230
1
 50
0
 73
    2
 44
1
  0
LEADER
  5
16A
100
AcDbEntity
  8
axis
  6
ByLayer
 62
  256
370
   -1
100
AcDbLeader
  3
Standard
 71
    1
 72
    0
 73
    3
 74
    0
 75
    0
 40
1
 41
10
 76
2
 76
2
 10
0
 20
250
 30
0
 10
0
 20
-40
 30
0
  0
DIMENSION
  5
16B
100
AcDbEntity
  8
dimensions
  6
ByLayer
 62
  256
370
   -1
100
AcDbDimension
  2
*D19
 10
190
 20
0
 30
0
 11
185.3125
 21
55
 31
0
 70
   33
  1
 
 71
    5
  3
Standard
 53
0
210
0
220
0
230
1
100
AcDbAlignedDimension
 13
120
 23
110
 33
0
 14
120
 24
0
 34
0
  0
DIMENSION
  5
16C
100
AcDbEntity
  8
dimensions
  6
ByLayer
 62
  256
370
   -1
100
AcDbDimension
  2
*D20
 10
120
 20
0
 30
0
 11
115.3125
 21
30
 31
0
 70
   33
  1
 
 71
    5
  3
Standard
 53
0
210
0
220
0
230
1
100
AcDbAlignedDimension
 13
90
 23
60
 33
0
 14
90
 24
0
 34
0
  0
DIMENSION
  5
16D
100
AcDbEntity
  8
dimensions
  6
ByLayer
 62
  256
370
   -1
100
AcDbDimension
  2
*D21
 10
20
 20
90
 30
0
 11
2.870265935501609e-16
 21
94.6875
 31
0
 70
   33
  1
 
 71
    5
  3
Standard
 53
0
210
0
220
0
230
1
100
AcDbAlignedDimension
 13
-20
 23
90
 33
0
 14
20
 24
90
 34
0
  0
DIMENSION
  5
16E
100
AcDbEntity
  8
dimensions
  6
ByLayer
 62
  256
370
   -1
100
AcDbDimension
  2
*D22
 10
30
 20
120
 30
0
 11
2.870265935501609e-16
 21
124.6875
 31
0
 70
   33
  1
 
 71
    5
  3
Standard
 53
0
210
0
220
0
230
1
100
AcDbAlignedDimension
 13
-30
 23
110
 33
0
 14
30
 24
110
 34
0
  0
LEADER
  5
16F
100
AcDbEntity
  8
additional-dimensions
  6
ByLayer
 62
  256
370
   -1
100
AcDbLeader
  3
Standard
 71
    1
 72
    0
 73
    3
 74
    0
 75
    0
 40
1
 41
10
 76
3
 76
3
 10
-120
 20
0
 30
0
 10
-190
 20
60
 30
0
 10
-240
 20
60
 30
0
  0
MTEXT
  5
170
100
AcDbEntity
  8
additional-dimensions
  6
ByLayer
 62
  256
370
   -1
100
AcDbMText
 10
-230
 20
120
 30
0
 40
30
 41
30
 71
    1
 72
    1
  1
p1
  7
standard
210
0
220
0
230
1
 50
0
 73
    2
 44
1
  0
LEADER
  5
171
100
AcDbEntity
  8
additional-dimensions
  6
ByLayer
 62
  256
370
   -1
100
AcDbLeader
  3
Standard
 71
    1
 72
    0
 73
    3
 74
    0
 75
    0
 40
1
 41
10
 76
3
 76
3
 10
-40
 20
0
 30
0
 10
-110
 20
60
 30
0
 10
-170
 20
60
 30
0
  0
MTEXT
  5
172
100
AcDbEntity
  8
additional-dimensions
  6
ByLayer
 62
  256
370
   -1
100
AcDbMText
 10
-180
 20
110
 30
0
 40
30
 41
36.66666666666667
 71
    1
 72
    1
  1
p2
  7
standard
210
0
220
0
230
1
 50
0
 73
    2
 44
1
  0
LWPOLYLINE
  5
173
100
AcDbEntity
  8
0
  6
ByLayer
 62
  256
370
   -1
100
AcDbPolyline
 90
    4
 70
    1
 43
0
 10
60
 20
-40
 10
-30
 20
-50
 10
-30
 20
50
 10
60
 20
40
  0
DIMENSION
  5
174
100
AcDbEntity
  8
additional-dimensions
  6
ByLayer
 62
  256
370
   -1
100
AcDbDimension
  2
*D25
 10
50
 20
50
 30
0
 11
55
 21
54.6875
 31
0
 70
   32
  1
 
 71
    5
 72
    0
  3
Standard
 53
0
210
0
220
0
230
1
100
AcDbAlignedDimension
 13
60
 23
40
 33
0
 14
50
 24
40
 34
0
100
AcDbRotatedDimension
  0
MTEXT
  5
175
100
AcDbEntity
  8
additional-dimensions
  6
ByLayer
 62
  256
370
   -1
100
AcDbMText
 10
50
 20
90
 30
0
 40
30
 41
30.0000000000014
 71
    1
 72
    1
  1
a1
  7
standard
210
0
220
0
230
1
 50
0
 73
    2
 44
1
  0
LEADER
  5
176
100
AcDbEntity
  8
additional-dimensions
  6
ByLayer
 62
  256
370
   -1
100
AcDbLeader
  3
Standard
 71
    1
 72
    0
 73
    3
 74
    0
 75
    0
 40
1
 41
10
 76
3
 76
3
 10
50
 20
0
 30
0
 10
-90
 20
140
 30
0
 10
-140
 20
140
 30
0
  0
MTEXT
  5
177
100
AcDbEntity
  8
additional-dimensions
  6
ByLayer
 62
  256
370
   -1
100
AcDbMText
 10
-133.3333333333333
 20
190
 30
0
 40
30
 41
36.66666666666853
 71
    1
 72
    1
  1
p3
  7
standard
210
0
220
0
230
1
 50
0
 73
    2
 44
1
  0
LEADER
  5
178
100
AcDbEntity
  8
additional-dimensions
  6
ByLayer
 62
  256
370
   -1
100
AcDbLeader
  3
Standard
 71
    1
 72
    0
 73
    3
 74
    0
 75
    0
 40
1
 41
10
 76
3
 76
3
 10
0
 20
60
 30
0
 10
-70
 20
210
 30
0
 10
-150
 20
210
 30
0
  0
MTEXT
  5
179
100
AcDbEntity
  8
additional-dimensions
  6
ByLayer
 62
  256
370
   -1
100
AcDbMText
 10
-120
 20
270
 30
0
 40
30
 41
40
 71
    1
 72
    1
  1
p4
  7
standard
210
0
220
0
230
1
 50
0
 73
    2
 44
1
  0
LEADER
  5
17A
100
AcDbEntity
  8
additional-dimensions
  6
ByLayer
 62
  256
370
   -1
100
AcDbLeader
  3
Standard
 71
    1
 72
    0
 73
    3
 74
    0
 75
    0
 40
1
 41
10
 76
3
 76
3
 10
-30
 20
0
 30
0
 10
-80
 20
-200
 30
0
 10
-160
 20
-200
 30
0
  0
MTEXT
  5
17B
100
AcDbEntity
  8
additional-dimensions
  6
ByLayer
 62
  256
370
   -1
100
AcDbMText
 10
-133.3333333333333
 20
-150
 30
0
 40
30
 41
36.66666666666853
 71
    1
 72
    1
  1
p5
  7
standard
210
0
220
0
230
1
 50
0
 73
    2
 44
1
  0
LEADER
  5
17C
100
AcDbEntity
  8
additional-dimensions
  6
ByLayer
 62
  256
370
   -1
100
AcDbLeader
  3
Standard
 71
    1
 72
    0
 73
    3
 74
    0
 75
    0
 40
1
 41
10
 76
3
 76
3
 10
60
 20
0
 30
0
 10
110
 20
-200
 30
0
 10
190
 20
-200
 30
0
  0
MTEXT
  5
17D
100
AcDbEntity
  8
additional-dimensions
  6
ByLayer
 62
  256
370
   -1
100
AcDbMText
 10
126.6666666666667
 20
-150
 30
0
 40
30
 41
36.66666666666853
 71
    1
 72
    1
  1
p6
  7
standard
210
0
220
0
230
1
 50
0
 73
    2
 44
1
  0
ENDSEC
  0
SECTION
  2
OBJECTS
  0
DICTIONARY
  5
C
330
0
100
AcDbDictionary
281
    1
  3
ACAD_GROUP
350
D
  0
DICTIONARY
  5
D
330
C
100
AcDbDictionary
281
    1
  0
ENDSEC
  0
EOF
